<?xml version="1.0" encoding="utf-8"?>
<!-- Generator: Adobe Illustrator 21.0.0, SVG Export Plug-In . SVG Version: 6.00 Build 0)  -->
<svg version="1.1" id="Layer_1" xmlns="http://www.w3.org/2000/svg" xmlns:xlink="http://www.w3.org/1999/xlink" x="0px" y="0px"
	 viewBox="0 0 730.9 393" style="enable-background:new 0 0 730.9 393;" xml:space="preserve">
<style type="text/css">
	.st0{fill:#FFFFFF;}
</style>
<g>
	<g>
		<path class="st0" d="M316.4,148.6l6.3-26.3c-5.7,0-11.6-0.3-17.4-1.3c-1.1-0.2-2.2-0.4-3.3-0.7l-6.5,26.4c1,0.2,1.9,0.3,2.9,0.5
			C304.3,148,310.3,148.3,316.4,148.6z M326.9,104c0.1,0,0.2,0,0.3,0l6.4-26.4c-6.3,0.7-12.7,1.1-19.1,0.6c-0.6,0-1.2-0.1-1.8-0.2
			l-6.6,26.4c0.5,0,0.9,0.1,1.4,0.1C313.8,104.8,320.2,104.4,326.9,104z M464.5,30.9c-1.9-7.1-5.2-13.2-9.8-18.2
			c-4.5-4.9-10-8.4-16.4-10.5c-4.3-1.4-9-2.2-13.9-2.2c-2.1,0-4.3,0.1-6.5,0.4L329,11.9l-12.4,49.9c6.4-0.4,13-1.4,19.8-2.4
			c0.5-0.1,1-0.2,1.5-0.3l6.1-25.5l70.4-6.7c0.8-0.1,1.6-0.1,2.4-0.1c2.7,0,5.3,0.5,7.6,1.3c2.9,1.1,5.5,2.9,7.5,5.3
			c2.1,2.5,3.6,5.5,4.4,8.9c0.9,3.7,0.9,7.8,0.1,12l-21,114.2c-0.9,5-2.7,9.6-5.2,13.9c-2.4,4.1-5.4,7.5-8.9,10.3
			c-3.4,2.7-7.1,4.6-10.9,5.6c-2,0.5-4.1,0.8-6.1,0.8c-1.8,0-3.6-0.2-5.3-0.6l-70.7-16.8l3.6-15.1c-5.2-0.6-10.5-1.4-15.7-3
			c-1.6-0.5-3.1-1-4.7-1.5l-10.3,41.3l91.1,26.2c4.1,1.2,8.4,1.8,12.8,1.8c3.4,0,6.9-0.4,10.4-1.1c7.7-1.7,15.1-5.2,21.9-10.4
			c6.9-5.3,12.8-11.9,17.5-19.8c4.9-8.1,8.2-17.1,9.8-26.6l20.4-118.8C466.7,46.4,466.5,38.3,464.5,30.9z"/>
		<g>
			<g>
				<path class="st0" d="M320.3,72.6c-2,0-4-0.1-5.8-0.2c-7.2-0.5-14.2-2-20.7-4.4c-6.4-2.2-12.7-5.3-18.7-9.2
					c-0.6-0.4-1.2-0.8-1.8-1.2c-0.8-0.6-1.7-1.1-2.5-1.7l-1.1-0.7l-1-0.8c-0.5-0.4-1-0.7-1.5-1.1l-1.3-1c-0.4-0.3-0.8-0.6-1.3-1
					s-0.9-0.8-1.4-1.1l-1.2-1.1l-0.6-0.5c-0.3-0.3-0.4-0.7-0.2-1c0.1-0.3,0.4-0.4,0.7-0.4c0.1,0,0.1,0,0.2,0l1.6,0.5
					c0.3,0.1,0.7,0.2,1,0.3c0.5,0.1,1,0.3,1.4,0.4c0.5,0.1,1,0.3,1.6,0.4l1.4,0.4c0.6,0.2,1.2,0.3,1.8,0.5l1.2,0.4l1.2,0.3
					c1.1,0.3,2.1,0.6,3.2,0.9l1.6,0.4c7.3,1.8,13.4,3,19.1,3.7c4.4,0.5,8.9,0.8,13.3,0.8c1.9,0,3.9-0.1,5.9-0.2
					c6.5-0.4,13.1-1.4,20-2.4l1.2-0.2c6.5-1.1,13.2-2.2,20-2.7c2.8-0.2,5.6-0.4,8.2-0.4c4.7,0,9.1,0.4,13.2,1.1
					c7,1.3,13.6,3.7,19.6,7.2c0.8,0.4,1.5,0.9,2.2,1.4l0.7,0.4c0.5,0.3,1,0.7,1.5,1c1.3,0.9,2.7,2,4.2,3.3c1.9,1.5,3.9,3.5,6.1,5.9
					c0.2,0.3,0.3,0.7,0.1,1c-0.1,0.3-0.4,0.4-0.7,0.4c-0.1,0-0.1,0-0.2,0c-1-0.2-1.9-0.5-2.8-0.7c-1.5-0.4-3.1-0.8-4.7-1.1l-0.4-0.1
					c-0.7-0.2-1.4-0.3-2-0.5c-0.5-0.1-1.1-0.2-1.6-0.3c-0.3,0-0.6-0.1-0.9-0.2c-0.7-0.1-1.3-0.2-2-0.4c-0.9-0.2-1.9-0.4-2.9-0.5
					c-6.5-1.1-12.5-1.6-18.5-1.6c-0.3,0-0.7,0-1.1,0c-6,0-12.5,0.6-19.7,1.6c-3.1,0.4-6.3,0.9-9.4,1.4c-3.6,0.6-7.2,1.1-11,1.6
					C329.7,72.3,324.8,72.6,320.3,72.6z"/>
			</g>
			<g>
				<path class="st0" d="M400.9,124.7c-0.1,0-0.2,0-0.3,0c-0.9-0.3-1.7-0.6-2.6-0.9c-1.5-0.5-3-1.1-4.5-1.6l-0.4-0.1
					c-0.7-0.2-1.3-0.4-2-0.7c-0.5-0.2-1-0.3-1.5-0.5c-0.3-0.1-0.6-0.2-0.9-0.3c-0.6-0.2-1.3-0.4-1.9-0.6c-0.9-0.3-1.9-0.6-2.8-0.8
					c-6.7-1.8-12.9-3-19-3.6c-3.6-0.3-7.3-0.5-11.3-0.5c-2.5,0-5.1,0.1-7.9,0.2c-3,0.1-6.1,0.3-9.2,0.5c-3.5,0.2-7.1,0.4-10.7,0.6
					c-1.3,0-2.6,0-4,0c-6.3,0-11.7-0.4-16.7-1.3c-7-1.3-13.8-3.5-20.1-6.5c-6.2-2.9-12.3-6.7-18.1-11.2c-0.6-0.5-1.2-0.9-1.7-1.4
					c-0.8-0.7-1.6-1.3-2.4-2l-1-0.8l-1-0.9c-0.5-0.4-1-0.9-1.4-1.3l-1.3-1.2c-0.4-0.4-0.8-0.7-1.2-1.1c-0.5-0.4-0.9-0.9-1.3-1.3
					l-0.6-0.6l-1.2-1.2c-0.3-0.3-0.3-0.7-0.1-1c0.2-0.2,0.4-0.4,0.7-0.4c0.1,0,0.2,0,0.3,0.1l1.4,0.6c0.3,0.1,0.6,0.3,0.9,0.4
					c0.5,0.2,1,0.4,1.4,0.6c0.5,0.2,1,0.4,1.4,0.6l1.4,0.6c0.6,0.2,1.2,0.5,1.8,0.7l1.2,0.5l1.2,0.4c1,0.4,2,0.8,3,1.2
					c0.6,0.2,1.1,0.4,1.6,0.6c7.1,2.6,13,4.4,18.5,5.7c6.1,1.4,12.4,2.3,18.7,2.6c1.5,0.1,3.1,0.1,4.7,0.1c4.9,0,10-0.3,14.7-0.6
					l1.2-0.1c5.5-0.4,11.2-0.8,17-0.8c0.8,0,1.6,0,2.4,0c7.6,0.1,14.6,1.1,20.8,2.9c6.8,2,13.2,5.2,19,9.3c0.7,0.5,1.4,1.1,2.2,1.6
					l0.6,0.5c0.5,0.4,1,0.8,1.5,1.2c1.3,1.1,2.6,2.3,4.1,3.8c1.8,1.7,3.8,3.9,5.9,6.7c0.2,0.3,0.2,0.7,0,1
					C401.4,124.6,401.2,124.7,400.9,124.7z"/>
			</g>
			<g>
				<path class="st0" d="M389.1,177.3c-0.1,0-0.2,0-0.3-0.1c-0.8-0.4-1.6-0.7-2.3-1.1c-1.4-0.7-2.9-1.4-4.4-2.1l-0.4-0.2
					c-0.7-0.3-1.3-0.6-1.9-0.9c-0.5-0.2-1-0.4-1.5-0.6c-0.3-0.1-0.5-0.2-0.8-0.3c-0.6-0.2-1.3-0.5-1.9-0.8c-0.9-0.4-1.8-0.8-2.7-1.1
					c-6.5-2.6-12.5-4.4-18.4-5.6c-5.7-1.2-11.8-1.9-18.7-2.2c-2.9-0.2-6-0.3-8.9-0.4c-3.4-0.1-6.9-0.3-10.4-0.5
					c-7.9-0.6-14.3-1.7-20-3.4c-6.8-2-13.4-4.9-19.5-8.7c-6-3.6-11.9-8.1-17.6-13.3c-0.5-0.5-1-1-1.5-1.5l-0.2-0.1
					c-0.8-0.7-1.6-1.5-2.3-2.2l-1-1l-1-1c-0.5-0.5-1-1-1.4-1.5l-1.2-1.3c-0.4-0.4-0.8-0.8-1.2-1.3s-0.8-0.9-1.2-1.4
					c0,0-1.4-1.7-1.7-1.9c-0.3-0.3-0.3-0.7,0-1c0.2-0.2,0.4-0.3,0.6-0.3c0.1,0,0.3,0,0.4,0.1l1.1,0.6c0.3,0.1,0.6,0.3,0.8,0.5h0.1
					c0.4,0.2,0.9,0.5,1.4,0.7s1,0.5,1.5,0.8l1.3,0.7c0.6,0.3,1.2,0.6,1.8,0.9l1.1,0.6l1.1,0.6c1,0.5,2,1,3,1.5l1.5,0.8
					c6.9,3.4,12.6,5.8,18,7.7c6,2.1,11.9,3.6,18.2,4.5c6.1,0.9,12.4,1.2,18.9,1.5h1.2c6.1,0.2,12.4,0.3,18.8,1.1
					c7.4,0.9,14.2,2.6,20.2,5.1c6.6,2.7,12.8,6.6,18.4,11.4c0.7,0.6,1.4,1.2,2.1,1.9l0.6,0.6c0.5,0.5,1,0.9,1.4,1.4
					c1.3,1.2,2.5,2.6,3.9,4.3c1.8,2,3.6,4.4,5.6,7.3c0.2,0.3,0.2,0.7,0,1C389.5,177.2,389.3,177.3,389.1,177.3z"/>
			</g>
		</g>
	</g>
	<g>
		<g>
			<path class="st0" d="M0,391.5l12-85.6c10.3-0.7,19.9-1.1,28.9-1.1c13.9,0,23.3,3.2,28.2,9.7c4.9,6.5,6.2,18.1,3.8,34.8
				c-1.1,7.6-2.4,14-4,19.1s-3.5,9.3-5.6,12.5c-2.2,3.2-4.9,5.7-8.4,7.4c-3.4,1.7-7,2.8-10.8,3.4s-8.5,0.9-14.3,0.9
				C21.5,392.6,11.6,392.3,0,391.5z M25.9,317.8l-8.7,61.5c6.3,0.2,10.4,0.2,12.4,0.2c6.2,0,10.9-0.7,14.1-2.2
				c3.2-1.4,5.8-4.4,7.9-8.9c2.1-4.5,3.8-11.3,5.1-20.5c0.7-5.4,1.2-9.8,1.3-13.2c0.1-3.4-0.1-6.3-0.6-8.7c-0.5-2.4-1.5-4.1-3-5.3
				c-1.5-1.2-3.3-2-5.5-2.5c-2.1-0.5-4.9-0.7-8.5-0.7L25.9,317.8z"/>
			<path class="st0" d="M134.4,391.5h-11.9l0.4-10.5c-6.9,7.9-15.3,12-25.4,12c-7.4,0.1-12.5-2.4-15.2-7.3c-2.7-5-3.2-13.5-1.6-25.6
				c1-6.9,2.4-12.4,4.2-16.7c1.8-4.3,4.1-7.4,7-9.5s5.8-3.4,8.7-4c2.9-0.6,6.8-0.9,11.5-0.9c10.5,0,20.7,1.2,30.6,3.6L134.4,391.5z
				 M126.3,341.1l-11-0.1c-3.8,0-6.7,0.2-8.7,0.6s-3.7,1.3-5.3,2.7c-1.5,1.4-2.6,3.4-3.3,5.9s-1.4,6-2,10.7
				c-1.2,8.5-1.4,13.9-0.7,16.1c0.7,2.2,2.7,3.3,6.1,3.3c3.5,0,6.8-1,10-2.9s6.9-5,11-9.1L126.3,341.1z"/>
			<path class="st0" d="M195.8,330.7h15.8c-1.8,10.1-5,21.2-9.6,33.2c-3.2,8.4-6.4,14.8-9.6,19.1c-2,3.1-4.1,5.2-6.3,6.5
				s-5.2,1.9-9,1.9h-12.3c-2.6,0-4.2-1.3-4.6-3.8l-10.9-56.9h15.9l7.1,49.6h1.7c1.7,0,3-0.3,4-0.9s2.1-1.7,3.3-3.5
				c2.2-3.4,4.8-9.1,7.6-17.1C191.7,351.3,194,341.9,195.8,330.7z"/>
			<path class="st0" d="M228.4,391.5h-15l8.6-60.8h14.9L228.4,391.5z"/>
			<path class="st0" d="M273.2,369.4l-15.5-6.9c-4.7-2.2-8-4.7-9.9-7.6s-2.6-6.5-2.1-10.8c0.7-5.6,3.1-9.6,7.3-11.8
				c4.2-2.3,10.6-3.4,19.2-3.3c9.7,0.2,18.6,0.9,26.9,2.2l-1.6,10.3c-7.9-0.2-16-0.4-24.3-0.4c-5,0-8.4,0.2-10,0.6
				c-1.7,0.4-2.6,1.5-2.9,3.3c-0.2,1.7,0.1,2.9,1.1,3.8s2.9,1.9,5.8,3.2l15.5,6.9c5.1,2.2,8.6,4.7,10.5,7.3c1.9,2.6,2.6,6.2,2,10.7
				c-0.4,2.8-1.2,5.2-2.2,7.1c-1.1,1.9-2.4,3.4-3.9,4.6s-3.6,2-6.1,2.7c-2.5,0.6-5.1,1-7.6,1.2c-2.6,0.2-5.7,0.3-9.6,0.3
				c-3.1,0-5.9-0.1-8.3-0.2s-4.2-0.2-5.4-0.4c-1.2-0.1-3-0.4-5.4-0.7c-2.4-0.3-4.3-0.6-5.8-0.7l1.6-10.5c4.4,0.3,10.7,0.5,18.9,0.5
				c7.5,0,12.5-0.3,14.9-0.9s3.9-1.9,4.3-3.9c-0.1-0.5-0.1-0.9,0.1-1.2c0.1-0.3,0.1-0.6-0.2-0.9c-0.2-0.3-0.4-0.6-0.4-0.7
				c0-0.2-0.2-0.4-0.6-0.6s-0.6-0.5-0.8-0.6c-0.2-0.2-0.5-0.4-1-0.6s-0.9-0.4-1.2-0.6c-0.3-0.2-0.8-0.4-1.5-0.7
				C274.1,369.8,273.6,369.6,273.2,369.4z"/>
			<path class="st0" d="M380.9,305.9l-12,85.6h-15.5l5.5-39.1h-33.5l-5.6,39.1h-15.6l12-85.6h15.6l-4.7,33.6h33.6l4.7-33.6H380.9z"
				/>
			<path class="st0" d="M434.8,379.2l1,9.8c-6.4,2.6-15,4-25.8,4s-18.4-2.7-22.6-8.3c-4.2-5.5-5.6-13.9-4.1-25.2
				c1.6-11.7,4.8-19.7,9.8-24s13.2-6.5,24.6-6.5c10.1,0,16.9,1.7,20.4,5.1s4.8,8.5,3.9,15.1c-0.8,6-3.1,10.3-6.9,12.9
				s-9.6,4.2-17.5,4.7l-19.2,1.6c0.1,4.8,1.2,8,3.5,9.7c2.2,1.7,5.6,2.5,10.2,2.5C418.8,380.7,426.4,380.2,434.8,379.2z
				 M399.2,358.3l17.4-1.5c3.5-0.2,6-1,7.6-2.3s2.6-3.5,3-6.6c0.2-3.1-0.4-5.1-1.9-5.8c-1.5-0.7-4.7-1.1-9.6-1.1
				c-5.5,0.1-9.3,1.3-11.5,3.5C402.1,346.7,400.4,351.3,399.2,358.3z"/>
			<path class="st0" d="M502,391.5h-11.9l0.4-10.5c-6.9,7.9-15.3,12-25.4,12c-7.4,0.1-12.5-2.4-15.2-7.3c-2.7-5-3.2-13.5-1.6-25.6
				c1-6.9,2.4-12.4,4.2-16.7c1.8-4.3,4.1-7.4,7-9.5s5.8-3.4,8.7-4c2.9-0.6,6.8-0.9,11.5-0.9c10.5,0,20.7,1.2,30.6,3.6L502,391.5z
				 M494,341.1l-11-0.1c-3.8,0-6.7,0.2-8.7,0.6s-3.7,1.3-5.3,2.7c-1.5,1.4-2.6,3.4-3.3,5.9s-1.4,6-2,10.7
				c-1.2,8.5-1.4,13.9-0.7,16.1c0.7,2.2,2.7,3.3,6.1,3.3c3.5,0,6.8-1,10-2.9s6.9-5,11-9.1L494,341.1z"/>
			<path class="st0" d="M542.6,341.6l-4.5,31.3c-0.3,2.6-0.1,4.4,0.7,5.3s2.5,1.4,5.3,1.4h8.6l0.6,11.2c-4.2,1.4-9.3,2.1-15.4,2.1
				c-5.5,0-9.6-1.6-12.2-4.7c-2.6-3.1-3.5-7.6-2.7-13.3l4.7-33.2h-11l1.4-10.3l11.3-0.6l2.5-17.5h14.9l-2.5,17.5h17.6l-1.4,10.9
				L542.6,341.6L542.6,341.6z"/>
			<path class="st0" d="M614.8,379.2l1,9.8c-6.4,2.6-15,4-25.8,4s-18.4-2.7-22.6-8.3c-4.2-5.5-5.6-13.9-4.1-25.2
				c1.6-11.7,4.8-19.7,9.8-24s13.2-6.5,24.6-6.5c10.1,0,16.9,1.7,20.4,5.1s4.8,8.5,3.9,15.1c-0.8,6-3.1,10.3-6.9,12.9
				c-3.8,2.6-9.6,4.2-17.5,4.7l-19.2,1.6c0.1,4.8,1.2,8,3.5,9.7c2.2,1.7,5.6,2.5,10.2,2.5C598.9,380.7,606.5,380.2,614.8,379.2z
				 M579.2,358.3l17.4-1.5c3.5-0.2,6-1,7.6-2.3s2.6-3.5,3-6.6c0.2-3.1-0.4-5.1-1.9-5.8c-1.5-0.7-4.7-1.1-9.6-1.1
				c-5.5,0.1-9.3,1.3-11.5,3.5C582.1,346.7,580.4,351.3,579.2,358.3z"/>
			<path class="st0" d="M676.4,329l-3.5,14.1h-4c-2,0-4.2,0.5-6.6,1.4c-2.4,1-4.6,2-6.6,3.1s-5,3-9.1,5.6l-5.2,38.2h-15l8.6-60.8
				h11.5l-0.4,12.9c9.8-9.8,18.6-14.6,26.7-14.6L676.4,329L676.4,329z"/>
			<path class="st0" d="M705.1,369.4l-15.5-6.9c-4.7-2.2-8-4.7-9.9-7.6s-2.6-6.5-2.1-10.8c0.7-5.6,3.1-9.6,7.3-11.8
				c4.2-2.3,10.6-3.4,19.2-3.3c9.7,0.2,18.6,0.9,26.9,2.2l-1.6,10.3c-7.9-0.2-16-0.4-24.3-0.4c-5,0-8.4,0.2-10,0.6
				c-1.7,0.4-2.6,1.5-2.9,3.3c-0.2,1.7,0.1,2.9,1.1,3.8s2.9,1.9,5.8,3.2l15.5,6.9c5.1,2.2,8.6,4.7,10.5,7.3c1.9,2.6,2.6,6.2,2,10.7
				c-0.4,2.8-1.2,5.2-2.2,7.1c-1.1,1.9-2.4,3.4-3.9,4.6s-3.6,2-6.1,2.7c-2.5,0.6-5.1,1-7.6,1.2c-2.6,0.2-5.7,0.3-9.6,0.3
				c-3.1,0-5.9-0.1-8.3-0.2c-2.4-0.1-4.2-0.2-5.4-0.4c-1.2-0.1-3-0.4-5.4-0.7c-2.4-0.3-4.3-0.6-5.8-0.7l1.6-10.5
				c4.4,0.3,10.7,0.5,18.9,0.5c7.5,0,12.5-0.3,14.9-0.9s3.9-1.9,4.3-3.9c-0.1-0.5-0.1-0.9,0.1-1.2c0.1-0.3,0.1-0.6-0.2-0.9
				c-0.2-0.3-0.4-0.6-0.4-0.7c0-0.2-0.2-0.4-0.6-0.6c-0.4-0.2-0.6-0.5-0.8-0.6c-0.2-0.2-0.5-0.4-1-0.6s-0.9-0.4-1.2-0.6
				s-0.8-0.4-1.5-0.7C706.1,369.8,705.5,369.6,705.1,369.4z"/>
		</g>
		<path class="st0" d="M229.4,304.3h6.8c1.5,0,2.6,0.4,3.3,1.2c0.7,0.8,1,1.9,0.8,3.3l-0.9,6.8c-0.5,2.7-2.1,4.1-4.7,4.1h-6.8
			c-3.1,0-4.5-1.6-4.1-4.7l1-6.7C225,305.7,226.6,304.3,229.4,304.3z"/>
	</g>
</g>
</svg>
