<?xml version="1.0" encoding="utf-8"?>
<!-- Generator: Adobe Illustrator 21.0.0, SVG Export Plug-In . SVG Version: 6.00 Build 0)  -->
<svg version="1.1" id="Layer_1" xmlns="http://www.w3.org/2000/svg" xmlns:xlink="http://www.w3.org/1999/xlink" x="0px" y="0px"
	 viewBox="0 0 453.7 230.9" style="enable-background:new 0 0 453.7 230.9;" xml:space="preserve">
<style type="text/css">
	.st0{fill:none;}
	.st1{fill:url(#SVGID_1_);}
	.st2{fill:url(#SVGID_2_);}
	.st3{fill:url(#SVGID_3_);}
</style>
<path class="st0" d="M235,58.7h-17c-3,0-5.5,2.5-5.5,5.5v104.1c0,3,2.5,5.5,5.5,5.5h17c3,0,5.5-2.5,5.5-5.5V64.2
	C240.5,61.2,238.1,58.7,235,58.7z"/>
<linearGradient id="SVGID_1_" gradientUnits="userSpaceOnUse" x1="2.9371" y1="116.1235" x2="138.1566" y2="116.1235">
	<stop  offset="0.2" style="stop-color:#FBB03B"/>
	<stop  offset="0.7636" style="stop-color:#FBB03B"/>
</linearGradient>
<polygon class="st1" points="81.9,90.7 59.2,90.7 59.2,23.5 2.9,23.5 2.9,208.7 59.2,208.7 59.2,137 81.9,137 81.9,208.7 
	138.2,208.7 138.2,23.5 81.9,23.5 "/>
<linearGradient id="SVGID_2_" gradientUnits="userSpaceOnUse" x1="223.5377" y1="208.7171" x2="223.5377" y2="23.5299">
	<stop  offset="0" style="stop-color:#FBB03B"/>
	<stop  offset="1" style="stop-color:#FFFF00"/>
</linearGradient>
<path class="st2" d="M268.6,23.5h-90.1c-13.4,0-22.7,9.5-22.7,23v139.2c0,13.5,9.3,23,22.7,23h90.1c13.4,0,22.7-9.5,22.7-23V46.5
	C291.3,33.1,282,23.5,268.6,23.5z M237.5,168.3c0,3-2.5,5.5-5.5,5.5h-17c-3,0-5.5-2.5-5.5-5.5V64.2c0-3,2.5-5.5,5.5-5.5h17
	c3,0,5.5,2.5,5.5,5.5V168.3z"/>
<linearGradient id="SVGID_3_" gradientUnits="userSpaceOnUse" x1="307.1811" y1="116.1235" x2="451.6869" y2="116.1235">
	<stop  offset="0.2" style="stop-color:#FBB03B"/>
	<stop  offset="0.7636" style="stop-color:#FBB03B"/>
</linearGradient>
<polygon class="st3" points="426.4,110.8 447.3,48.4 447.3,23.5 393.6,23.5 381.8,90.7 377.1,90.7 365.2,23.5 311.6,23.5 
	311.6,48.4 332.5,110.8 307.2,186.8 307.2,208.7 363.7,208.7 377.1,137 381.8,137 395.2,208.7 451.7,208.7 451.7,186.8 "/>
</svg>
