<?xml version="1.0" encoding="utf-8"?>
<!-- Generator: Adobe Illustrator 21.0.0, SVG Export Plug-In . SVG Version: 6.00 Build 0)  -->
<svg version="1.1" id="Layer_1" xmlns="http://www.w3.org/2000/svg" xmlns:xlink="http://www.w3.org/1999/xlink" x="0px" y="0px"
	 viewBox="0 0 26.2 27.6" style="enable-background:new 0 0 26.2 27.6;" xml:space="preserve">
<style type="text/css">
	.st0{fill:#70808F;}
	.st1{fill:#6D213F;}
</style>
<g>
	<path class="st0" d="M8.3,17.7l0.8-3.1c-0.7,0-1.4,0-2.1-0.2c-0.1,0-0.3,0-0.4-0.1l-0.8,3.1c0.1,0,0.2,0,0.3,0.1
		C6.9,17.6,7.6,17.7,8.3,17.7z M9.6,12.4C9.6,12.4,9.6,12.4,9.6,12.4l0.8-3.1C9.6,9.3,8.9,9.4,8.1,9.3c-0.1,0-0.1,0-0.2,0l-0.8,3.1
		c0.1,0,0.1,0,0.2,0C8,12.5,8.8,12.4,9.6,12.4z M26,3.7c-0.2-0.8-0.6-1.6-1.2-2.2c-0.5-0.6-1.2-1-2-1.3C22.4,0.1,21.8,0,21.2,0
		c-0.3,0-0.5,0-0.8,0L9.8,1.4L8.4,7.4c0.8,0,1.5-0.2,2.4-0.3c0.1,0,0.1,0,0.2,0l0.7-3L20,3.2c0.1,0,0.2,0,0.3,0
		c0.3,0,0.6,0.1,0.9,0.2c0.3,0.1,0.7,0.3,0.9,0.6c0.3,0.3,0.4,0.7,0.5,1.1c0.1,0.4,0.1,0.9,0,1.4l-2.5,13.6
		c-0.1,0.6-0.3,1.1-0.6,1.7c-0.3,0.5-0.6,0.9-1.1,1.2c-0.4,0.3-0.8,0.5-1.3,0.7c-0.2,0.1-0.5,0.1-0.7,0.1c-0.2,0-0.4,0-0.6-0.1
		l-8.4-2l0.4-1.8c-0.6-0.1-1.3-0.2-1.9-0.4c-0.2-0.1-0.4-0.1-0.6-0.2l-1.2,4.9L15,27.4c0.5,0.1,1,0.2,1.5,0.2c0.4,0,0.8,0,1.2-0.1
		c0.9-0.2,1.8-0.6,2.6-1.2c0.8-0.6,1.5-1.4,2.1-2.4c0.6-1,1-2,1.2-3.2l2.4-14.2C26.2,5.5,26.2,4.6,26,3.7z"/>
	<g>
		<g>
			<path class="st1" d="M8.8,8.7c-0.2,0-0.5,0-0.7,0C7.2,8.6,6.4,8.4,5.6,8.1C4.9,7.8,4.1,7.5,3.4,7C3.3,7,3.3,6.9,3.2,6.9
				C3.1,6.8,3,6.7,2.9,6.7L2.8,6.6L2.6,6.5c-0.1,0-0.1-0.1-0.2-0.1L2.3,6.2c0,0-0.1-0.1-0.2-0.1C2.1,6.1,2.1,6,2,6L1.9,5.9L1.8,5.8
				c0,0,0-0.1,0-0.1c0,0,0,0,0.1,0c0,0,0,0,0,0l0.2,0.1c0,0,0.1,0,0.1,0c0.1,0,0.1,0,0.2,0c0.1,0,0.1,0,0.2,0l0.2,0
				c0.1,0,0.1,0,0.2,0.1l0.1,0l0.1,0c0.1,0,0.3,0.1,0.4,0.1l0.2,0C4.6,6.4,5.4,6.5,6,6.6c0.5,0.1,1.1,0.1,1.6,0.1c0.2,0,0.5,0,0.7,0
				c0.8,0,1.6-0.2,2.4-0.3l0.1,0c0.8-0.1,1.6-0.3,2.4-0.3c0.3,0,0.7,0,1,0c0.6,0,1.1,0,1.6,0.1c0.8,0.2,1.6,0.4,2.3,0.9
				c0.1,0,0.2,0.1,0.3,0.2l0.1,0c0.1,0,0.1,0.1,0.2,0.1c0.2,0.1,0.3,0.2,0.5,0.4c0.2,0.2,0.5,0.4,0.7,0.7c0,0,0,0.1,0,0.1
				c0,0,0,0-0.1,0c0,0,0,0,0,0c-0.1,0-0.2-0.1-0.3-0.1c-0.2,0-0.4-0.1-0.6-0.1l0,0c-0.1,0-0.2,0-0.2-0.1c-0.1,0-0.1,0-0.2,0
				c0,0-0.1,0-0.1,0c-0.1,0-0.2,0-0.2,0c-0.1,0-0.2,0-0.3-0.1C17,8,16.2,7.9,15.5,7.9c0,0-0.1,0-0.1,0c-0.7,0-1.5,0.1-2.3,0.2
				c-0.4,0-0.8,0.1-1.1,0.2c-0.4,0.1-0.9,0.1-1.3,0.2C9.9,8.6,9.3,8.7,8.8,8.7z"/>
		</g>
		<g>
			<path class="st1" d="M18.4,14.9C18.4,14.9,18.4,14.9,18.4,14.9c-0.1,0-0.2-0.1-0.3-0.1c-0.2-0.1-0.4-0.1-0.5-0.2l0,0
				c-0.1,0-0.2,0-0.2-0.1c-0.1,0-0.1,0-0.2-0.1c0,0-0.1,0-0.1,0c-0.1,0-0.2,0-0.2-0.1c-0.1,0-0.2-0.1-0.3-0.1
				c-0.8-0.2-1.5-0.4-2.3-0.4c-0.4,0-0.9-0.1-1.3-0.1c-0.3,0-0.6,0-0.9,0c-0.4,0-0.7,0-1.1,0.1c-0.4,0-0.8,0-1.3,0.1
				c-0.2,0-0.3,0-0.5,0c-0.8,0-1.4,0-2-0.2c-0.8-0.2-1.6-0.4-2.4-0.8c-0.7-0.3-1.5-0.8-2.2-1.3c-0.1-0.1-0.1-0.1-0.2-0.2
				c-0.1-0.1-0.2-0.2-0.3-0.2l-0.1-0.1L1.7,11c-0.1,0-0.1-0.1-0.2-0.2l-0.2-0.1c0,0-0.1-0.1-0.1-0.1c-0.1,0-0.1-0.1-0.2-0.2L1,10.3
				l-0.1-0.1c0,0,0-0.1,0-0.1c0,0,0,0,0.1,0c0,0,0,0,0,0l0.2,0.1c0,0,0.1,0,0.1,0c0.1,0,0.1,0,0.2,0.1c0.1,0,0.1,0,0.2,0.1l0.2,0.1
				c0.1,0,0.1,0.1,0.2,0.1l0.1,0.1l0.1,0c0.1,0,0.2,0.1,0.4,0.1c0.1,0,0.1,0,0.2,0.1c0.8,0.3,1.5,0.5,2.2,0.7
				c0.7,0.2,1.5,0.3,2.2,0.3c0.2,0,0.4,0,0.6,0c0.6,0,1.2,0,1.8-0.1l0.1,0c0.7,0,1.3-0.1,2-0.1c0.1,0,0.2,0,0.3,0
				c0.9,0,1.7,0.1,2.5,0.3c0.8,0.2,1.6,0.6,2.3,1.1c0.1,0.1,0.2,0.1,0.3,0.2l0.1,0.1c0.1,0,0.1,0.1,0.2,0.1c0.2,0.1,0.3,0.3,0.5,0.5
				c0.2,0.2,0.5,0.5,0.7,0.8C18.5,14.7,18.5,14.8,18.4,14.9C18.5,14.9,18.4,14.9,18.4,14.9z"/>
		</g>
		<g>
			<path class="st1" d="M17,21.1C17,21.1,17,21.1,17,21.1c-0.1-0.1-0.2-0.1-0.3-0.1c-0.2-0.1-0.3-0.2-0.5-0.3l0,0
				c-0.1,0-0.2-0.1-0.2-0.1c-0.1,0-0.1,0-0.2-0.1c0,0-0.1,0-0.1,0c-0.1,0-0.2-0.1-0.2-0.1c-0.1,0-0.2-0.1-0.3-0.1
				c-0.8-0.3-1.5-0.5-2.2-0.7c-0.7-0.1-1.4-0.2-2.2-0.3c-0.3,0-0.7,0-1.1,0c-0.4,0-0.8,0-1.2-0.1C7.4,19.2,6.6,19,6,18.8
				c-0.8-0.2-1.6-0.6-2.3-1c-0.7-0.4-1.4-1-2.1-1.6c-0.1-0.1-0.1-0.1-0.2-0.2l0,0c-0.1-0.1-0.2-0.2-0.3-0.3l-0.1-0.1l-0.1-0.1
				c-0.1-0.1-0.1-0.1-0.2-0.2l-0.1-0.2c0,0-0.1-0.1-0.1-0.2c0-0.1-0.1-0.1-0.1-0.2c0,0-0.2-0.2-0.2-0.2c0,0,0-0.1,0-0.1
				c0,0,0,0,0.1,0c0,0,0,0,0,0l0.1,0.1c0,0,0.1,0,0.1,0.1h0c0,0,0.1,0.1,0.2,0.1c0.1,0,0.1,0.1,0.2,0.1l0.2,0.1C1,14.9,1,15,1.1,15
				l0.1,0.1l0.1,0.1c0.1,0.1,0.2,0.1,0.4,0.2l0.2,0.1c0.8,0.4,1.5,0.7,2.1,0.9c0.7,0.3,1.4,0.4,2.2,0.5C6.9,17,7.7,17,8.5,17h0.1
				c0.7,0,1.5,0,2.2,0.1c0.9,0.1,1.7,0.3,2.4,0.6c0.8,0.3,1.5,0.8,2.2,1.4c0.1,0.1,0.2,0.1,0.3,0.2l0.1,0.1c0.1,0.1,0.1,0.1,0.2,0.2
				c0.2,0.1,0.3,0.3,0.5,0.5c0.2,0.2,0.4,0.5,0.7,0.9C17.1,21,17.1,21.1,17,21.1C17,21.1,17,21.1,17,21.1z"/>
		</g>
	</g>
</g>
</svg>
