<?xml version="1.0" encoding="utf-8"?>
<!-- Generator: Adobe Illustrator 21.0.0, SVG Export Plug-In . SVG Version: 6.00 Build 0)  -->
<svg version="1.1" id="Layer_1" xmlns="http://www.w3.org/2000/svg" xmlns:xlink="http://www.w3.org/1999/xlink" x="0px" y="0px"
	 viewBox="0 0 605.5 98" style="enable-background:new 0 0 605.5 98;" xml:space="preserve">
<style type="text/css">
	.st0{fill:#708090;}
	.st1{fill:#6D213E;}
</style>
<g>
	<path class="st0" d="M30,62.9l2.3-11.1c-2.4,0-4.9-0.1-7.4-0.5c-0.5-0.1-0.9-0.2-1.4-0.3l-2.4,11.2c0.4,0.1,0.8,0.1,1.2,0.2
		C24.8,62.6,27.4,62.8,30,62.9z M33.8,44c0,0,0.1,0,0.1,0l2.4-11.2c-2.7,0.3-5.4,0.4-8.1,0.3c-0.3,0-0.5,0-0.8-0.1L25,44.2
		c0.2,0,0.4,0,0.6,0C28.3,44.3,31,44.2,33.8,44z M91.1,13.1c-0.9-3-2.4-5.6-4.4-7.7c-2-2.1-4.4-3.6-7.1-4.5C77.8,0.3,75.8,0,73.7,0
		c-0.9,0-1.8,0.1-2.8,0.2L33.5,5l-4.6,21.1c2.7-0.2,5.5-0.6,8.4-1c0.2,0,0.4-0.1,0.6-0.1l2.3-10.8l29.7-2.8c0.3,0,0.7,0,1,0
		c1.1,0,2.2,0.2,3.2,0.6c1.3,0.5,2.3,1.2,3.2,2.2c0.9,1,1.6,2.3,2,3.8c0.4,1.6,0.5,3.3,0.2,5.1l-7.4,48.3c-0.3,2.1-1,4.1-2,5.9
		c-1,1.7-2.2,3.2-3.6,4.4c-1.4,1.1-2.9,1.9-4.5,2.3c-0.8,0.2-1.7,0.3-2.6,0.3c-0.8,0-1.5-0.1-2.2-0.3L27,76.9l1.3-6.4
		c-2.2-0.2-4.5-0.6-6.7-1.2c-0.7-0.2-1.3-0.4-2-0.6l-3.8,17.5l38.9,11.1c1.8,0.5,3.6,0.8,5.4,0.8c1.5,0,2.9-0.2,4.4-0.5
		c3.3-0.7,6.3-2.2,9.2-4.4c2.9-2.2,5.3-5,7.1-8.4c2-3.4,3.2-7.2,3.8-11.3l7.1-50.3C92.2,19.6,92,16.2,91.1,13.1z"/>
	<g>
		<g>
			<path class="st1" d="M30.6,30.7c-0.8,0-1.7,0-2.5-0.1c-3.1-0.2-6-0.8-8.8-1.8c-2.7-1-5.4-2.3-8-3.9c-0.3-0.2-0.5-0.3-0.8-0.5
				c-0.4-0.2-0.7-0.5-1.1-0.7L9,23.4l-0.4-0.3c-0.2-0.2-0.4-0.3-0.6-0.5l-0.6-0.4C7.1,22,7,21.9,6.8,21.7c-0.2-0.2-0.4-0.3-0.6-0.5
				l-0.5-0.4l-0.3-0.2c-0.1-0.1-0.2-0.3-0.1-0.4C5.3,20.1,5.5,20,5.6,20c0,0,0.1,0,0.1,0l0.7,0.2c0.1,0,0.3,0.1,0.4,0.1
				c0.2,0.1,0.4,0.1,0.6,0.2c0.2,0.1,0.4,0.1,0.7,0.2l0.6,0.2c0.3,0.1,0.5,0.1,0.8,0.2l0.5,0.2l0.5,0.1c0.5,0.1,0.9,0.2,1.4,0.4
				l0.7,0.2c3.1,0.8,5.7,1.3,8.1,1.6c1.9,0.2,3.8,0.3,5.6,0.3c0.8,0,1.7,0,2.5-0.1c2.7-0.2,5.5-0.6,8.4-1l0.5-0.1
				c2.7-0.5,5.6-0.9,8.4-1.1c1.2-0.1,2.4-0.2,3.5-0.2c2,0,3.9,0.2,5.6,0.5c3,0.5,5.8,1.6,8.4,3.1c0.3,0.2,0.6,0.4,1,0.6l0.3,0.2
				c0.2,0.1,0.4,0.3,0.7,0.4c0.6,0.4,1.2,0.8,1.8,1.4c0.8,0.7,1.7,1.5,2.7,2.5c0.1,0.1,0.1,0.3,0.1,0.4c-0.1,0.1-0.2,0.2-0.3,0.2
				c0,0-0.1,0-0.1,0c-0.4-0.1-0.8-0.2-1.2-0.3c-0.6-0.2-1.3-0.3-2-0.5l-0.2,0c-0.3-0.1-0.6-0.1-0.9-0.2c-0.2-0.1-0.5-0.1-0.7-0.1
				c-0.1,0-0.2,0-0.4-0.1c-0.3,0-0.6-0.1-0.8-0.2c-0.4-0.1-0.8-0.2-1.2-0.2c-2.8-0.5-5.3-0.7-7.8-0.7c-0.1,0-0.3,0-0.4,0
				c-2.6,0-5.3,0.2-8.3,0.7c-1.3,0.2-2.7,0.4-4,0.6c-1.5,0.2-3,0.5-4.6,0.7C34.6,30.6,32.5,30.7,30.6,30.7z"/>
		</g>
		<g>
			<path class="st1" d="M65.4,52.8c0,0-0.1,0-0.1,0c-0.4-0.1-0.7-0.3-1.1-0.4c-0.6-0.2-1.3-0.5-1.9-0.7l-0.2-0.1
				c-0.3-0.1-0.6-0.2-0.8-0.3c-0.2-0.1-0.4-0.1-0.6-0.2c-0.1,0-0.3-0.1-0.4-0.1c-0.3-0.1-0.5-0.2-0.8-0.2c-0.4-0.1-0.8-0.3-1.2-0.3
				c-2.8-0.8-5.5-1.3-8.1-1.5c-1.5-0.1-3.1-0.2-4.8-0.2c-1.1,0-2.2,0-3.3,0.1c-1.3,0-2.6,0.1-3.9,0.2c-1.5,0.1-3,0.2-4.5,0.2
				c-0.6,0-1.1,0-1.7,0c-2.7,0-5-0.2-7.1-0.6c-3-0.5-5.9-1.5-8.6-2.8c-2.7-1.2-5.3-2.8-7.8-4.8c-0.3-0.2-0.5-0.4-0.8-0.6
				c-0.4-0.3-0.7-0.6-1-0.8l-0.4-0.4l-0.4-0.4c-0.2-0.2-0.4-0.4-0.6-0.6L4.6,38c-0.2-0.2-0.4-0.3-0.5-0.5c-0.2-0.2-0.4-0.4-0.6-0.6
				l-0.2-0.2l-0.5-0.5c-0.1-0.1-0.1-0.3-0.1-0.4c0.1-0.1,0.2-0.2,0.3-0.2c0,0,0.1,0,0.1,0L3.7,36c0.1,0.1,0.3,0.1,0.4,0.2
				c0.2,0.1,0.4,0.2,0.6,0.3c0.2,0.1,0.4,0.2,0.6,0.2l0.6,0.2c0.3,0.1,0.5,0.2,0.8,0.3l0.5,0.2l0.5,0.2C8.1,37.7,8.6,37.9,9,38
				c0.2,0.1,0.5,0.2,0.7,0.3c3,1.1,5.6,1.9,7.9,2.4c2.6,0.6,5.3,1,7.9,1.1c0.6,0,1.3,0,2,0c2.1,0,4.2-0.1,6.2-0.2l0.5,0
				c2.3-0.2,4.7-0.3,7.2-0.3c0.3,0,0.7,0,1,0c3.2,0,6.2,0.5,8.8,1.2c2.9,0.9,5.6,2.2,8.1,3.9c0.3,0.2,0.6,0.4,0.9,0.7l0.3,0.2
				c0.2,0.2,0.4,0.3,0.6,0.5c0.6,0.4,1.1,1,1.8,1.6c0.8,0.7,1.6,1.7,2.6,2.8c0.1,0.1,0.1,0.3,0,0.4C65.6,52.7,65.5,52.8,65.4,52.8z"
				/>
		</g>
		<g>
			<path class="st1" d="M61.1,75c-0.1,0-0.1,0-0.1,0c-0.3-0.2-0.7-0.3-1-0.5c-0.6-0.3-1.2-0.6-1.9-0.9l-0.2-0.1
				c-0.3-0.1-0.6-0.3-0.8-0.4c-0.2-0.1-0.4-0.2-0.6-0.3c-0.1,0-0.2-0.1-0.3-0.1c-0.3-0.1-0.5-0.2-0.8-0.3c-0.4-0.2-0.8-0.3-1.2-0.5
				c-2.8-1.1-5.3-1.8-7.9-2.3c-2.4-0.5-5-0.8-7.9-0.9c-1.2-0.1-2.5-0.1-3.8-0.2c-1.4-0.1-2.9-0.1-4.4-0.2c-3.4-0.3-6.1-0.7-8.5-1.4
				c-2.9-0.8-5.7-2.1-8.4-3.7c-2.6-1.5-5.1-3.4-7.6-5.6c-0.2-0.2-0.4-0.4-0.7-0.6l-0.1-0.1c-0.3-0.3-0.7-0.6-1-0.9l-0.4-0.4L3,55.1
				c-0.2-0.2-0.4-0.4-0.6-0.6l-0.5-0.5c-0.2-0.2-0.3-0.4-0.5-0.5C1.2,53.2,1,53,0.8,52.8c0,0-0.6-0.7-0.7-0.8
				c-0.1-0.1-0.1-0.3,0-0.4c0.1-0.1,0.2-0.1,0.3-0.1c0.1,0,0.1,0,0.2,0L1,51.7c0.1,0.1,0.2,0.1,0.4,0.2l0,0C1.6,52,1.8,52.1,2,52.2
				c0.2,0.1,0.4,0.2,0.6,0.3l0.6,0.3c0.3,0.1,0.5,0.3,0.8,0.4l0.5,0.3l0.5,0.2c0.4,0.2,0.9,0.4,1.3,0.6l0.6,0.3
				c3,1.4,5.4,2.5,7.7,3.2c2.6,0.9,5.1,1.5,7.7,1.9c2.6,0.4,5.3,0.5,8,0.6l0.5,0c2.6,0.1,5.3,0.1,8,0.5c3.2,0.4,6,1.1,8.6,2.1
				c2.8,1.2,5.5,2.8,7.9,4.8c0.3,0.2,0.6,0.5,0.9,0.8l0.3,0.3c0.2,0.2,0.4,0.4,0.6,0.6c0.5,0.5,1.1,1.1,1.7,1.8
				c0.8,0.8,1.6,1.8,2.5,3.1c0.1,0.1,0.1,0.3,0,0.4C61.3,75,61.2,75,61.1,75z"/>
		</g>
	</g>
	<g>
		<g>
			<path class="st0" d="M108.4,80l8.2-58.2c7-0.5,13.5-0.8,19.7-0.8c9.5,0,15.8,2.2,19.2,6.6c3.3,4.4,4.2,12.3,2.6,23.7
				c-0.7,5.2-1.6,9.5-2.7,13c-1.1,3.5-2.4,6.3-3.8,8.5c-1.5,2.2-3.4,3.9-5.7,5c-2.3,1.2-4.8,1.9-7.3,2.3c-2.6,0.4-5.8,0.6-9.7,0.6
				C123,80.7,116.3,80.5,108.4,80z M126,29.9l-5.9,41.8c4.3,0.1,7.1,0.2,8.4,0.2c4.2,0,7.4-0.5,9.6-1.5c2.2-1,4-3,5.4-6
				c1.4-3,2.6-7.7,3.5-13.9c0.5-3.7,0.8-6.7,0.9-9c0.1-2.3,0-4.3-0.4-5.9s-1-2.8-2.1-3.6c-1-0.8-2.3-1.4-3.7-1.7
				c-1.4-0.3-3.4-0.5-5.8-0.5L126,29.9z"/>
			<path class="st0" d="M199.8,80h-8.1l0.3-7.2c-4.7,5.4-10.4,8.1-17.3,8.2c-5.1,0.1-8.5-1.6-10.3-5c-1.8-3.4-2.2-9.2-1.1-17.4
				c0.7-4.7,1.6-8.5,2.8-11.3c1.2-2.9,2.8-5,4.8-6.5c2-1.4,4-2.3,5.9-2.7c2-0.4,4.6-0.6,7.8-0.6c7.1,0,14.1,0.8,20.8,2.4L199.8,80z
				 M194.3,45.7l-7.5-0.1c-2.6,0-4.6,0.1-5.9,0.4c-1.3,0.3-2.5,0.9-3.6,1.9c-1,1-1.8,2.3-2.3,4c-0.5,1.7-0.9,4.1-1.4,7.3
				c-0.8,5.8-0.9,9.4-0.5,11c0.5,1.5,1.9,2.3,4.2,2.3c2.4,0,4.6-0.7,6.8-2c2.2-1.3,4.7-3.4,7.5-6.2L194.3,45.7z"/>
			<path class="st0" d="M241.5,38.6h10.7c-1.2,6.9-3.4,14.4-6.5,22.6c-2.2,5.7-4.4,10.1-6.5,13c-1.4,2.1-2.8,3.6-4.3,4.4
				c-1.5,0.9-3.5,1.3-6.1,1.3h-8.4c-1.8,0-2.8-0.9-3.1-2.6L210,38.6h10.8l4.8,33.8h1.2c1.1,0,2-0.2,2.7-0.6c0.7-0.4,1.4-1.2,2.2-2.4
				c1.5-2.3,3.2-6.2,5.1-11.6C238.8,52.6,240.3,46.2,241.5,38.6z"/>
			<path class="st0" d="M263.7,80h-10.2l5.8-41.3h10.1L263.7,80z"/>
			<path class="st0" d="M294.2,65l-10.5-4.7c-3.2-1.5-5.5-3.2-6.8-5.1c-1.3-2-1.8-4.4-1.4-7.3c0.4-3.8,2.1-6.5,4.9-8.1
				c2.8-1.5,7.2-2.3,13-2.2c6.6,0.1,12.7,0.6,18.3,1.5l-1.1,7c-5.3-0.2-10.9-0.3-16.5-0.3c-3.4,0-5.7,0.1-6.8,0.4
				c-1.1,0.3-1.8,1-1.9,2.3c-0.2,1.1,0.1,2,0.8,2.6s2,1.3,4,2.2l10.5,4.7c3.5,1.5,5.9,3.2,7.2,4.9c1.3,1.8,1.7,4.2,1.3,7.3
				c-0.3,1.9-0.8,3.5-1.5,4.8c-0.7,1.3-1.6,2.3-2.7,3.1c-1,0.8-2.4,1.4-4.1,1.8c-1.7,0.4-3.4,0.7-5.2,0.8c-1.7,0.1-3.9,0.2-6.5,0.2
				c-2.1,0-4,0-5.7-0.1c-1.6-0.1-2.9-0.2-3.7-0.3c-0.8-0.1-2-0.2-3.7-0.5c-1.6-0.2-3-0.4-4-0.5l1.1-7.2c3,0.2,7.3,0.3,12.8,0.3
				c5.1,0,8.5-0.2,10.2-0.6c1.7-0.4,2.6-1.3,2.9-2.7c-0.1-0.3,0-0.6,0-0.8c0.1-0.2,0-0.4-0.1-0.6c-0.2-0.2-0.3-0.4-0.3-0.5
				c0-0.1-0.2-0.3-0.4-0.4s-0.4-0.3-0.5-0.4c-0.1-0.1-0.3-0.2-0.7-0.4c-0.3-0.1-0.6-0.3-0.8-0.4c-0.2-0.1-0.6-0.3-1-0.5
				C294.8,65.2,294.5,65.1,294.2,65z"/>
			<path class="st0" d="M367.4,21.8L359.2,80h-10.5l3.7-26.6h-22.8L325.8,80h-10.6l8.2-58.2H334l-3.2,22.9h22.9l3.2-22.9H367.4z"/>
			<path class="st0" d="M404.1,71.6l0.7,6.7c-4.3,1.8-10.2,2.7-17.5,2.7c-7.4,0-12.5-1.9-15.4-5.6c-2.9-3.7-3.8-9.5-2.8-17.2
				c1.1-7.9,3.3-13.4,6.7-16.3c3.4-3,8.9-4.4,16.7-4.4c6.9,0,11.5,1.2,13.9,3.5c2.4,2.3,3.3,5.8,2.7,10.3c-0.6,4-2.1,7-4.7,8.8
				c-2.6,1.8-6.6,2.9-11.9,3.2l-13.1,1.1c0.1,3.3,0.8,5.5,2.4,6.6c1.5,1.2,3.8,1.7,6.9,1.7C393.2,72.6,398.4,72.3,404.1,71.6z
				 M379.9,57.4l11.8-1c2.4-0.2,4.1-0.7,5.2-1.6c1.1-0.9,1.8-2.4,2.1-4.5c0.2-2.1-0.3-3.5-1.3-4c-1-0.5-3.2-0.8-6.5-0.8
				c-3.7,0.1-6.3,0.9-7.8,2.4C381.8,49.5,380.7,52.6,379.9,57.4z"/>
			<path class="st0" d="M449.8,80h-8.1l0.3-7.2c-4.7,5.4-10.4,8.1-17.3,8.2c-5.1,0.1-8.5-1.6-10.3-5c-1.8-3.4-2.2-9.2-1.1-17.4
				c0.7-4.7,1.6-8.5,2.8-11.3c1.2-2.9,2.8-5,4.8-6.5c2-1.4,4-2.3,5.9-2.7c2-0.4,4.6-0.6,7.8-0.6c7.1,0,14.1,0.8,20.8,2.4L449.8,80z
				 M444.4,45.7l-7.5-0.1c-2.6,0-4.6,0.1-5.9,0.4c-1.3,0.3-2.5,0.9-3.6,1.9c-1,1-1.8,2.3-2.3,4c-0.5,1.7-0.9,4.1-1.4,7.3
				c-0.8,5.8-0.9,9.4-0.5,11c0.5,1.5,1.9,2.3,4.2,2.3c2.4,0,4.6-0.7,6.8-2c2.2-1.3,4.7-3.4,7.5-6.2L444.4,45.7z"/>
			<path class="st0" d="M477.4,46.1l-3,21.3c-0.2,1.8-0.1,3,0.5,3.6c0.5,0.6,1.7,0.9,3.6,0.9h5.8l0.4,7.6c-2.9,1-6.4,1.4-10.5,1.4
				c-3.8,0-6.5-1.1-8.3-3.2c-1.8-2.1-2.4-5.1-1.8-9l3.2-22.6h-7.5l0.9-7l7.7-0.4l1.7-11.9h10.1l-1.7,11.9h12l-0.9,7.4H477.4z"/>
			<path class="st0" d="M526.5,71.6l0.7,6.7c-4.3,1.8-10.2,2.7-17.5,2.7c-7.4,0-12.5-1.9-15.4-5.6c-2.9-3.7-3.8-9.5-2.8-17.2
				c1.1-7.9,3.3-13.4,6.7-16.3c3.4-3,8.9-4.4,16.7-4.4c6.9,0,11.5,1.2,13.9,3.5c2.4,2.3,3.3,5.8,2.7,10.3c-0.6,4-2.1,7-4.7,8.8
				c-2.6,1.8-6.6,2.9-11.9,3.2l-13.1,1.1c0.1,3.3,0.8,5.5,2.4,6.6c1.5,1.2,3.8,1.7,6.9,1.7C515.7,72.6,520.8,72.3,526.5,71.6z
				 M502.3,57.4l11.8-1c2.4-0.2,4.1-0.7,5.2-1.6c1.1-0.9,1.8-2.4,2.1-4.5c0.2-2.1-0.3-3.5-1.3-4c-1-0.5-3.2-0.8-6.5-0.8
				c-3.7,0.1-6.3,0.9-7.8,2.4C504.3,49.5,503.1,52.6,502.3,57.4z"/>
			<path class="st0" d="M568.4,37.5l-2.4,9.6h-2.7c-1.3,0-2.8,0.3-4.5,1c-1.6,0.6-3.1,1.3-4.5,2.1c-1.3,0.8-3.4,2-6.2,3.8l-3.5,26
				h-10.2l5.8-41.3h7.8l-0.3,8.8c6.6-6.6,12.7-10,18.1-10H568.4z"/>
			<path class="st0" d="M588,65l-10.5-4.7c-3.2-1.5-5.5-3.2-6.8-5.1c-1.3-2-1.8-4.4-1.4-7.3c0.5-3.8,2.1-6.5,4.9-8.1
				c2.8-1.5,7.2-2.3,13-2.2c6.6,0.1,12.7,0.6,18.3,1.5l-1.1,7c-5.3-0.2-10.9-0.3-16.5-0.3c-3.4,0-5.7,0.1-6.8,0.4
				c-1.1,0.3-1.8,1-1.9,2.3c-0.2,1.1,0.1,2,0.8,2.6c0.7,0.6,2,1.3,4,2.2l10.5,4.7c3.5,1.5,5.9,3.2,7.2,4.9c1.3,1.8,1.7,4.2,1.3,7.3
				c-0.3,1.9-0.8,3.5-1.5,4.8c-0.7,1.3-1.6,2.3-2.7,3.1c-1,0.8-2.4,1.4-4.1,1.8c-1.7,0.4-3.4,0.7-5.2,0.8c-1.7,0.1-3.9,0.2-6.5,0.2
				c-2.1,0-4,0-5.7-0.1c-1.6-0.1-2.9-0.2-3.7-0.3c-0.8-0.1-2-0.2-3.7-0.5c-1.6-0.2-3-0.4-4-0.5l1.1-7.2c3,0.2,7.3,0.3,12.8,0.3
				c5.1,0,8.5-0.2,10.2-0.6c1.7-0.4,2.6-1.3,2.9-2.7c-0.1-0.3,0-0.6,0-0.8c0.1-0.2,0-0.4-0.1-0.6c-0.2-0.2-0.3-0.4-0.3-0.5
				c0-0.1-0.2-0.3-0.4-0.4s-0.4-0.3-0.5-0.4c-0.1-0.1-0.3-0.2-0.7-0.4c-0.3-0.1-0.6-0.3-0.8-0.4c-0.2-0.1-0.6-0.3-1-0.5
				C588.6,65.2,588.2,65.1,588,65z"/>
		</g>
		<path class="st1" d="M264.4,20.7h4.6c1,0,1.8,0.3,2.2,0.8c0.5,0.6,0.7,1.3,0.5,2.3l-0.6,4.6c-0.3,1.9-1.4,2.8-3.2,2.8h-4.6
			c-2.1,0-3.1-1.1-2.8-3.2l0.7-4.6C261.5,21.6,262.5,20.7,264.4,20.7z"/>
	</g>
</g>
</svg>
