<?xml version="1.0" encoding="utf-8"?>
<!-- Generator: Adobe Illustrator 21.0.0, SVG Export Plug-In . SVG Version: 6.00 Build 0)  -->
<svg version="1.1" id="Layer_1" xmlns="http://www.w3.org/2000/svg" xmlns:xlink="http://www.w3.org/1999/xlink" x="0px" y="0px"
	 viewBox="0 0 453.7 230.9" style="enable-background:new 0 0 453.7 230.9;" xml:space="preserve">
<style type="text/css">
	.st0{fill:#ED0C0C;}
	.st1{fill:#FFFFFF;}
</style>
<g>
	<g>
		<path d="M55.8,160.5l-3.9-24.2l13.9-2.2l3.9,24.2L55.8,160.5z M71.7,157.9l-3.9-24.2l3.9-0.6c1.3-0.2,2.3-0.4,3.1-0.5
			c0.8-0.1,1.5-0.1,2-0.1c0.5,0,1,0.1,1.5,0.2c0.9,0.2,1.7,0.6,2.4,1.1c0.6,0.5,1.1,1,1.5,1.7c0.4,0.7,0.6,1.4,0.8,2.1
			c0.3,1.8-0.1,3.4-1.1,4.7c-0.3,0.4-0.6,0.8-0.9,1c-0.3,0.2-0.8,0.6-1.5,1.1c0.7,0.1,1.2,0.2,1.6,0.4c0.4,0.1,0.8,0.3,1.1,0.6
			c1.6,1,2.5,2.6,2.9,4.8l0.9,5.6L71.7,157.9z"/>
		<path d="M94.5,154.5l-3-24.4l25.6-3.1l1.1,9.2l-2.7-1.5l1.1,9.1l2.3-2.3l1.2,10L94.5,154.5z M115.4,134.5l-9.8-5.6l1.4,11.5
			L115.4,134.5z M116.6,143.8l-9.5-3l1.4,11.5L116.6,143.8z"/>
		<path d="M134.8,125.4l14.1,9.6c1.3,0.9,2.3,1.8,2.9,2.7c0.6,0.9,1,2,1.1,3.2c0.1,1.5-0.2,2.9-0.9,4.1c-0.7,1.3-1.8,2.3-3.1,3
			c-0.4,0.2-0.7,0.3-1,0.4c-0.4,0.1-0.8,0.2-1.2,0.3c-0.4,0.1-1,0.2-1.6,0.2c-1.8-1-3-1.7-3.8-2.2c-0.7-0.4-1.6-1-2.7-1.6
			c-1.7-1-3.3-2.1-4.8-3.2c-1.5-1.1-2.8-2-3.7-2.9c-0.9-0.8-1.6-1.5-2-2.2c-0.3-0.5-0.6-1.1-0.8-1.7c-0.2-0.6-0.4-1.2-0.4-1.8
			c-0.1-1.6,0.1-3,0.9-4.2c0.7-1.2,1.8-2.2,3.2-2.9c0.5-0.3,1.1-0.5,1.7-0.6C133.2,125.6,134,125.5,134.8,125.4z M128.7,150.5
			l-0.9-10.2l13.9,9.1L128.7,150.5z M150.9,133.8l-12.9-8.9l12.1-1.1L150.9,133.8z"/>
		<path d="M159.9,134.3l-0.6-11.1l28.3-1.5l0.6,11l-7.6-9.6l-0.1,0l1.2,23.4l-14.1,0.7l-1.2-23.4l-0.1,0L159.9,134.3z"/>
		<path d="M199.9,130.9l3.9-9.8l7.4-0.1l11.2,24.5l-15.9,0.3l-4.7-10.6l-2.3,0l4.6,10.6l-10.4,0.2l5-12.5l2.2,0L199.9,130.9z"/>
		<path d="M230,135.6l0.2-14.7l14.1,0.2l-0.3,23.9c0.9-0.1,1.6-0.2,2.1-0.3c0.5-0.1,1-0.3,1.5-0.5c1-0.4,1.8-1,2.5-1.7
			c1.6-1.6,2.4-3.6,2.4-6.2l0.1-5.7l-7.1-9.5l8.2,0.1l-0.2,15.2c0,2.8-1,5.1-2.8,6.8c-0.7,0.7-1.5,1.2-2.3,1.6
			c-0.8,0.4-1.7,0.7-2.7,0.9c-1,0.2-2.1,0.3-3.5,0.3c-1.6,0-2.9-0.1-4.1-0.3c-1.2-0.2-2.2-0.5-3.1-0.9c-0.9-0.4-1.6-1-2.3-1.6
			c-0.9-0.9-1.6-2-2.1-3.4C230.3,138.5,230,137.1,230,135.6z"/>
		<path d="M263,146.1l1.2-24.5l14,0.7l-1.2,24.5L263,146.1z M279.2,146.9l1.2-24.5l4,0.2c1.3,0.1,2.3,0.1,3.1,0.2
			c0.8,0.1,1.5,0.2,2,0.3c0.5,0.1,1,0.3,1.4,0.5c0.9,0.4,1.6,1,2.1,1.6c0.5,0.6,0.8,1.2,1.1,1.9c0.2,0.7,0.3,1.5,0.3,2.2
			c-0.1,1.8-0.8,3.3-2,4.4c-0.4,0.3-0.7,0.6-1.1,0.8c-0.3,0.2-0.9,0.4-1.7,0.7c0.6,0.2,1.1,0.5,1.4,0.7c0.4,0.2,0.7,0.5,1,0.8
			c1.3,1.3,1.9,3.1,1.8,5.3l-0.3,5.6L279.2,146.9z"/>
		<path d="M308,133.6l4.9-9.3l7.4,0.6l8.6,25.6l-15.9-1.3l-3.5-11l-2.2-0.2l3.5,11l-10.3-0.9l6.3-12l2.2,0.2L308,133.6z"/>
		<path d="M336.4,151.2l1.5-12.6l9.3,13.8L336.4,151.2z M338.2,135.4l1-8.6l11.2,1.3l11.7,17l-1.1,8.9l-11.2-1.3L338.2,135.4z
			 M362.5,142.1l-9.3-13.7l10.7,1.3L362.5,142.1z"/>
		<path d="M371.3,141.9l1.7-10.9l28,4.2l-1.7,10.9l-5.5-10.9l-0.1,0l-3.5,23.2l-13.9-2.1l3.5-23.2l-0.1,0L371.3,141.9z"/>
	</g>
	<polygon points="52.7,81.5 56.9,87.3 64,87.2 59.7,93 62,99.7 55.3,97.4 49.5,101.7 49.6,94.6 43.8,90.5 50.6,88.3 	"/>
	<polygon points="106.2,70 109.5,76.3 116.6,77.2 111.6,82.3 113,89.3 106.6,86.1 100.4,89.6 101.4,82.5 96.2,77.6 103.2,76.5 	"/>
	<polygon points="161.3,65.5 164.6,71.8 171.7,72.7 166.7,77.8 168.1,84.8 161.7,81.7 155.4,85.1 156.5,78.1 151.2,73.2 158.3,72 	
		"/>
	<polygon points="397.7,81.5 393.6,87.3 386.5,87.2 390.7,92.9 388.4,99.7 395.2,97.4 400.9,101.7 400.8,94.6 406.7,90.4 
		399.9,88.3 	"/>
	<polygon points="344.2,69.9 340.9,76.3 333.8,77.2 338.8,82.3 337.5,89.3 343.9,86.1 350.1,89.6 349.1,82.5 354.3,77.6 347.3,76.4 
			"/>
	<polygon points="289.2,65.5 285.9,71.8 278.8,72.7 283.8,77.8 282.4,84.8 288.8,81.6 295,85.1 294,78 299.2,73.2 292.2,72 	"/>
	<polygon class="st0" points="223,36 214.6,52 196.6,54.2 209.3,67.1 205.8,84.9 222,76.9 237.9,85.6 235.2,67.7 248.5,55.4 
		230.6,52.4 	"/>
	<path class="st0" d="M311.7,192.5H124.5c-7,0-12.7-5.7-12.7-12.7l0,0c0-7,5.7-12.7,12.7-12.7h187.1c7,0,12.7,5.7,12.7,12.7l0,0
		C324.4,186.8,318.7,192.5,311.7,192.5z"/>
	<g>
		<path class="st1" d="M143.6,176.9c0,0.1,0,0.2,0,0.3c0,0.1,0,0.1-0.1,0.2c0,0-0.1,0.1-0.1,0.1c0,0-0.1,0-0.1,0l-3.6,0l0,3.4l3.4,0
			c0,0,0.1,0,0.1,0c0,0,0.1,0,0.1,0.1c0,0,0,0.1,0.1,0.2c0,0.1,0,0.2,0,0.3c0,0.1,0,0.2,0,0.2c0,0.1,0,0.1-0.1,0.2
			c0,0-0.1,0.1-0.1,0.1s-0.1,0-0.1,0l-3.4,0l0,4.1c0,0,0,0.1,0,0.1c0,0-0.1,0.1-0.1,0.1c-0.1,0-0.1,0-0.2,0c-0.1,0-0.2,0-0.3,0
			c-0.1,0-0.2,0-0.3,0c-0.1,0-0.2,0-0.2,0c-0.1,0-0.1,0-0.1-0.1c0,0,0-0.1,0-0.1l0-9.2c0-0.2,0.1-0.3,0.2-0.4
			c0.1-0.1,0.2-0.1,0.3-0.1l4.5,0c0,0,0.1,0,0.1,0c0,0,0.1,0.1,0.1,0.1c0,0,0,0.1,0.1,0.2C143.6,176.7,143.6,176.8,143.6,176.9z"/>
		<path class="st1" d="M157.8,181.1c0,0.8-0.1,1.5-0.3,2.2c-0.2,0.6-0.5,1.2-0.8,1.6c-0.4,0.5-0.8,0.8-1.4,1c-0.6,0.2-1.2,0.4-2,0.4
			c-0.7,0-1.4-0.1-1.9-0.3c-0.5-0.2-1-0.5-1.4-1c-0.4-0.4-0.6-0.9-0.8-1.6c-0.2-0.6-0.3-1.3-0.3-2.2c0-0.8,0.1-1.5,0.3-2.1
			c0.2-0.6,0.5-1.2,0.8-1.6s0.8-0.8,1.4-1c0.6-0.2,1.2-0.4,2-0.4c0.7,0,1.4,0.1,1.9,0.3c0.5,0.2,1,0.5,1.4,1
			c0.4,0.4,0.6,0.9,0.8,1.6C157.7,179.6,157.8,180.3,157.8,181.1z M156.4,181.2c0-0.6-0.1-1.1-0.2-1.6c-0.1-0.5-0.3-0.9-0.5-1.3
			c-0.2-0.4-0.5-0.6-0.9-0.8c-0.4-0.2-0.9-0.3-1.4-0.3c-0.6,0-1.1,0.1-1.4,0.3c-0.4,0.2-0.7,0.5-0.9,0.9c-0.2,0.4-0.4,0.8-0.5,1.3
			c-0.1,0.5-0.2,1-0.1,1.5c0,0.6,0.1,1.1,0.2,1.6c0.1,0.5,0.3,0.9,0.5,1.3c0.2,0.4,0.5,0.6,0.9,0.8s0.9,0.3,1.4,0.3
			c0.6,0,1.1-0.1,1.4-0.3c0.4-0.2,0.7-0.5,0.9-0.9c0.2-0.4,0.4-0.8,0.5-1.3C156.4,182.2,156.4,181.7,156.4,181.2z"/>
		<path class="st1" d="M172.3,181c0,0.8-0.1,1.5-0.3,2.2c-0.2,0.6-0.5,1.2-0.8,1.6c-0.4,0.5-0.8,0.8-1.4,1c-0.6,0.2-1.2,0.4-2,0.4
			c-0.7,0-1.4-0.1-1.9-0.3c-0.5-0.2-1-0.5-1.4-1c-0.4-0.4-0.6-0.9-0.8-1.6c-0.2-0.6-0.3-1.3-0.3-2.2c0-0.8,0.1-1.5,0.3-2.1
			c0.2-0.6,0.5-1.2,0.8-1.6c0.4-0.4,0.8-0.8,1.4-1c0.6-0.2,1.2-0.4,2-0.4c0.7,0,1.4,0.1,1.9,0.3c0.5,0.2,1,0.5,1.4,1
			c0.4,0.4,0.6,0.9,0.8,1.6C172.2,179.5,172.3,180.2,172.3,181z M170.9,181.1c0-0.6-0.1-1.1-0.2-1.6c-0.1-0.5-0.3-0.9-0.5-1.3
			c-0.2-0.4-0.5-0.6-0.9-0.8c-0.4-0.2-0.9-0.3-1.4-0.3c-0.6,0-1.1,0.1-1.4,0.3c-0.4,0.2-0.7,0.5-0.9,0.9c-0.2,0.4-0.4,0.8-0.5,1.3
			c-0.1,0.5-0.2,1-0.1,1.5c0,0.6,0.1,1.1,0.2,1.6c0.1,0.5,0.3,0.9,0.5,1.3c0.2,0.4,0.5,0.6,0.9,0.8c0.4,0.2,0.9,0.3,1.4,0.3
			c0.6,0,1.1-0.1,1.4-0.3c0.4-0.2,0.7-0.5,0.9-0.9c0.2-0.4,0.4-0.8,0.5-1.3C170.8,182.2,170.9,181.7,170.9,181.1z"/>
		<path class="st1" d="M186,180.9c0,0.9-0.1,1.6-0.3,2.2c-0.2,0.6-0.5,1.2-1,1.6c-0.4,0.4-0.9,0.7-1.5,1c-0.6,0.2-1.3,0.3-2.2,0.3
			l-2.1,0c-0.1,0-0.2,0-0.3-0.1c-0.1-0.1-0.2-0.2-0.2-0.4l0-8.8c0-0.2,0.1-0.3,0.2-0.4c0.1-0.1,0.2-0.1,0.3-0.1l2.2,0
			c0.9,0,1.6,0.1,2.2,0.3c0.6,0.2,1.1,0.5,1.5,0.9c0.4,0.4,0.7,0.9,0.9,1.5C185.9,179.5,186,180.2,186,180.9z M184.6,181
			c0-0.5-0.1-1-0.2-1.5c-0.1-0.5-0.3-0.9-0.6-1.2c-0.3-0.3-0.6-0.6-1.1-0.8c-0.4-0.2-1-0.3-1.7-0.3l-1.3,0l0,7.7l1.4,0
			c0.6,0,1.2-0.1,1.6-0.2c0.4-0.2,0.8-0.4,1.1-0.7c0.3-0.3,0.5-0.7,0.6-1.2C184.6,182.2,184.6,181.7,184.6,181z"/>
		<path class="st1" d="M199.3,183.4c0-0.3,0-0.5,0.1-0.8c0.1-0.3,0.2-0.5,0.4-0.7c0.2-0.2,0.4-0.5,0.6-0.7c0.3-0.2,0.6-0.4,0.9-0.7
			c-0.2-0.3-0.4-0.5-0.5-0.7c-0.1-0.2-0.3-0.4-0.4-0.6c-0.1-0.2-0.2-0.4-0.2-0.6c0-0.2-0.1-0.4-0.1-0.5c0-0.3,0.1-0.6,0.2-0.9
			c0.1-0.3,0.3-0.5,0.5-0.8c0.2-0.2,0.5-0.4,0.9-0.5c0.4-0.1,0.8-0.2,1.4-0.2c0.4,0,0.8,0,1.2,0.1c0.3,0.1,0.6,0.2,0.8,0.4
			c0.2,0.2,0.4,0.4,0.5,0.6c0.1,0.3,0.2,0.5,0.2,0.8c0,0.3,0,0.6-0.1,0.8c-0.1,0.3-0.2,0.5-0.5,0.7c-0.2,0.2-0.5,0.5-0.8,0.7
			c-0.3,0.2-0.7,0.5-1.2,0.7c0.2,0.2,0.4,0.4,0.6,0.7c0.2,0.2,0.4,0.5,0.6,0.7c0.2,0.2,0.5,0.5,0.7,0.7c0.2,0.2,0.5,0.4,0.7,0.6
			c0.1-0.1,0.2-0.3,0.3-0.5c0.1-0.2,0.2-0.4,0.2-0.6c0.1-0.2,0.1-0.4,0.1-0.6c0-0.2,0-0.4,0-0.6l0-0.3c0-0.1,0-0.1,0-0.1
			c0,0,0-0.1,0.1-0.1c0,0,0.1,0,0.2,0c0.1,0,0.2,0,0.3,0c0.1,0,0.2,0,0.3,0c0.1,0,0.1,0,0.2,0c0.1,0,0.1,0,0.1,0.1s0,0.1,0,0.2
			l0,0.2c0,0.3,0,0.6-0.1,0.8c0,0.3-0.1,0.5-0.2,0.8c-0.1,0.3-0.2,0.5-0.3,0.8c-0.1,0.2-0.3,0.5-0.4,0.7c0.2,0.2,0.4,0.3,0.6,0.5
			c0.2,0.1,0.3,0.2,0.4,0.3c0.1,0.1,0.2,0.1,0.3,0.2c0.1,0,0.1,0,0.2,0c0.1,0,0.1,0,0.1,0c0,0,0.1,0,0.1,0c0,0,0.1,0.1,0.1,0.1
			c0,0.1,0,0.2,0,0.3c0,0.1,0,0.2,0,0.3c0,0.1,0,0.1,0,0.2s0,0.1-0.1,0.1c0,0-0.1,0-0.2,0.1c-0.1,0-0.2,0-0.3,0
			c-0.1,0-0.2,0-0.3-0.1s-0.3-0.1-0.4-0.2c-0.2-0.1-0.4-0.2-0.6-0.4c-0.2-0.2-0.5-0.3-0.8-0.6c-0.2,0.2-0.4,0.3-0.7,0.5
			c-0.2,0.1-0.5,0.3-0.8,0.4c-0.3,0.1-0.5,0.2-0.8,0.2c-0.3,0.1-0.6,0.1-1,0.1c-0.3,0-0.6,0-0.9-0.1c-0.3-0.1-0.6-0.1-0.8-0.2
			c-0.2-0.1-0.5-0.2-0.7-0.4c-0.2-0.2-0.4-0.3-0.5-0.5c-0.1-0.2-0.2-0.4-0.3-0.7C199.3,183.9,199.3,183.6,199.3,183.4z M200.6,183.2
			c0,0.3,0,0.5,0.1,0.7c0.1,0.2,0.2,0.4,0.4,0.6c0.2,0.2,0.4,0.3,0.7,0.4c0.3,0.1,0.6,0.1,0.9,0.1c0.2,0,0.4,0,0.6-0.1
			c0.2,0,0.4-0.1,0.6-0.2c0.2-0.1,0.4-0.2,0.5-0.3c0.2-0.1,0.3-0.2,0.4-0.3c-0.3-0.2-0.5-0.5-0.8-0.7c-0.3-0.2-0.5-0.5-0.8-0.7
			c-0.2-0.2-0.5-0.5-0.7-0.7c-0.2-0.2-0.4-0.5-0.6-0.7c-0.3,0.2-0.5,0.3-0.6,0.5c-0.2,0.2-0.3,0.3-0.4,0.5c-0.1,0.2-0.2,0.3-0.2,0.5
			C200.7,182.9,200.6,183,200.6,183.2z M201.5,177.9c0,0.1,0,0.3,0.1,0.4c0,0.1,0.1,0.3,0.2,0.4c0.1,0.2,0.2,0.3,0.3,0.5
			c0.1,0.2,0.3,0.4,0.4,0.6c0.4-0.2,0.7-0.4,0.9-0.6c0.3-0.2,0.5-0.3,0.6-0.5c0.2-0.2,0.3-0.3,0.3-0.5c0.1-0.2,0.1-0.3,0.1-0.5
			c0-0.1,0-0.3-0.1-0.4c-0.1-0.1-0.1-0.3-0.3-0.4c-0.1-0.1-0.3-0.2-0.4-0.2c-0.2-0.1-0.4-0.1-0.6-0.1c-0.3,0-0.5,0-0.7,0.1
			c-0.2,0.1-0.3,0.2-0.5,0.3c-0.1,0.1-0.2,0.2-0.3,0.4C201.5,177.6,201.5,177.7,201.5,177.9z"/>
		<path class="st1" d="M229.7,180.7c0,0.9-0.1,1.6-0.3,2.2c-0.2,0.6-0.5,1.2-1,1.6c-0.4,0.4-0.9,0.7-1.5,1c-0.6,0.2-1.3,0.3-2.2,0.3
			l-2.1,0c-0.1,0-0.2,0-0.3-0.1c-0.1-0.1-0.2-0.2-0.2-0.4l0-8.8c0-0.2,0.1-0.3,0.2-0.4c0.1-0.1,0.2-0.1,0.3-0.1l2.2,0
			c0.9,0,1.6,0.1,2.2,0.3c0.6,0.2,1.1,0.5,1.5,0.9c0.4,0.4,0.7,0.9,0.9,1.5C229.6,179.3,229.7,180,229.7,180.7z M228.4,180.8
			c0-0.5-0.1-1-0.2-1.5c-0.1-0.5-0.3-0.9-0.6-1.2c-0.3-0.3-0.6-0.6-1.1-0.8c-0.4-0.2-1-0.3-1.7-0.3l-1.3,0l0,7.7l1.4,0
			c0.6,0,1.2-0.1,1.6-0.2c0.4-0.2,0.8-0.4,1.1-0.7c0.3-0.3,0.5-0.7,0.6-1.2C228.3,182,228.4,181.5,228.4,180.8z"/>
		<path class="st1" d="M242.5,185.6c0,0,0,0.1,0,0.1c0,0,0,0.1-0.1,0.1c-0.1,0-0.1,0-0.2,0c-0.1,0-0.2,0-0.4,0c-0.1,0-0.2,0-0.3,0
			c-0.1,0-0.2,0-0.2-0.1c-0.1,0-0.1-0.1-0.1-0.1c0,0-0.1-0.1-0.1-0.2l-0.9-2.3c-0.1-0.3-0.2-0.5-0.3-0.7c-0.1-0.2-0.3-0.4-0.4-0.6
			c-0.2-0.2-0.3-0.3-0.6-0.4c-0.2-0.1-0.5-0.1-0.8-0.1l-0.9,0l0,4.2c0,0,0,0.1,0,0.1c0,0-0.1,0.1-0.1,0.1c-0.1,0-0.1,0-0.2,0
			c-0.1,0-0.2,0-0.3,0c-0.1,0-0.2,0-0.3,0c-0.1,0-0.2,0-0.2,0s-0.1,0-0.1-0.1c0,0,0-0.1,0-0.1l0-9.2c0-0.2,0.1-0.3,0.2-0.4
			c0.1-0.1,0.2-0.1,0.3-0.1l2.1,0c0.3,0,0.5,0,0.6,0c0.2,0,0.3,0,0.4,0c0.4,0.1,0.7,0.2,1,0.3c0.3,0.1,0.5,0.3,0.7,0.5
			c0.2,0.2,0.3,0.5,0.5,0.8s0.2,0.6,0.2,0.9c0,0.3,0,0.6-0.1,0.9c-0.1,0.3-0.2,0.5-0.4,0.7c-0.2,0.2-0.4,0.4-0.6,0.5
			c-0.2,0.1-0.5,0.3-0.8,0.4c0.2,0.1,0.3,0.2,0.4,0.3c0.1,0.1,0.3,0.2,0.4,0.4c0.1,0.2,0.2,0.3,0.3,0.5c0.1,0.2,0.2,0.4,0.3,0.7
			l0.9,2.2c0.1,0.2,0.1,0.3,0.1,0.4C242.5,185.5,242.5,185.5,242.5,185.6z M240.5,178.6c0-0.4-0.1-0.7-0.3-1
			c-0.2-0.3-0.5-0.5-0.9-0.6c-0.1,0-0.3-0.1-0.4-0.1c-0.2,0-0.4,0-0.6,0l-1.1,0l0,3.3l1.3,0c0.3,0,0.6,0,0.9-0.1
			c0.3-0.1,0.5-0.2,0.6-0.4c0.2-0.2,0.3-0.3,0.4-0.5C240.4,179.1,240.5,178.9,240.5,178.6z"/>
		<path class="st1" d="M249.8,185.5c0,0,0,0.1,0,0.1c0,0-0.1,0.1-0.1,0.1c-0.1,0-0.1,0-0.2,0c-0.1,0-0.2,0-0.3,0c-0.1,0-0.2,0-0.3,0
			s-0.2,0-0.2,0c-0.1,0-0.1,0-0.1-0.1c0,0,0-0.1,0-0.1l0-9.5c0,0,0-0.1,0-0.1c0,0,0.1-0.1,0.1-0.1c0.1,0,0.1,0,0.2,0
			c0.1,0,0.2,0,0.3,0c0.1,0,0.2,0,0.3,0c0.1,0,0.2,0,0.2,0c0.1,0,0.1,0,0.1,0.1c0,0,0,0.1,0,0.1L249.8,185.5z"/>
		<path class="st1" d="M264,185.1c0,0.1,0,0.2-0.1,0.3c0,0.1-0.1,0.1-0.1,0.2c-0.1,0-0.1,0.1-0.2,0.1c-0.1,0-0.1,0-0.2,0l-0.4,0
			c-0.1,0-0.3,0-0.4,0c-0.1,0-0.2-0.1-0.3-0.2c-0.1-0.1-0.2-0.2-0.3-0.3c-0.1-0.1-0.2-0.3-0.3-0.5l-3-5.6c-0.2-0.3-0.3-0.6-0.5-0.9
			c-0.2-0.3-0.3-0.6-0.5-0.9h0c0,0.4,0,0.7,0,1.1c0,0.4,0,0.8,0,1.1l0,6c0,0,0,0.1,0,0.1c0,0-0.1,0.1-0.1,0.1c-0.1,0-0.1,0-0.2,0
			c-0.1,0-0.2,0-0.3,0s-0.2,0-0.3,0c-0.1,0-0.1,0-0.2,0c-0.1,0-0.1,0-0.1,0c0-0.1-0.1-0.1-0.1-0.1l0-9.1c0-0.2,0.1-0.3,0.2-0.4
			s0.2-0.1,0.4-0.1l0.6,0c0.2,0,0.3,0,0.4,0c0.1,0,0.2,0.1,0.3,0.1c0.1,0.1,0.2,0.1,0.2,0.2c0.1,0.1,0.2,0.2,0.2,0.4l2.3,4.3
			c0.1,0.3,0.3,0.5,0.4,0.8c0.1,0.3,0.3,0.5,0.4,0.7c0.1,0.2,0.2,0.5,0.4,0.7c0.1,0.2,0.2,0.5,0.4,0.7h0c0-0.4,0-0.8,0-1.3
			s0-0.9,0-1.3l0-5.4c0,0,0-0.1,0-0.1c0,0,0.1-0.1,0.1-0.1c0.1,0,0.1,0,0.2-0.1c0.1,0,0.2,0,0.3,0c0.1,0,0.2,0,0.3,0
			c0.1,0,0.2,0,0.2,0c0,0,0.1,0.1,0.1,0.1c0,0,0,0.1,0,0.1L264,185.1z"/>
		<path class="st1" d="M277.1,185.4c0,0,0,0.1,0,0.1c0,0-0.1,0.1-0.1,0.1c-0.1,0-0.1,0-0.2,0.1c-0.1,0-0.2,0-0.3,0
			c-0.2,0-0.3,0-0.4,0c-0.1,0-0.2,0-0.3-0.1c-0.1,0-0.1-0.1-0.1-0.1l-3.7-4.9l0,4.9c0,0,0,0.1,0,0.1c0,0.1-0.1,0.1-0.1,0.1
			c-0.1,0-0.1,0-0.2,0s-0.2,0-0.3,0c-0.1,0-0.2,0-0.3,0c-0.1,0-0.2,0-0.2,0c-0.1,0-0.1,0-0.1-0.1c0,0,0-0.1,0-0.1l0-9.5
			c0,0,0-0.1,0-0.1c0,0,0.1-0.1,0.1-0.1c0.1,0,0.1,0,0.2,0c0.1,0,0.2,0,0.3,0c0.1,0,0.2,0,0.3,0c0.1,0,0.2,0,0.2,0
			c0.1,0,0.1,0,0.1,0.1c0,0,0,0.1,0,0.1l0,4.4l3.5-4.4c0,0,0.1-0.1,0.1-0.1c0,0,0.1-0.1,0.2-0.1c0.1,0,0.1,0,0.2,0
			c0.1,0,0.2,0,0.3,0c0.1,0,0.2,0,0.3,0c0.1,0,0.1,0,0.2,0c0.1,0,0.1,0,0.1,0.1c0,0,0,0.1,0,0.1c0,0.1,0,0.1,0,0.2
			c0,0.1-0.1,0.2-0.2,0.3l-3.3,3.9l3.6,4.7c0.1,0.1,0.1,0.2,0.2,0.3C277.1,185.3,277.1,185.3,277.1,185.4z"/>
		<path class="st1" d="M288.1,182.8c0,0.5-0.1,0.9-0.2,1.2c-0.2,0.4-0.4,0.7-0.7,0.9c-0.3,0.3-0.7,0.4-1.1,0.6
			c-0.4,0.1-0.9,0.2-1.3,0.2c-0.3,0-0.6,0-0.9-0.1c-0.3-0.1-0.5-0.1-0.8-0.2c-0.2-0.1-0.4-0.2-0.6-0.2c-0.2-0.1-0.3-0.2-0.3-0.2
			c-0.1-0.1-0.1-0.1-0.1-0.2c0-0.1,0-0.2,0-0.4c0-0.1,0-0.2,0-0.3s0-0.1,0-0.2c0,0,0-0.1,0.1-0.1c0,0,0.1,0,0.1,0
			c0.1,0,0.2,0,0.3,0.1c0.1,0.1,0.3,0.2,0.5,0.3c0.2,0.1,0.5,0.2,0.7,0.3c0.3,0.1,0.6,0.1,1,0.1c0.3,0,0.5,0,0.8-0.1
			c0.2-0.1,0.4-0.2,0.6-0.3c0.2-0.1,0.3-0.3,0.4-0.5c0.1-0.2,0.1-0.4,0.1-0.7c0-0.3-0.1-0.5-0.2-0.7c-0.1-0.2-0.3-0.4-0.5-0.5
			c-0.2-0.2-0.5-0.3-0.7-0.4c-0.3-0.1-0.5-0.3-0.8-0.4c-0.3-0.1-0.6-0.3-0.8-0.4c-0.3-0.2-0.5-0.3-0.7-0.6c-0.2-0.2-0.4-0.5-0.5-0.7
			c-0.1-0.3-0.2-0.6-0.2-1c0-0.4,0.1-0.8,0.2-1.1c0.1-0.3,0.4-0.6,0.6-0.8c0.3-0.2,0.6-0.4,1-0.5c0.4-0.1,0.8-0.2,1.2-0.2
			c0.2,0,0.4,0,0.7,0.1c0.2,0,0.4,0.1,0.6,0.2c0.2,0.1,0.4,0.1,0.5,0.2c0.2,0.1,0.3,0.1,0.3,0.2c0.1,0.1,0.1,0.1,0.1,0.1
			c0,0,0,0.1,0,0.1c0,0,0,0.1,0,0.2c0,0.1,0,0.1,0,0.2c0,0.1,0,0.2,0,0.2c0,0.1,0,0.1,0,0.2c0,0,0,0.1-0.1,0.1c0,0-0.1,0-0.1,0
			c-0.1,0-0.1,0-0.3-0.1c-0.1-0.1-0.3-0.2-0.4-0.2c-0.2-0.1-0.4-0.2-0.6-0.2c-0.2-0.1-0.5-0.1-0.8-0.1c-0.3,0-0.5,0-0.7,0.1
			c-0.2,0.1-0.4,0.2-0.5,0.3c-0.1,0.1-0.2,0.3-0.3,0.4c-0.1,0.2-0.1,0.3-0.1,0.5c0,0.3,0.1,0.5,0.2,0.7c0.1,0.2,0.3,0.4,0.5,0.5
			c0.2,0.2,0.5,0.3,0.7,0.4c0.3,0.1,0.5,0.3,0.8,0.4c0.3,0.1,0.6,0.3,0.8,0.4c0.3,0.2,0.5,0.3,0.7,0.5c0.2,0.2,0.4,0.5,0.5,0.7
			C288,182,288,182.4,288.1,182.8z"/>
	</g>
	<g>
		<g>
			<path class="st0" d="M342.8,182.8l-0.6-2.8c-0.1-0.5,0.2-0.9,0.7-1.1l61.3-13.3c0.3-0.1,0.6-0.3,0.7-0.7l8.8-41.5
				c0.1-0.5-0.2-0.9-0.7-1l-11.4-2.5c-47.3-8.7-105.8-13.4-136.5-15.4l-0.9-0.1l-13.6-14.3c-0.3-0.4-0.3-0.9,0-1.3l2-1.9
				c0.4-0.3,0.9-0.3,1.3,0L266,99.9c0.2,0.2,0.4,0.3,0.6,0.3c31.1,2.1,89,6.8,135.9,15.4l11.5,2.5c0.5,0.1,1-0.2,1.1-0.7l1.4-6.4
				c1.5-10.7,7.9-16.9,17.5-16.7c8.4,0.1,15.6,6.4,16.7,14.8c0.7,5.4-0.9,10-4.4,13c-4.1,3.6-10.7,4.8-19,3.5c0,0,0,0-0.1,0
				l-7.8-1.7c-0.5-0.1-1,0.2-1.1,0.7l-9.4,44.4c-0.1,0.3-0.3,0.6-0.7,0.7l-64.2,13.9C343.4,183.5,342.9,183.2,342.8,182.8z
				 M420.1,119.4l7.7,1.7c0,0,0,0,0,0c6.8,1,12.1,0.2,15.2-2.5c2-1.7,3-4.1,3-7c0-7.4-6.5-13.2-13.9-12.7
				c-6.4,0.5-10.2,4.8-11.4,12.9l-1.4,6.6C419.3,118.8,419.7,119.3,420.1,119.4z"/>
		</g>
	</g>
	<g>
		<g>
			<path class="st0" d="M94.5,188.1l-50.4-18.7c-0.3-0.1-0.5-0.3-0.6-0.6l-9.4-44.2c-0.1-0.5-0.6-0.8-1.1-0.7l-7.7,1.6
				c0,0,0,0-0.1,0c-8.4,1.3-15,0.1-19.2-3.5c-3.6-3.1-5.1-7.6-4.4-13.1c1.1-8.3,8.3-14.6,16.7-14.8c9.5-0.1,15.9,6,17.5,16.9
				l1.3,6.3c0.1,0.5,0.6,0.8,1.1,0.7l11.4-2.5c41.7-7.7,84.6-12.9,127.6-15.7c0.2,0,0.4-0.1,0.6-0.2L191,87c0.4-0.3,0.9-0.3,1.3,0
				l2,2c0.3,0.4,0.3,0.9,0,1.3l-14.5,14l-0.8,0.1c-43.1,2.7-86.3,8-128.1,15.7l-11.4,2.4c-0.5,0.1-0.8,0.6-0.7,1l8.9,41.8
				c0.1,0.3,0.3,0.5,0.6,0.6l48,17.8c0.5,0.2,0.7,0.7,0.5,1.1l-1,2.6C95.5,188,95,188.2,94.5,188.1z M20.1,98.8
				c-7.3-0.6-13.9,5.3-13.9,12.6c0,3,1,5.4,3,7c3.1,2.7,8.4,3.5,15.4,2.5c0,0,0,0,0.1,0l7.5-1.6c0.5-0.1,0.8-0.6,0.7-1l-1.4-6.4
				C30.4,103.7,26.5,99.3,20.1,98.8z"/>
		</g>
	</g>
</g>
</svg>
