<?xml version="1.0" encoding="utf-8"?>
<!-- Generator: Adobe Illustrator 21.0.0, SVG Export Plug-In . SVG Version: 6.00 Build 0)  -->
<svg version="1.1" id="Layer_1" xmlns="http://www.w3.org/2000/svg" xmlns:xlink="http://www.w3.org/1999/xlink" x="0px" y="0px"
	 viewBox="0 0 221.1 221.1" style="enable-background:new 0 0 221.1 221.1;" xml:space="preserve">
<style type="text/css">
	.st0{fill:#6D213E;}
</style>
<g>
	<g>
		<g>
			<path class="st0" d="M82.9,36.8c-5.1,0-9.2,4.1-9.2,9.2s4.1,9.2,9.2,9.2c5.1,0,9.2-4.1,9.2-9.2S88,36.8,82.9,36.8z"/>
			<path class="st0" d="M82.9,92.1c-5.1,0-9.2,4.1-9.2,9.2c0,5.1,4.1,9.2,9.2,9.2c5.1,0,9.2-4.1,9.2-9.2
				C92.1,96.2,88,92.1,82.9,92.1z"/>
			<path class="st0" d="M64.5,82.9c5.1,0,9.2-4.1,9.2-9.2c0-5.1-4.1-9.2-9.2-9.2s-9.2,4.1-9.2,9.2C55.3,78.8,59.4,82.9,64.5,82.9z"
				/>
			<path class="st0" d="M64.5,119.8c-5.1,0-9.2,4.1-9.2,9.2c0,5.1,4.1,9.2,9.2,9.2s9.2-4.1,9.2-9.2
				C73.7,123.9,69.6,119.8,64.5,119.8z"/>
			<path class="st0" d="M46.1,92.1c-5.1,0-9.2,4.1-9.2,9.2c0,5.1,4.1,9.2,9.2,9.2s9.2-4.1,9.2-9.2C55.3,96.2,51.1,92.1,46.1,92.1z"
				/>
			<path class="st0" d="M82.9,147.4c-5.1,0-9.2,4.1-9.2,9.2s4.1,9.2,9.2,9.2c5.1,0,9.2-4.1,9.2-9.2S88,147.4,82.9,147.4z"/>
			<path class="st0" d="M204.5,113.6l-13.5-15.4c-2.2-2.5-5.7-3.6-8.9-2.9c1.4-8.3,2.1-16.5,2.1-24.5V36.8c0-4.4-3.1-8.2-7.4-9
				l-5.7-1.1C145.2,21.5,120,12.8,96.2,1c-2.6-1.3-5.6-1.3-8.2,0C64.3,12.8,39.1,21.5,13.1,26.7l-5.7,1.1c-4.3,0.9-7.4,4.6-7.4,9
				v33.9c0,40,15.6,77.6,43.8,105.9l41.8,41.8c1.8,1.8,4.2,2.7,6.5,2.7c2.4,0,4.7-0.9,6.5-2.7l14.7-14.7
				c11.7,11,27.3,17.3,43.5,17.4h0.4c18.2,0,35.5-7.7,47.7-21.2C226.7,175.7,226.5,138.6,204.5,113.6z M92.1,198.9l-35.2-35.2
				C33,139.8,19.5,108.3,18.5,74.8c0.5,4.6,4.4,8.2,9.1,8.2c5.1,0,9.2-4.1,9.2-9.2s-4.1-9.2-9.2-9.2c-4.9,0-8.9,3.8-9.2,8.6
				c0-0.8,0-1.6,0-2.4V44.4c7.3-1.5,14.4-3.2,21.6-5.2c-1.9,1.7-3.1,4.2-3.1,6.9c0,5.1,4.1,9.2,9.2,9.2s9.2-4.1,9.2-9.2
				c0-4.6-3.4-8.4-7.8-9.1c15.3-4.7,30.2-10.5,44.7-17.5c23.4,11.3,48.2,19.7,73.7,24.9v25c-0.1-0.1-0.2-0.2-0.2-0.2
				c-0.3-0.3-0.6-0.6-0.9-0.8l-2.3-1.9c-0.5-0.4-1-0.7-1.5-1c-3.8-2-8.5-1.1-11.3,2.3L146,72l-8.8,10.6
				c-10.3,11.7-16.6,25.1-18.9,39.9c-1.4-2-3.6-3.4-6.1-3.8c-3.7-0.5-7.2,1.1-9.2,4.2c-0.1,0.1-0.1,0.2-0.1,0.2
				c-0.3,0.4-0.5,0.9-0.8,1.3c-0.1,0.2-0.2,0.3-0.3,0.5c-0.3,0.5-0.6,1-0.8,1.5c-0.1,0.2-0.2,0.3-0.3,0.5c-0.3,0.5-0.6,1.1-0.8,1.6
				c0,0.1-0.1,0.2-0.1,0.2c-0.3,0.5-0.5,1.1-0.8,1.6c0,0.1-0.1,0.2-0.1,0.3c-0.3,0.6-0.5,1.2-0.8,1.8c0,0.1,0,0.1-0.1,0.2
				c-7.4,18.3-5.9,39.2,3.9,56.3L92.1,198.9z M191.2,187.6c-8.7,9.6-21,15.1-34,15.1H157c-13-0.1-25.5-5.8-34.1-15.6
				c-0.3-0.4-0.6-0.7-0.9-1.1c-0.2-0.5-0.5-1-0.9-1.4c-7.3-9.6-10.4-21.5-9.1-33.1c4.6,6.4,9.1,10.5,10.6,11.8c2.1,2,5.2,3,8.3,2.3
				c2.4-0.5,4.5-2,5.8-4.1c0.9-1.4,1.4-3.1,1.5-4.8c0-0.1,0-0.1,0-0.2c0-0.1,0-0.3,0-0.4c0,0,0,0,0,0c0-0.5-0.1-1-0.2-1.5
				c-4.1-18.3-2.6-34,4.6-47.6c2.3-4.3,5.1-8.4,8.6-12.4l0.8-1l4-4.8c2.7,5.1,5,10.3,6.9,15.6c0.1,0.2,0.1,0.3,0.2,0.5
				c3.4,9.8,5.1,19.7,5.1,29.5c0,4.5,3.2,8.3,7.6,9.1c4.3,0.8,8.7-1.7,10.3-5.9c0.1-0.3,1.9-5.2,3.8-12.9l0.9,1
				C206.5,143.7,206.8,170.3,191.2,187.6z"/>
		</g>
	</g>
</g>
</svg>
