<?xml version="1.0" encoding="utf-8"?>
<!-- Generator: Adobe Illustrator 21.0.0, SVG Export Plug-In . SVG Version: 6.00 Build 0)  -->
<svg version="1.1" id="Layer_1" xmlns="http://www.w3.org/2000/svg" xmlns:xlink="http://www.w3.org/1999/xlink" x="0px" y="0px"
	 viewBox="0 0 215.7 214.1" style="enable-background:new 0 0 215.7 214.1;" xml:space="preserve">
<style type="text/css">
	.st0{fill:#6D213E;}
</style>
<g>
	<path class="st0" d="M158.2,214.1h57.5v-47.8L204.5,47.1h-35l-11.3,119.2V124V97.2l-52.5,26.6V97.2l-52.5,26.6V97.2L0,124v90h136.9
		H158.2z M48.5,189.4c0,6.2-5,11.3-11.3,11.3H24.7c-6.2,0-11.3-5-11.3-11.3v-12.5c0-6.2,5-11.3,11.3-11.3h12.5
		c6.2,0,11.3,5,11.3,11.3V189.4z M97.2,189.4c0,6.2-5,11.3-11.3,11.3H73.5c-6.2,0-11.3-5-11.3-11.3v-12.5c0-6.2,5-11.3,11.3-11.3H86
		c6.2,0,11.3,5,11.3,11.3V189.4z M122.2,200.6c-6.2,0-11.3-5-11.3-11.3v-12.5c0-6.2,5-11.3,11.3-11.3h12.5c6.2,0,11.3,5,11.3,11.3
		v12.5c0,6.2-5,11.3-11.3,11.3H122.2z"/>
	<path class="st0" d="M105,24.9c31.7,3.8,63.1-5.2,64.6,14.1h31.9c0,0-5.3-50.6-64.6-32.4C77.7,24.9,84.3,0,84.3,0
		S73.3,21.2,105,24.9z"/>
</g>
</svg>
