<?xml version="1.0" encoding="utf-8"?>
<!-- Generator: Adobe Illustrator 21.0.0, SVG Export Plug-In . SVG Version: 6.00 Build 0)  -->
<svg version="1.1" id="Layer_1" xmlns="http://www.w3.org/2000/svg" xmlns:xlink="http://www.w3.org/1999/xlink" x="0px" y="0px"
	 viewBox="0 0 232.1 222.1" style="enable-background:new 0 0 232.1 222.1;" xml:space="preserve">
<style type="text/css">
	.st0{fill:#6D213E;}
</style>
<g>
	<g>
		<path class="st0" d="M225.2,208.2h-6.9V25.3c0-14-10.3-25.3-23-25.3h-63.4c-12.7,0-23,11.4-23,25.3v33.6c-1.9-0.4-3.8-0.7-5.8-0.7
			H39.7c-12.7,0-23,9.3-23,20.8v129.3H6.9c-3.8,0-6.9,3.1-6.9,6.9c0,3.8,3.1,6.9,6.9,6.9h218.3c3.8,0,6.9-3.1,6.9-6.9
			C232.1,211.3,229,208.2,225.2,208.2z M35.1,78.9c0-0.7,1.6-2.3,4.6-2.3h63.4c3,0,4.6,1.7,4.6,2.3v129.3H35.1V78.9z M127.3,25.3
			c0-4.1,2.4-6.9,4.6-6.9h63.4c2.2,0,4.6,2.8,4.6,6.9v182.9h-72.6V25.3z"/>
		<path class="st0" d="M152.4,26.2H141c-3.7,0-6.7,3-6.7,6.7v11.4c0,3.7,3,6.7,6.7,6.7h11.4c3.7,0,6.7-3,6.7-6.7V32.9
			C159.1,29.2,156.1,26.2,152.4,26.2z"/>
		<path class="st0" d="M152.4,58.5H141c-3.7,0-6.7,3-6.7,6.7v11.4c0,3.7,3,6.7,6.7,6.7h11.4c3.7,0,6.7-3,6.7-6.7V65.1
			C159.1,61.5,156.1,58.5,152.4,58.5z"/>
		<path class="st0" d="M152.4,90.7H141c-3.7,0-6.7,3-6.7,6.7v11.4c0,3.7,3,6.7,6.7,6.7h11.4c3.7,0,6.7-3,6.7-6.7V97.4
			C159.1,93.7,156.1,90.7,152.4,90.7z"/>
		<path class="st0" d="M186.2,26.2h-11.4c-3.7,0-6.7,3-6.7,6.7v11.4c0,3.7,3,6.7,6.7,6.7h11.4c3.7,0,6.7-3,6.7-6.7V32.9
			C192.8,29.2,189.9,26.2,186.2,26.2z"/>
		<path class="st0" d="M186.2,58.5h-11.4c-3.7,0-6.7,3-6.7,6.7v11.4c0,3.7,3,6.7,6.7,6.7h11.4c3.7,0,6.7-3,6.7-6.7V65.1
			C192.8,61.5,189.9,58.5,186.2,58.5z"/>
		<path class="st0" d="M186.2,90.7h-11.4c-3.7,0-6.7,3-6.7,6.7v11.4c0,3.7,3,6.7,6.7,6.7h11.4c3.7,0,6.7-3,6.7-6.7V97.4
			C192.8,93.7,189.9,90.7,186.2,90.7z"/>
		<path class="st0" d="M152.4,123H141c-3.7,0-6.7,3-6.7,6.7v11.4c0,3.7,3,6.7,6.7,6.7h11.4c3.7,0,6.7-3,6.7-6.7v-11.4
			C159.1,126,156.1,123,152.4,123z"/>
		<path class="st0" d="M152.4,155.2H141c-3.7,0-6.7,3-6.7,6.7v11.4c0,3.7,3,6.7,6.7,6.7h11.4c3.7,0,6.7-3,6.7-6.7v-11.4
			C159.1,158.2,156.1,155.2,152.4,155.2z"/>
		<path class="st0" d="M186.2,123h-11.4c-3.7,0-6.7,3-6.7,6.7v11.4c0,3.7,3,6.7,6.7,6.7h11.4c3.7,0,6.7-3,6.7-6.7v-11.4
			C192.8,126,189.9,123,186.2,123z"/>
		<path class="st0" d="M186.2,155.2h-11.4c-3.7,0-6.7,3-6.7,6.7v11.4c0,3.7,3,6.7,6.7,6.7h11.4c3.7,0,6.7-3,6.7-6.7v-11.4
			C192.8,158.2,189.9,155.2,186.2,155.2z"/>
		<path class="st0" d="M60.2,90.7H48.8c-3.7,0-6.7,3-6.7,6.7v11.4c0,3.7,3,6.7,6.7,6.7h11.4c3.7,0,6.7-3,6.7-6.7V97.4
			C66.9,93.7,63.9,90.7,60.2,90.7z"/>
		<path class="st0" d="M94,90.7H82.6c-3.7,0-6.7,3-6.7,6.7v11.4c0,3.7,3,6.7,6.7,6.7H94c3.7,0,6.7-3,6.7-6.7V97.4
			C100.7,93.7,97.7,90.7,94,90.7z"/>
		<path class="st0" d="M60.2,123H48.8c-3.7,0-6.7,3-6.7,6.7v11.4c0,3.7,3,6.7,6.7,6.7h11.4c3.7,0,6.7-3,6.7-6.7v-11.4
			C66.9,126,63.9,123,60.2,123z"/>
		<path class="st0" d="M60.2,155.2H48.8c-3.7,0-6.7,3-6.7,6.7v11.4c0,3.7,3,6.7,6.7,6.7h11.4c3.7,0,6.7-3,6.7-6.7v-11.4
			C66.9,158.2,63.9,155.2,60.2,155.2z"/>
		<path class="st0" d="M94,123H82.6c-3.7,0-6.7,3-6.7,6.7v11.4c0,3.7,3,6.7,6.7,6.7H94c3.7,0,6.7-3,6.7-6.7v-11.4
			C100.7,126,97.7,123,94,123z"/>
		<path class="st0" d="M94,155.2H82.6c-3.7,0-6.7,3-6.7,6.7v11.4c0,3.7,3,6.7,6.7,6.7H94c3.7,0,6.7-3,6.7-6.7v-11.4
			C100.7,158.2,97.7,155.2,94,155.2z"/>
	</g>
</g>
</svg>
