<?xml version="1.0" encoding="utf-8"?>
<!-- Generator: Adobe Illustrator 21.0.0, SVG Export Plug-In . SVG Version: 6.00 Build 0)  -->
<svg version="1.1" id="Layer_1" xmlns="http://www.w3.org/2000/svg" xmlns:xlink="http://www.w3.org/1999/xlink" x="0px" y="0px"
	 viewBox="0 0 453.7 230.9" style="enable-background:new 0 0 453.7 230.9;" xml:space="preserve">
<style type="text/css">
	.st0{opacity:0.7;}
	.st1{fill:none;stroke:#000000;stroke-width:1.8701;stroke-linecap:round;stroke-linejoin:round;stroke-miterlimit:10;}
	.st2{fill:none;stroke:#000000;stroke-width:1.8701;stroke-miterlimit:10;}
	.st3{fill:none;}
</style>
<g class="st0">
	<g>
		<g>
			<path d="M104.4,173.7l-3.4,0l0-1.2l8.2,0l0,1.2l-3.4,0l0,9.9l-1.5,0L104.4,173.7z"/>
			<path d="M116.4,172.6c0.7-0.2,1.8-0.2,2.8-0.2c1.5,0,2.5,0.3,3.2,0.9c0.6,0.5,0.9,1.3,0.9,2.1c0,1.5-0.9,2.4-2.1,2.8v0
				c0.9,0.3,1.4,1.1,1.6,2.2c0.4,1.6,0.6,2.6,0.9,3l-1.5,0c-0.2-0.3-0.4-1.3-0.7-2.6c-0.3-1.5-0.9-2.1-2.2-2.2l-1.4,0l0,4.8l-1.4,0
				L116.4,172.6z M117.9,177.7l1.5,0c1.5,0,2.5-0.8,2.5-2.1c0-1.4-1-2.1-2.6-2.1c-0.7,0-1.2,0.1-1.4,0.1L117.9,177.7z"/>
			<path d="M133.2,180l-1.1,3.5l-1.5,0l3.8-11.1l1.7,0l3.8,11.1l-1.5,0l-1.2-3.5L133.2,180z M136.8,178.9l-1.1-3.2
				c-0.2-0.7-0.4-1.4-0.6-2h0c-0.2,0.7-0.3,1.3-0.6,2l-1.1,3.2L136.8,178.9z"/>
			<path d="M147.4,172.5c0.9-0.1,1.9-0.2,3.1-0.2c2.1,0,3.5,0.5,4.5,1.4c1,0.9,1.6,2.2,1.6,4c0,1.8-0.6,3.3-1.6,4.3
				c-1,1-2.7,1.6-4.9,1.6c-1,0-1.9,0-2.6-0.1L147.4,172.5z M148.8,182.4c0.4,0.1,0.9,0.1,1.5,0.1c3.1,0,4.7-1.7,4.7-4.7
				c0-2.6-1.5-4.3-4.5-4.3c-0.7,0-1.3,0.1-1.7,0.2L148.8,182.4z"/>
			<path d="M165.8,172.4l0,11.1l-1.4,0l0-11.1L165.8,172.4z"/>
			<path d="M182,183.1c-0.5,0.3-1.6,0.5-2.9,0.5c-3.1,0-5.5-2-5.5-5.6c0-3.5,2.3-5.8,5.8-5.8c1.4,0,2.3,0.3,2.6,0.5l-0.3,1.2
				c-0.5-0.3-1.3-0.5-2.2-0.5c-2.6,0-4.3,1.7-4.3,4.6c0,2.7,1.6,4.5,4.3,4.5c0.9,0,1.8-0.2,2.3-0.5L182,183.1z"/>
			<path d="M191.2,172.3l0,11.1l-1.4,0l0-11.1L191.2,172.3z"/>
			<path d="M209.1,177.7c0,3.8-2.3,5.9-5.1,5.9c-2.9,0-5-2.3-5-5.6c0-3.5,2.2-5.8,5.1-5.8C207.2,172.1,209.1,174.4,209.1,177.7z
				 M200.5,177.9c0,2.4,1.3,4.5,3.6,4.5c2.3,0,3.6-2.1,3.6-4.6c0-2.2-1.2-4.5-3.6-4.5C201.7,173.3,200.5,175.5,200.5,177.9z"/>
			<path d="M217,183.4l0-11.1l1.6,0l3.6,5.6c0.8,1.3,1.5,2.5,2,3.6l0,0c-0.1-1.5-0.2-2.8-0.2-4.6l0-4.6l1.4,0l0,11.1l-1.5,0
				l-3.5-5.6c-0.8-1.2-1.5-2.5-2.1-3.7l-0.1,0c0.1,1.4,0.1,2.7,0.1,4.6l0,4.7H217z"/>
			<path d="M235.6,179.8l-1.1,3.5l-1.5,0l3.8-11.1l1.7,0l3.8,11.1l-1.5,0l-1.2-3.5L235.6,179.8z M239.2,178.7l-1.1-3.2
				c-0.2-0.7-0.4-1.4-0.6-2h0c-0.2,0.7-0.3,1.3-0.6,2l-1.1,3.2L239.2,178.7z"/>
			<path d="M249.8,172.2l1.4,0l0,9.9l4.7,0l0,1.2l-6.2,0L249.8,172.2z"/>
			<path d="M273,172.1l6,0l0,1.2l-4.6,0l0,3.7l4.2,0l0,1.2l-4.2,0l0,5l-1.4,0L273,172.1z"/>
			<path d="M296.4,177.5c0,3.8-2.3,5.9-5.1,5.9c-2.9,0-5-2.3-5-5.6c0-3.5,2.2-5.8,5.1-5.8C294.5,171.9,296.4,174.2,296.4,177.5z
				 M287.8,177.7c0,2.4,1.3,4.5,3.6,4.5c2.3,0,3.6-2.1,3.6-4.6c0-2.2-1.2-4.5-3.6-4.5C289,173.1,287.8,175.3,287.8,177.7z"/>
			<path d="M313.8,177.5c0,3.8-2.3,5.9-5.1,5.9c-2.9,0-5-2.3-5-5.6c0-3.5,2.2-5.8,5.1-5.8C311.8,171.9,313.7,174.2,313.8,177.5z
				 M305.1,177.7c0,2.4,1.3,4.5,3.6,4.5c2.3,0,3.6-2.1,3.6-4.6c0-2.2-1.2-4.5-3.6-4.5C306.3,173,305.1,175.2,305.1,177.7z"/>
			<path d="M321.6,172.2c0.9-0.1,1.9-0.2,3.1-0.2c2.1,0,3.5,0.5,4.5,1.4c1,0.9,1.6,2.2,1.6,4c0,1.8-0.6,3.3-1.6,4.3
				c-1,1-2.7,1.6-4.9,1.6c-1,0-1.9,0-2.6-0.1L321.6,172.2z M323,182c0.4,0.1,0.9,0.1,1.5,0.1c3.1,0,4.7-1.7,4.7-4.7
				c0-2.6-1.5-4.3-4.5-4.3c-0.7,0-1.3,0.1-1.7,0.2L323,182z"/>
		</g>
	</g>
	<g>
		<g>
			<path d="M174.9,93.7l-4.3,0l0,4l4.8,0l0,1.2l-6.2,0l0-11.1l6,0l0,1.2l-4.6,0l0,3.5l4.3,0L174.9,93.7z"/>
			<path d="M183,97.2c0.6,0.4,1.6,0.7,2.6,0.7c1.5,0,2.3-0.8,2.3-1.9c0-1-0.6-1.6-2.1-2.2c-1.8-0.6-2.9-1.6-2.9-3.1
				c0-1.7,1.4-3,3.6-3c1.1,0,2,0.3,2.5,0.5l-0.4,1.2c-0.4-0.2-1.1-0.5-2.1-0.5c-1.5,0-2.1,0.9-2.1,1.7c0,1,0.7,1.5,2.2,2.1
				c1.9,0.7,2.8,1.6,2.8,3.3c0,1.7-1.3,3.2-3.9,3.2c-1.1,0-2.2-0.3-2.8-0.7L183,97.2z"/>
			<path d="M199.4,89l-3.4,0l0-1.2l8.2,0l0,1.2l-3.4,0l0,9.9l-1.5,0L199.4,89z"/>
			<path d="M220.3,98.8v-0.9l1.1-1.1c2.7-2.6,4-4,4-5.6c0-1.1-0.5-2.1-2.1-2.1c-1,0-1.8,0.5-2.3,0.9l-0.5-1c0.7-0.6,1.8-1.1,3-1.1
				c2.3,0,3.3,1.6,3.3,3.1c0,2-1.4,3.6-3.7,5.8l-0.9,0.8v0l4.8,0l0,1.2L220.3,98.8z"/>
			<path d="M241.9,93.3c0,3.6-1.3,5.7-3.7,5.7c-2.1,0-3.5-2-3.6-5.5c0-3.6,1.5-5.6,3.7-5.6C240.6,87.9,241.9,89.9,241.9,93.3z
				 M236,93.5c0,2.8,0.9,4.4,2.2,4.4c1.5,0,2.2-1.7,2.2-4.5c0-2.6-0.7-4.4-2.2-4.4C237,89,236,90.6,236,93.5z"/>
			<path d="M252.3,89.4L252.3,89.4l-1.9,1l-0.3-1.1l2.3-1.3l1.2,0l0,10.7l-1.4,0L252.3,89.4z"/>
			<path d="M270.5,88v1l-4.6,9.8l-1.5,0l4.6-9.5v0l-5.2,0V88L270.5,88z"/>
		</g>
	</g>
	<path class="st1" d="M364.3,199.7c-32.4,18.5-83.8,30.4-141.8,30.4c-57.9,0-109.3-11.9-141.8-30.4"/>
	<path class="st1" d="M327.4,199.7c-24,9.2-62,15.2-104.8,15.2c-42.8,0-80.8-6-104.8-15.2"/>
	<g>
		<path class="st1" d="M250.9,58.8c28.7,2,53.6,6.8,70.9,13.4"/>
		<path class="st1" d="M123.2,72.3c16-6.2,38.7-10.8,65-13"/>
		<path class="st1" d="M260.8,45.6C299.3,49.4,332.7,59,356,72"/>
		<path class="st1" d="M89.1,71.9c23.1-12.9,56-22.3,93.9-26.3"/>
		<g>
			<path class="st2" d="M243.6,8.3c-3.7-0.9-7.4-0.4-10.6,1.2c-0.9-5.1-5.3-8.9-10.6-8.9c-5.3,0-9.6,3.8-10.6,8.7
				c-2-0.9-4.2-1.4-6.6-1.4c-8.8,0-16,7.2-16,16c0,7.9,5.7,14.5,13.3,15.7l4.2,20.3l1.8,8.4h24.7l10.6-28.9
				c5.6-1.4,10.3-5.8,11.7-11.8C257.5,19,252.2,10.4,243.6,8.3z"/>
			<line class="st1" x1="226.6" y1="60.9" x2="204.7" y2="60.9"/>
			<line class="st1" x1="224.9" y1="53.9" x2="203" y2="53.9"/>
			<line class="st1" x1="222.5" y1="46.9" x2="200.6" y2="46.9"/>
		</g>
	</g>
	<polygon class="st3" points="235.4,121.8 234,137.4 238.6,137.4 237.1,121.8 	"/>
	
		<rect x="189.9" y="141" transform="matrix(1 -4.978402e-03 4.978402e-03 1 -0.7172 0.9631)" class="st3" width="6.4" height="7.2"/>
	
		<rect x="189.8" y="122" transform="matrix(1 -4.504632e-03 4.504632e-03 1 -0.5609 0.8706)" class="st3" width="6.4" height="5.8"/>
	
		<rect x="86.7" y="122.5" transform="matrix(1 -4.930240e-03 4.930240e-03 1 -0.6674 0.4448)" class="st3" width="6.4" height="26.1"/>
	
		<rect x="359.1" y="121.2" transform="matrix(1 -5.107822e-03 5.107822e-03 1 -0.6394 1.8518)" class="st3" width="6.4" height="9.8"/>
	<polygon points="48.8,109.6 48.9,128.6 42.5,128.6 42.4,109.6 26.5,109.7 26.7,162 42.7,162 42.6,141.7 49,141.7 49.1,161.9 
		65,161.8 64.8,109.5 	"/>
	<path d="M102.5,109.3L77,109.4c-3.8,0-6.4,2.7-6.4,6.5l0.2,39.4c0,3.8,2.7,6.5,6.5,6.5l25.5-0.1c3.8,0,6.4-2.7,6.4-6.5l-0.2-39.4
		C108.9,112,106.3,109.3,102.5,109.3z M86.8,148.7l-0.1-26.1l6.4,0l0.1,26.1L86.8,148.7z"/>
	<polygon points="112.6,109.3 112.6,122.4 122.2,122.4 122.4,161.6 138.4,161.5 138.2,122.3 145.9,122.3 148.4,115.6 148.3,109.1 	
		"/>
	<polygon points="152.2,161.4 168.2,161.4 168,129.4 152.1,129.4 	"/>
	<polygon points="167.9,109 152,109.1 152,119.3 168,119.3 	"/>
	<path d="M205.6,135.1l0-1.4c3.5,0,6.6-2.5,6.5-6.3l-0.1-12c0-3.8-2.7-6.5-6.5-6.5l-31.9,0.2l0.3,52.4l31.9-0.2
		c3.8,0,6.4-2.7,6.4-6.5l-0.1-13.2C212.2,137.5,209.1,135,205.6,135.1z M189.8,122l6.4,0l0,5.8l-6.4,0L189.8,122z M189.9,148.2
		l0-7.2l6.4,0l0,7.2L189.9,148.2z"/>
	<path d="M249.5,108.6l-26.6,0.1l-6.9,45.9l0,6.5l15.9-0.1l1-10.6l7,0l1,10.5l16-0.1l0-6.5L249.5,108.6z M234,137.4l1.4-15.6l1.8,0
		l1.5,15.6L234,137.4z"/>
	<polygon points="293,133.1 298.8,114.9 298.8,108.4 283.6,108.4 279.9,127.4 277,127.5 276.9,108.5 261,108.5 261.2,160.9 
		277.2,160.8 277.1,140.5 280,140.5 284.4,160.8 300.3,160.7 300.3,154.2 	"/>
	<polygon points="320.5,147.5 320.5,140.3 336.2,140.3 336.1,127.2 320.4,127.2 320.4,121.4 336.1,121.3 338.6,114.7 338.6,108.2 
		304.4,108.3 304.7,160.7 338.9,160.5 338.8,147.4 	"/>
	<path d="M377.2,141c2.4-0.7,4.2-3.5,4.2-5.9l-0.1-20.6c0-3.8-2.7-6.5-6.4-6.5l-32,0.2l0.3,52.4l16-0.1l-0.1-16.3l3.2,0l4.4,16.3
		l15.6-0.1l0-6.5L377.2,141z M359.1,131l-0.1-9.8l6.4,0l0.1,9.8L359.1,131z"/>
	<polygon points="425.2,114.2 425.2,107.7 409.3,107.8 405.4,128.2 404.3,128.2 400.3,107.9 384.3,107.9 384.3,114.4 397,146 
		397,160.2 413,160.2 412.9,145.9 	"/>
</g>
</svg>
