<?xml version="1.0" encoding="utf-8"?>
<!-- Generator: Adobe Illustrator 21.0.0, SVG Export Plug-In . SVG Version: 6.00 Build 0)  -->
<svg version="1.1" id="Layer_1" xmlns="http://www.w3.org/2000/svg" xmlns:xlink="http://www.w3.org/1999/xlink" x="0px" y="0px"
	 viewBox="0 0 453.7 230.9" style="enable-background:new 0 0 453.7 230.9;" xml:space="preserve">
<style type="text/css">
	.st0{fill:url(#SVGID_1_);}
	.st1{fill:url(#SVGID_2_);}
	.st2{fill:url(#SVGID_3_);}
	.st3{fill:url(#SVGID_4_);}
	.st4{fill:url(#SVGID_5_);}
	.st5{fill:url(#SVGID_6_);}
	.st6{fill:url(#SVGID_7_);}
	.st7{fill:url(#SVGID_8_);}
	.st8{fill:url(#SVGID_9_);}
	.st9{fill:url(#SVGID_10_);}
	.st10{fill:url(#SVGID_11_);}
	.st11{fill:url(#SVGID_12_);}
	.st12{fill:url(#SVGID_13_);}
	.st13{fill:url(#SVGID_14_);}
</style>
<g>
	<g>
		<linearGradient id="SVGID_1_" gradientUnits="userSpaceOnUse" x1="122.3743" y1="216.9438" x2="138.0465" y2="216.9438">
			<stop  offset="0" style="stop-color:#F15A24"/>
			<stop  offset="1" style="stop-color:#F15A24"/>
		</linearGradient>
		<path class="st0" d="M132.6,228l-6.7,1.1l-3.5-22.1l14.4-2.3l0.4,2.7l-0.6,3l-6.6,1.1l0.6,3.6l6.6-1.1l0.9,5.5l-6.6,1.1L132.6,228
			z"/>
		<linearGradient id="SVGID_2_" gradientUnits="userSpaceOnUse" x1="139.3118" y1="214.1678" x2="158.1782" y2="214.1678">
			<stop  offset="0" style="stop-color:#F15A24"/>
			<stop  offset="1" style="stop-color:#F15A24"/>
		</linearGradient>
		<path class="st1" d="M145.1,226.1c-1.6,0.3-2.9-0.7-3.1-2.3l-2.6-16.6c-0.3-1.6,0.7-2.9,2.3-3.2l10.7-1.7c1.6-0.3,2.9,0.7,3.1,2.3
			l2.6,16.6c0.3,1.6-0.7,2.9-2.3,3.2L145.1,226.1z M146.5,208.9l1.8,11l2.7-0.4l-1.8-11L146.5,208.9z"/>
		<linearGradient id="SVGID_3_" gradientUnits="userSpaceOnUse" x1="158.5345" y1="211.1052" x2="177.3979" y2="211.1052">
			<stop  offset="0" style="stop-color:#F15A24"/>
			<stop  offset="1" style="stop-color:#F15A24"/>
		</linearGradient>
		<path class="st2" d="M164.4,223c-1.6,0.3-2.9-0.7-3.1-2.3l-2.6-16.6c-0.3-1.6,0.7-2.9,2.3-3.2l10.7-1.7c1.6-0.3,2.9,0.7,3.1,2.3
			l2.6,16.6c0.3,1.6-0.7,2.9-2.3,3.2L164.4,223z M165.8,205.8l1.8,11l2.7-0.4l-1.8-11L165.8,205.8z"/>
		<linearGradient id="SVGID_4_" gradientUnits="userSpaceOnUse" x1="177.3623" y1="208.2394" x2="196.5893" y2="208.2394">
			<stop  offset="0" style="stop-color:#F15A24"/>
			<stop  offset="1" style="stop-color:#F15A24"/>
		</linearGradient>
		<path class="st3" d="M180.9,220.4l-3.5-22.1l13.4-2.1c1.6-0.3,2.9,0.7,3.1,2.3l2.6,16.6c0.3,1.6-0.7,2.9-2.2,3.2L180.9,220.4z
			 M186.7,213.8l2.7-0.4l-1.8-11l-2.7,0.4L186.7,213.8z"/>
		<linearGradient id="SVGID_5_" gradientUnits="userSpaceOnUse" x1="212.3275" y1="202.419" x2="231.1123" y2="202.419">
			<stop  offset="0" style="stop-color:#F15A24"/>
			<stop  offset="1" style="stop-color:#F15A24"/>
		</linearGradient>
		<path class="st4" d="M215,212.1l-0.9-5.6c-0.3-1.6,0.9-2.9,2.3-3.1l-0.1-0.6c-1.4,0.2-2.9-0.6-3.2-2.2l-0.8-5
			c-0.3-1.6,0.7-2.9,2.2-3.2l12.5-2l0.4,2.7l-0.6,2.9l-7.4,1.2l0.4,2.5l10.3-1.6l0.9,5.5l-1.8,0.3l0.9,5.8c0.3,1.6-0.7,2.9-2.3,3.2
			l-9.8,1.6C216.6,214.7,215.3,213.7,215,212.1z M220.8,205.2l0.5,3l1.8-0.3l-0.5-3L220.8,205.2z"/>
		<linearGradient id="SVGID_6_" gradientUnits="userSpaceOnUse" x1="246.8003" y1="197.1764" x2="266.0303" y2="197.1764">
			<stop  offset="0" style="stop-color:#F15A24"/>
			<stop  offset="1" style="stop-color:#F15A24"/>
		</linearGradient>
		<path class="st5" d="M250.3,209.3l-3.5-22.1l13.4-2.1c1.6-0.3,2.9,0.7,3.1,2.3L266,204c0.3,1.6-0.7,2.9-2.2,3.2L250.3,209.3z
			 M256.1,202.7l2.7-0.4l-1.8-11l-2.7,0.4L256.1,202.7z"/>
		<linearGradient id="SVGID_7_" gradientUnits="userSpaceOnUse" x1="265.9916" y1="194.1165" x2="285.9841" y2="194.1165">
			<stop  offset="0" style="stop-color:#F15A24"/>
			<stop  offset="1" style="stop-color:#F15A24"/>
		</linearGradient>
		<path class="st6" d="M279.5,182c1.6-0.2,2.9,0.7,3.1,2.3l1.4,8.7c0.2,1-0.4,2.3-1.4,2.8l3,5.1l0.4,2.7l-6.6,1l-2.9-6.6l-1.4,0.2
			l1.1,6.9l-6.7,1.1l-3.5-22.1L279.5,182z M273.6,188.7l0.7,4.1l2.7-0.4l-0.7-4.1L273.6,188.7z"/>
		<linearGradient id="SVGID_8_" gradientUnits="userSpaceOnUse" x1="284.9347" y1="191.6555" x2="295.1524" y2="191.6555">
			<stop  offset="0" style="stop-color:#F15A24"/>
			<stop  offset="1" style="stop-color:#F15A24"/>
		</linearGradient>
		<path class="st7" d="M288.5,203.2l-3.5-22.1l6.7-1.1l3.5,22.1L288.5,203.2z"/>
		<linearGradient id="SVGID_9_" gradientUnits="userSpaceOnUse" x1="294.7157" y1="189.3461" x2="314.3688" y2="189.3461">
			<stop  offset="0" style="stop-color:#F15A24"/>
			<stop  offset="1" style="stop-color:#F15A24"/>
		</linearGradient>
		<path class="st8" d="M307.2,188.1l-2.1-7.3l-0.4-2.7l6.2-1l3.5,22.1l-7.1,1.1l-4.8-9.7l-0.5,0.1l2,7.3l0.4,2.7l-6.2,1l-3.5-22.1
			l7.1-1.1l4.8,9.7L307.2,188.1z"/>
		<linearGradient id="SVGID_10_" gradientUnits="userSpaceOnUse" x1="313.9384" y1="186.3015" x2="333.8994" y2="186.3015">
			<stop  offset="0" style="stop-color:#F15A24"/>
			<stop  offset="1" style="stop-color:#F15A24"/>
		</linearGradient>
		<path class="st9" d="M323.5,175l6.4-1l0.4,2.7l-1.3,8.1l4.4,8.4l0.4,2.7l-6.7,1.1l-3.2-8.2l-1.2,0.2l1.4,8.5l-6.7,1.1l-3.5-22.1
			l6.7-1.1l1.3,8l1.2-0.2L323.5,175z"/>
		<linearGradient id="SVGID_11_" gradientUnits="userSpaceOnUse" x1="332.6292" y1="183.5083" x2="349.7425" y2="183.5083">
			<stop  offset="0" style="stop-color:#F15A24"/>
			<stop  offset="1" style="stop-color:#F15A24"/>
		</linearGradient>
		<path class="st10" d="M333.4,181l-0.7-4.6c-0.3-1.6,0.7-2.9,2.3-3.2l11.7-1.9l0.4,2.7l-0.6,3l-6.6,1.1l0.2,1l6.5,3.1
			c1.6,0.8,2.1,1.7,2.4,3.5l0.8,5c0.3,1.6-0.7,2.9-2.2,3.2l-11.7,1.9l-0.9-5.5l7.7-1.2l-0.2-1.5l-6.5-3
			C334.2,183.7,333.7,182.8,333.4,181z"/>
	</g>
	<linearGradient id="SVGID_12_" gradientUnits="userSpaceOnUse" x1="174.7399" y1="158.4881" x2="263.2251" y2="5.2273">
		<stop  offset="0" style="stop-color:#F15A24"/>
		<stop  offset="1" style="stop-color:#F15A24"/>
	</linearGradient>
	<path class="st11" d="M328.2,62.7c-2.2-20.1-18.7-36.1-38.8-37.8c-7.3-0.6-14.2,0.6-20.3,3.2c-5.5-16.3-20.9-28-39.1-28
		c-17,0-31.5,10.2-37.9,24.9c-7.1-5.8-16.5-9-26.7-7.9c-16.5,1.8-29.8,15.1-31.6,31.5c-2.4,21.6,14.5,39.9,35.6,39.9
		c2.8,0,5.6-0.3,8.3-1l10.1,76.7c0.4,2.8,3.5,4.3,5.9,2.7c3.7-2.5,9.5-5.2,16.7-5.3c6.8-0.1,12.2,0.4,15.7,1
		c3.5,0.5,7.1,0.1,10.4-1.2c3.3-1.3,8.1-3,14.1-4.5c4.3-1.1,9-1.1,12.8-0.9c4.6,0.3,8.7-2.8,9.6-7.3l8.1-38.8
		c1.5,0.2,3.1,0.3,4.6,0.3C310.9,110.4,331,88.5,328.2,62.7z M265.9,135.2c-1.2,0.5-2.5,0.8-3.9,0.7c-3.8-0.3-8.5-0.2-12.8,1
		c-6,1.7-10.8,3.6-14.1,5.1c-3.3,1.5-6.9,1.9-10.4,1.3c-3.6-0.6-8.9-1.2-15.7-1.1c-5.3,0.1-9.7,1.7-13.2,3.7l-3.6-27.3l75.1,5.8
		L265.9,135.2z"/>
	<linearGradient id="SVGID_13_" gradientUnits="userSpaceOnUse" x1="104.3708" y1="179.5565" x2="176.0389" y2="179.5565">
		<stop  offset="0" style="stop-color:#F7931E"/>
		<stop  offset="1" style="stop-color:#F15A24"/>
	</linearGradient>
	<path class="st12" d="M106.6,172.4c-1.7-0.8-3,1.6-1.8,3.4c1.3,1.9,2.8,3.6,4.3,5.3c3.1,3.3,6.5,6.1,10.3,8.3
		c7.5,4.4,16.4,5.9,24.4,3c2-0.7,3.9-1.7,5.7-2.8c1.7-1.2,3.4-2.4,4.9-3.8c3-2.7,5.5-5.6,7.7-7.9c2.3-2.2,4.2-3.8,6.9-3.8
		c1.4,0,3,0.4,4.7,1.1l0.1,0c1.7,0.8,3-1.7,1.7-3.4c-1.4-2-3.2-3.7-5.4-5c-2.1-1.3-4.7-1.9-7-1.6c-2.3,0.2-4.4,1-6.3,1.9
		c-3.7,1.9-6.6,4.3-9.4,6.1c-1.4,0.9-2.7,1.8-4.1,2.5c-1.3,0.8-2.6,1.4-4,1.8c-5.3,1.9-11.4,1.9-17.8,0.4
		C116.8,176.9,111.8,174.9,106.6,172.4z"/>
	<linearGradient id="SVGID_14_" gradientUnits="userSpaceOnUse" x1="281.8676" y1="149.9537" x2="350.3002" y2="149.9537">
		<stop  offset="0" style="stop-color:#F15A24"/>
		<stop  offset="1" style="stop-color:#F7931E"/>
	</linearGradient>
	<path class="st13" d="M347.4,134.8c1.4-1.3,3.4,0.6,2.8,2.6c-0.6,2.2-1.4,4.3-2.4,6.4c-1.8,4.1-4.2,7.9-7.1,11.1
		c-5.7,6.5-13.6,10.8-22.2,10.7c-2.1-0.1-4.3-0.4-6.3-0.9c-2-0.6-4-1.2-5.8-2c-3.7-1.6-7-3.6-9.9-5c-2.9-1.4-5.2-2.2-7.8-1.3
		c-1.3,0.4-2.7,1.4-4,2.6c0,0,0,0,0,0c-1.4,1.3-3.4-0.6-2.8-2.6c0.7-2.3,1.8-4.5,3.5-6.5c1.6-1.9,3.8-3.3,6.1-3.8
		c2.3-0.6,4.5-0.5,6.6-0.2c4.1,0.6,7.6,1.9,10.9,2.8c1.6,0.4,3.2,0.9,4.7,1.1c1.5,0.3,2.9,0.4,4.3,0.4c5.7,0,11.5-1.8,17-5.3
		C339.2,142.3,343.3,138.8,347.4,134.8z"/>
</g>
</svg>
