<?xml version="1.0" encoding="utf-8"?>
<!-- Generator: Adobe Illustrator 21.0.0, SVG Export Plug-In . SVG Version: 6.00 Build 0)  -->
<svg version="1.1" id="Layer_1" xmlns="http://www.w3.org/2000/svg" xmlns:xlink="http://www.w3.org/1999/xlink" x="0px" y="0px"
	 viewBox="0 0 453.7 230.9" style="enable-background:new 0 0 453.7 230.9;" xml:space="preserve">
<style type="text/css">
	.st0{fill:#3D2314;}
	.st1{fill:#F39744;}
	.st2{fill:#CB2636;}
	.st3{fill:#F6F1C7;}
	.st4{fill:#54897F;}
</style>
<g>
	<circle class="st0" cx="230.4" cy="105.7" r="104.6"/>
	<circle class="st1" cx="230.4" cy="105.7" r="89.3"/>
	<path class="st0" d="M334.9,202.5c0,15.3-12.4,27.6-27.6,27.6H153.4c-15.3,0-27.6-12.4-27.6-27.6V111h209.2V202.5z"/>
	<path class="st0" d="M164.5,154.9c-5,0-10.7-1-16.7-3.1c-3.4-0.8-5.4-3.2-5.4-6.4c0-8.4,0.2-17.6,2.3-25.9
		c-1.4,0.9-2.6,1.1-3.5,1.1c-1,0-5.9-0.4-5.9-7.7c0-12.5,10-20.3,26-20.3c12.7,0,28.2,5.2,31.8,14.9c1.1,3,1.9,9-5.3,15.1
		c-0.9,0.8-2,1.5-3.1,2.1c0.4,0.5,0.7,1,1,1.5c3.1,5.4,3,12.5-0.2,18.1C183.1,148.3,177.4,154.9,164.5,154.9L164.5,154.9z
		 M160.1,139.5c1.4,0.3,2.7,0.4,4,0.4c5.2,0,7.8-2.1,7.8-6.4c0-0.8,0-1.2-4.5-2.4c-1.9-0.5-4.6-1.2-6.7-2.7
		C160.3,132.6,160,136.9,160.1,139.5z"/>
	<g>
		<path class="st0" d="M361.7,158.9H99l17.3,29.1L99,217h262.7l-17.3-29.1L361.7,158.9z M350.6,210.7H110.1l13.6-22.8l-13.6-22.8
			h240.6l-13.6,22.8L350.6,210.7z"/>
		<polygon class="st2" points="350.6,165.1 110.1,165.1 123.6,187.9 110.1,210.7 350.6,210.7 337.1,187.9 		"/>
	</g>
	<g>
		<g>
			<path class="st3" d="M145.5,180.2c1.1,0.8,1.6,1.9,1.6,3.4c0,1-0.3,1.9-0.9,2.7c-0.6,0.7-1.4,1.2-2.4,1.5c1.3,0.2,2.3,0.7,3,1.5
				c0.7,0.8,1.1,1.9,1.1,3.1c0,1.6-0.6,2.8-1.8,3.7c-1.2,0.9-2.8,1.3-4.9,1.3h-7.9V179h7.8C143,179,144.4,179.4,145.5,180.2z
				 M143.6,186c0.6-0.5,0.9-1.2,0.9-2.1c0-0.9-0.3-1.5-0.9-2c-0.6-0.5-1.5-0.7-2.6-0.7h-5.2v5.5h5.2
				C142.1,186.8,143,186.5,143.6,186z M144.2,194.2c0.8-0.5,1.2-1.3,1.2-2.2c0-0.9-0.4-1.6-1.2-2.2c-0.8-0.5-1.8-0.8-3.2-0.8h-5.2v6
				h5.2C142.3,195,143.4,194.8,144.2,194.2z"/>
			<path class="st3" d="M165.7,197.3l-3.6-5.8c-0.4,0-0.8,0.1-1,0.1h-4.7v5.7h-2.5V179h7.2c2.3,0,4.1,0.5,5.4,1.6
				c1.3,1.1,1.9,2.6,1.9,4.6c0,1.5-0.3,2.7-1,3.7c-0.7,1-1.7,1.7-3,2.2l4.3,6.2H165.7z M161,189.3c1.6,0,2.8-0.3,3.6-1
				c0.8-0.7,1.3-1.7,1.3-3c0-1.3-0.4-2.3-1.3-3c-0.8-0.7-2-1-3.6-1h-4.7v8.1H161z"/>
			<path class="st3" d="M188.3,197.3l-1.9-4.4h-9.6l-1.9,4.4h-2.6l8.1-18.3h2.6l8.1,18.3H188.3z M177.7,190.6h7.7l-3.9-8.9
				L177.7,190.6z"/>
			<path class="st3" d="M208.7,179h2.5v18.3h-2.5l-10.5-14.2v14.2h-2.5V179h2.5l10.5,14.2V179z"/>
			<path class="st3" d="M230.6,180.2c1.4,0.8,2.6,1.9,3.4,3.3c0.8,1.4,1.2,3,1.2,4.7c0,1.7-0.4,3.3-1.2,4.7c-0.8,1.4-2,2.5-3.4,3.3
				c-1.4,0.8-3.1,1.2-4.9,1.2h-7.4V179h7.5C227.6,179,229.2,179.4,230.6,180.2z M229.3,194.1c1-0.6,1.9-1.4,2.5-2.5
				c0.6-1,0.9-2.2,0.9-3.5c0-1.3-0.3-2.5-0.9-3.5c-0.6-1-1.4-1.9-2.5-2.5c-1.1-0.6-2.2-0.9-3.5-0.9h-4.9V195h5
				C227.1,195,228.3,194.7,229.3,194.1z"/>
			<path class="st3" d="M249.6,179h2.5v16h8v2.3h-10.5V179z"/>
			<path class="st3" d="M278.1,180.1c1.5,0.8,2.6,1.9,3.5,3.4c0.9,1.4,1.3,3,1.3,4.7c0,1.7-0.4,3.3-1.3,4.7c-0.9,1.4-2,2.6-3.5,3.4
				c-1.5,0.8-3.1,1.2-4.8,1.2s-3.4-0.4-4.8-1.2c-1.5-0.8-2.6-2-3.5-3.4c-0.9-1.4-1.3-3-1.3-4.7c0-1.7,0.4-3.3,1.3-4.7
				c0.9-1.4,2-2.5,3.5-3.4c1.5-0.8,3.1-1.2,4.9-1.2C275,178.8,276.6,179.3,278.1,180.1z M269.8,182c-1.1,0.6-2,1.5-2.6,2.5
				c-0.6,1.1-1,2.3-1,3.5c0,1.3,0.3,2.5,1,3.6c0.6,1.1,1.5,1.9,2.6,2.6c1.1,0.6,2.3,1,3.5,1c1.3,0,2.4-0.3,3.5-1
				c1.1-0.6,1.9-1.5,2.6-2.6c0.6-1.1,1-2.3,1-3.6c0-1.3-0.3-2.5-1-3.5c-0.6-1.1-1.5-1.9-2.6-2.5c-1.1-0.6-2.2-0.9-3.5-0.9
				C272,181.1,270.8,181.4,269.8,182z"/>
			<path class="st3" d="M300.5,188.4h2.2v6.7c-0.9,0.7-2,1.3-3.2,1.8c-1.2,0.4-2.5,0.7-3.7,0.7c-1.8,0-3.4-0.4-4.8-1.2
				c-1.5-0.8-2.6-2-3.5-3.4c-0.8-1.4-1.3-3-1.3-4.7c0-1.7,0.4-3.3,1.3-4.7c0.9-1.4,2-2.5,3.5-3.4c1.5-0.8,3.1-1.2,4.9-1.2
				c1.3,0,2.5,0.2,3.7,0.7c1.2,0.5,2.3,1.1,3.1,1.9l-1.4,1.8c-0.7-0.7-1.6-1.2-2.5-1.6c-0.9-0.4-1.9-0.6-2.9-0.6
				c-1.3,0-2.5,0.3-3.6,0.9c-1.1,0.6-2,1.5-2.6,2.6c-0.6,1.1-1,2.3-1,3.6c0,1.3,0.3,2.5,1,3.6c0.6,1.1,1.5,2,2.6,2.6
				c1.1,0.6,2.3,1,3.6,1c0.8,0,1.5-0.1,2.3-0.4c0.8-0.3,1.5-0.6,2.2-1.1V188.4z"/>
			<path class="st3" d="M322.3,180.1c1.5,0.8,2.6,1.9,3.5,3.4c0.9,1.4,1.3,3,1.3,4.7c0,1.7-0.4,3.3-1.3,4.7c-0.9,1.4-2,2.6-3.5,3.4
				c-1.5,0.8-3.1,1.2-4.8,1.2s-3.4-0.4-4.8-1.2c-1.5-0.8-2.6-2-3.5-3.4c-0.9-1.4-1.3-3-1.3-4.7c0-1.7,0.4-3.3,1.3-4.7
				c0.9-1.4,2-2.5,3.5-3.4c1.5-0.8,3.1-1.2,4.9-1.2C319.2,178.8,320.8,179.3,322.3,180.1z M314,182c-1.1,0.6-2,1.5-2.6,2.5
				c-0.6,1.1-1,2.3-1,3.5c0,1.3,0.3,2.5,1,3.6c0.6,1.1,1.5,1.9,2.6,2.6c1.1,0.6,2.3,1,3.5,1c1.3,0,2.4-0.3,3.5-1
				c1.1-0.6,1.9-1.5,2.6-2.6c0.6-1.1,1-2.3,1-3.6c0-1.3-0.3-2.5-1-3.5c-0.6-1.1-1.5-1.9-2.6-2.5c-1.1-0.6-2.2-0.9-3.5-0.9
				C316.2,181.1,315,181.4,314,182z"/>
		</g>
	</g>
	<path class="st0" d="M247.3,178.9c-5.6,0-9.8-2.5-11.4-6.9c-2.1-5.5,0.4-12.9,6.8-20.6c-1.5-0.6-3-1.6-4.2-2.8
		c-1.3-1.3-2.3-2.9-3-4.7c-2.5-0.1-4.6-0.9-6.3-2.5c-2.8,7.7-4.3,10.7-9.1,10.7c-1.8,0-3.3-0.5-4.6-1.4c-0.4-0.3-0.8-0.6-1.1-0.9
		c-2.9,1.4-5.4,2.1-7.6,2.1c-2.7,0-4.9-0.9-6.7-2.7c-2.6,2-5.4,3-8,3c-2.9,0-5.5-1.3-7.3-3.6c-1.8-2.3-3.5-6.8-1.4-14.6
		c0.5-1.8,1-4.5,1.5-8.1l0-0.2c2-10.7,7.8-11.8,10.2-11.8c2.3,0,4.3,0.9,5.7,2.4c1.5-1.4,3.7-2.3,6.3-2.3c4.5,0,7.8,2.8,7.8,6.6
		c0,0.4,0,0.8,0,1.1c0.5-1.9,1.1-3.4,1.7-4.3c0.7-1.2,2.6-3.2,6.3-3.2c0.7,0,1.3,0.1,2,0.2c1.2,0.2,2.2,0.7,3,1.5
		c1.6-1.1,3.3-1.7,5.1-1.7c1,0,2,0.2,3,0.5c1.9,0.7,3.4,2,4.2,3.9c0.5,1.1,0.6,2.2,0.5,3.5c4.1-5.8,9.1-8,12.9-8
		c2.3,0,4.4,0.8,5.7,2.3l0.8,0c2,0,3.5,0.6,4.7,1.9c1.2,1.3,1.8,2.9,2,5.1c0.9-1.6,1.9-3.1,3.1-4.4c2.9-3,6.5-4.6,10.5-4.6
		c4.3,0,7.8,1.7,10,4.6c0.7-1.6,1.5-2.7,2.4-3.4c1.2-0.8,2.7-1.3,4.6-1.3c0.7,0,1.4,0.1,1.9,0.1c1.2,0.2,2.2,0.7,3,1.5
		c1.6-1.1,3.5-1.6,5.4-1.6c3.1,0,4.9,1.4,5.9,2.6c2.4,3,1.5,6.9,1,9.2c0,0-0.2,0.7-0.2,0.9c0.6-0.4,1.4-0.9,2.2-1.6l8.4-6.9
		l-1.3,19.9l-2,1.3c-4.4,2.9-8.1,4.3-11.4,4.3c-2.6,0-4.9-0.8-6.7-2.5c-2.8,7.8-4.3,10.7-9.1,10.7c-2.4,0-4.4-0.9-5.9-2.5
		c-3.4,1.7-6.7,2.5-9.8,2.5c-3.4,0-6.6-1-9.1-2.9c-2,1.8-3.9,3-5.5,4l-0.4,0.2c-0.2,1-0.4,2.7-0.5,3.8
		C262.6,164.3,260.9,178.9,247.3,178.9z"/>
	<g>
		<g>
			<path class="st3" d="M140,113c0,6,3.8,1.9,7-3.9c5.9-7.9,40-6.8,33.4,5.3c-3.6,6.6-14,5-15.7,5c-1.2,0-2.4,0.1-2.6,1.3
				c-1.3,8.3,14.5,3.4,14.5,12.9c0,10.5-10.6,13.1-20.6,9.7c-1.6-1.2,0.1-19.8,1.5-24.7c0.7-2.5,2-5.6,3.7-8c-1.8-3-4.4-3-7.2-1
				c-6.3,9.4-6.9,23.7-6.9,35.8c0,0.9,0.3,1.5,2,1.9c39.4,13.3,41.2-24.1,22.5-24.1c4.6-0.1,9.5-1.1,13-4.1
				C206.4,100.6,140,84.2,140,113z"/>
			<path class="st3" d="M310,125.2c0.5-2.4,1.6-6.4-2.2-6.4c-4.6,0-6.7,6.1-8.2,9.1h-0.3c-0.2-4.6,1.1-8.7-0.7-9
				c-0.7-0.1-2.4-0.2-3,0.3c-1.8,1.3-3.8,13.5-4.1,16.2c-3.1,2.5-8.1,5.6-12.1,5.6c-1.8,0-2.7-0.9-3.6-2.6
				c14.8-4,15.8-19.5,4.7-19.5c-9.4,0-12.4,12.6-12.2,16.9c-2.4,3.6-4.9,6.9-8.3,8.9c0.8-8.1,0.6-9.4,1.5-12.5
				c0.4-1.5,0.7-2.8,0.7-3.9c0.6-12-2.2-4.9-6.1-8.9c-1.7-2.1-10-1.1-15,12.1c-10.2,5-3.9-8.8-5.1-11.2c-0.3-0.7-0.8-1.1-1.5-1.4
				c-5-1.8-8.5,7.2-9.3,8.9h-0.3c-0.2-4.6,1.1-8.7-0.7-9c-1.3-0.2-2.9-0.2-3.6,0.9c-1.1,1.8-3.1,10.4-3.8,17.3
				c-1.7,1.3-4.2,2.9-6.2,3.6c-2.1,0.7-2.8,0.3-2.8-1.9c-0.1-2.1,0-1.9,0.7-5.7c1.7-8.9,1.8-9,1.8-12.6c0-2.5-6-2.3-6.5-0.2
				l-3.2,15.7c-1.1,5.6-6.9,7-5.8,1.3c2.5-14.1,2.6-14.4,3-17.1c0-1.6-6-4.7-8,6.3c-0.5,3.9-1,6.8-1.6,8.8
				c-3.6,13.2,5.3,16.5,13.4,6c0.8,3.8,2.6,10,15.1,1.9c0.1,1.5,0.4,2.9,1.7,3.7c0.5,0.3,1.1,0.5,1.9,0.5c2.5,0,2.7-2.2,8.4-18.3
				h0.5c0.9,6.8,3.2,11.8,10.2,9.4c-0.1,6.4,6.8,12.8,14.1,5.8l-0.6,3.4c-15.7,13.7-16.4,26.3-5.4,26.3c13.7,0,10-21.9,13.2-24
				c2.6-1.7,6.2-3.7,9.5-7.8c3.1,5.4,10.7,7.9,21.1,0.5c0.2,2.6,0.9,4.6,3.6,4.6c2.5,0,2.7-2.3,8.4-18.3h0.5
				c1.3,10.4,5.8,13,15.7,6.5l0.4-6.7C313.2,134.2,307.9,134.9,310,125.2z M246.6,168.6c-3.8,0,2.5-11.3,6.1-13.8
				C252.2,159.3,251.2,168.6,246.6,168.6z M253.2,133.8c-0.6,12.8-12.3,10-3.7-5.1c1.7-3,3.7-4.5,5.9-4.5L253.2,133.8z M277.5,126.1
				c3.1-3.7,7.3-0.6,4.2,3.6c-2.1,2.9-4.9,4.1-6.6,4.1C275.1,130.7,276.5,127.2,277.5,126.1z"/>
		</g>
	</g>
	<path class="st1" d="M261.3,91.4c1.2,0.1,2.4,0.1,3.6-0.1c-1.6,0.6-3.3,1.2-4.9,1.9c-0.1,0,0,0.2,0,0.2c2.5-0.2,5.2-0.6,7.6-1.5
		c0,0,0,0,0,0.1c-2.2,1.1-4.4,2-6.8,2.7c-2.1,0.6-4.5,0.7-6.4,1.6c0,0,0,0.1,0,0.1c2.1,0.4,4.6-0.4,6.6-0.9c1.4-0.3,2.8-0.7,4.1-1.2
		c-1.8,1.1-4.1,1.8-5.9,2.6c-3.5,1.5-7,2.2-10.6,3.4c-4.1,1.3-8,2.1-12.3,2.4c-7.9,0.5-16.2,0.6-23.9-0.8c-4-0.7-7.8-2-11.4-3.8
		c-1.7-0.9-3.4-1.9-5-3c1.2,0.6,2.4,1.2,3.6,1.8c1.7,0.9,3.6,2,5.5,1.9c0.1,0,0.2-0.1,0.1-0.2c-1.2-1-2.8-1.5-4.1-2.2
		c-1.5-0.8-2.9-1.9-4.4-2.8c-2.2-1.4-4-2.5-5.8-4.2c1.5,1.1,3.2,2,4.8,2.9c1.8,1.1,3.5,2.5,5.7,2.3c0.1,0,0.2-0.2,0.1-0.2
		c-2.4-1.1-4.5-2.8-6.6-4.4c1.2,0.4,2.5,0.7,3.7,0.9c0.2,0,0.4-0.2,0.2-0.4c-2.1-1.2-4.5-2.2-6.5-3.6c1.5,0.8,3.3,1.2,4.7,1.2
		c0.2,0,0.3-0.3,0.2-0.4c-0.9-0.7-2-1.1-3-1.7c-0.1,0-0.1-0.1-0.2-0.1c0.5-0.1,0.9-0.4,1.4-0.6c0,0.1,0,0.1,0,0.2
		c0.1,0.4,0.5,0.5,0.8,0.5c0.8-0.1,1.4-0.4,2-0.9c1.5-1.1,1.1,0.7,1.1,1.8c-0.1,2.2,3,0.6,3.2,1.7c0.6,2.2,3.1,1.1,4.5,1.1
		c1.1,0,1.3,0.8,1.8,1.2c0.1,1,0,2.3,1,2.5c0.9,0.2,1.8,0.2,2.7-0.1c1.8-0.6,1.2,1.2,2.5,1.5c1.1,0.3,1.6-0.2,2.6,0.5
		c0.7,0.5,1.3,0.8,2.1,0.7c0.4-0.1,0.7-0.6,0.8-0.9c0.6-1.8,1.2-3.2,3-3.7c0,1.8-0.9,3,1.4,3.8c1.3,0.5,2.5-0.3,3.8,0.8
		c0.6,0.6,1.5,0.4,2.2,0.2c0.6-0.2,1-1,1.3-1.5c0.8-1.3,2,0.6,2.9,0.6c2.2-0.1,1.4-2.6,2.5-3.1c0.3,1,0.6,2,1.8,2.6
		c1,0.5,2.9,0.4,3.5-0.7c0.7-1.1,0-1.9-0.7-2.7c-0.2-0.2-0.3-0.3-0.4-0.4c0-0.1,0-0.1-0.1-0.2c0-0.5,2.1,0.4,2.7,0.8
		c0.5,0.3,1.3,0.8,1.9,0.6c0.5-0.2,1.2-0.4,1.4-0.9c0.3-0.7,0.7-3.1,1.9-2.4c1.7,1.1,2.8,1.5,4.4,0.1c0.4-0.3,0.4-1,0.4-1.4
		c0.1-2.2,2.7,0.5,3.3,0.8c0.9,0.6,1.7,0.1,2.4-0.5c0.9,1.1,2.3,2.4,3.5,1.6c1-0.6,0.8-1.5,0.3-2.3c0.2,0,0.5,0,0.7,0
		c0.2,0,0.3,0,0.5-0.1c0.9,0.3,1.8,0.2,2.7,0c0.5-0.1,1.2-0.3,1.7-0.5c0,0.1,0,0.1,0,0.2c-0.5,0.1-0.9,0.3-1.4,0.5
		c-1,0.3-2.1,0.5-3.1,0.9c-0.2,0.1-0.2,0.4,0,0.5c1.1,0.3,2,0.1,3.1-0.2c0.3-0.1,0.6-0.1,0.9-0.2c-0.9,0.4-1.8,0.6-2.7,0.7
		c-1.1,0.2-2.3,0.3-3.2,0.9c-0.1,0.1-0.1,0.2,0.1,0.2c1.1,0.1,2.2-0.2,3.3-0.3c0.9-0.1,1.8-0.3,2.7-0.7c0,0.1,0,0.2-0.1,0.2
		c-2.5,0.9-5,1.9-7.7,2.2C261.2,91.2,261.2,91.4,261.3,91.4z"/>
	<path class="st1" d="M200.5,39.2c4.4-2.6,8.7-4.2,13.8-5c4.8-0.8,9.6-0.9,14.4-1c3,0,6,0.3,9.1,0.6c9.3,1.1,26.2,6.8,30.6,16.1
		c1,2.2,1.6,4.7,1.4,7.1c-0.2,3.1-2.2,4.5-4.3,6.4c-1.3,0.5-2.7,0.7-4.1,0.8c-3.4,0.3-6.7,1.1-10.1,2c-4.5,1.2-8.9,2.3-13.4,3.1
		c-0.5-0.3-0.9-0.1-1.1,0.2c-2.6,0.5-5.2,0.8-7.8,1.1c-9.9,0.9-20.2-0.8-29.5-4c-2.8-0.9-5.4-2.3-8-3.7c-4.2-2.1-3-6.9-2.2-10.5
		C190.6,46.1,195.2,42.3,200.5,39.2z"/>
	<path class="st4" d="M271.2,79.7c-0.9,0.5-0.5,1.3-0.1,1.9c0.7,0.9-0.1,0.8-1,0.6c-0.2-0.2-0.4-0.3-0.7-0.2
		c-0.3-0.1-0.5-0.2-0.5-0.2c-0.6-0.2-1.1-0.4-1.8-0.3c-0.3,0-0.6,0.2-0.6,0.6c0.2,2-1.4,1.2-2.7,1.2c-0.3,0-0.6,0.3-0.5,0.7
		c0.2,0.5,0.4,1.1,0.5,1.7c-0.5,0-1,0-1.6,0.1c-0.5,0.1-0.6,0.7-0.3,1c-0.7,0.5-1.2,0.6-1.6,0.2c0.1-0.2,0.2-0.3,0.3-0.4
		c0.3-0.4-0.4-0.9-0.7-0.5c-0.1,0.1-0.1,0.1-0.2,0.2c-0.3-0.2-0.7,0.1-0.5,0.5c0,0,0,0,0,0c-1.8,1.5-2.5-1.6-4.3-1.6
		c-1.1,0-1.8,1.1-1.9,2c-0.4,2.6-3.4-0.3-4.5-0.2c-1.3,0.1-2.5,4-3.7,3.3c-1.2-0.7-2.4-1.5-3.9-1.1c-0.1,0-0.3,0.1-0.4,0.2
		c-0.3-0.3-0.7-0.5-0.9-0.7c-0.8-0.6-1.5-1.1-2.2-1.7c-0.8-0.7-1.5-1.5-2.3-2.1c-0.2-0.1-0.4,0.1-0.3,0.3c0.9,1.3,2,2.7,3.3,3.7
		c0.6,0.4,1.2,0.9,1.8,1.4c0,0.1,0,0.2,0,0.3c0.2,0.9,1,1.6,1.7,2.2c-0.5,0.8-1.1,1-1.8,0.7c-0.8-0.2-1-0.5-1.2-1
		c0.1-0.1,0.1-0.3,0.1-0.4c-0.3-2.3-3.4-3.6-4.9-5.1c0,0-0.1,0-0.1,0.1c1,1.3,2.6,2.5,3.5,3.9c0,0,0,0.1,0,0.1
		c-0.8,0.2-1.2,0.7-1.3,1.7c-0.2,1.5-1.6,0.7-2.3,0.3c-0.4-0.2-1.2-0.1-1.5,0.1c-0.6,0.4-0.9,0.8-1.3,1.4c-1.1,1.7-2.1-0.6-3-0.8
		c-0.7-0.1-3.6,0.3-3.4-0.9c0.1-0.9,0.3-1.5,0.1-2.3c0-0.2-0.1-0.3-0.3-0.3c0.2-0.2,0.3-0.4,0.5-0.5c1.2-1.1,2.3-2.5,3.7-3.4
		c0.1-0.1,0-0.3-0.1-0.2c-1.4,0.6-2.5,1.3-3.6,2.3c-0.9,0.8-2,1.5-2.8,2.4c-0.8,0.4-1.4,1-1.8,1.9c-0.4,0.9-0.5,2.5-1.8,1.5
		c-0.7-0.5-1.1-0.9-2-0.8c-1.6,0.1-1.6-2.2-3.5-1.5c-0.3,0.1-1.7,0.7-2.3,0.4c0-0.1,0-0.3-0.1-0.4c-0.3-0.3-0.2-0.8,0.1-1.2
		c0,0,0.1-0.1,0.1-0.1c1.1-1.4,4.2-2.9,4.9-3.4c0.2-0.1,0.1-0.4-0.1-0.3c-1.1,0.3-3.6,1.3-5.1,2.7c-0.2-0.1-0.4-0.1-0.6,0
		c0,0,0-0.1-0.1-0.1c-0.1-0.2-0.3-0.5-0.5-0.6c-0.7-0.3-1.2-0.6-2-0.6c-1.1-0.1-3,1-3.3-0.7c-0.1-0.5-0.9-1.1-1.4-1.1
		c-1.3,0.1-1.8,0.5-1.6-1.1c0.1-0.7-0.3-1.3-0.7-1.8c-0.8-1-2.4,0.3-3.5,1c0,0,0-0.1,0-0.1c-0.1-0.4-0.5-0.6-0.8-0.5
		c-1.2,0.3-2.9,1.2-3.7-0.4c-0.2-0.5-0.8-1.1-1.4-1.1c-0.7,0-1.3,0.2-1.9,0.6c-1.5,0.8-1.3-1.6-1.8-2.1c-0.3-0.3-0.9-0.7-1.4-0.6
		c-0.4,0-0.7,0.1-1,0.1c-1.6,0.2-0.3-0.5,0.2-0.7c1.1-0.3,2.7-0.8,2.7-2.2c0-0.2-0.1-0.4-0.3-0.5c-0.3-0.2-2-0.1-0.9-1
		c0.6-0.4,0.9-0.8,1.1-1.4c0.2-0.4-0.3-0.8-0.7-0.7c-3.1,0.6-1-2.5,0.7-2.5c0,0,0.1,0,0.1,0c1,0.2,2.1,0.3,3.2,0.3
		c-1.1,1.4-0.5,4.1,0.1,5.4c1.5,3,5.2,4.7,8.3,3.9c0.8-0.2,1.8,3.7,3.4,1.7c0.4-0.5,0.5-0.6,0.6-1.2c0.4-1.2,1.1-0.7,2.1-0.7
		c0.3,0,0.6-0.2,0.8-0.4c1.5-1.2,0.9,0.4,0.9,1.2c0,0.3,0.3,0.5,0.6,0.6c1.8,0.2,0.6,2,0.6,3.1c0,0.3,0.3,0.6,0.6,0.6
		c1.4,0,2.5-1.3,3.7-0.6c0.7,0.4,1.6,0,2.3-0.6c0.4,0.9,1.1,1.4,2.2,0.4c0.3-0.3,2-2.2,2.3-0.3c0,0.4,0.1,0.8,0.2,1.1
		c0.3,0.8,0.9,1,1.7,1.1c0.4,0,0.5-0.2,0.6-0.5c0.2-0.1,0.4-0.2,0.6-0.3c1-0.6,2.1-0.3,3.1-0.5c0.6-0.1,1.1-0.6,1.3-1.2
		c0.2-0.5,0.3-0.9,0.5-1.3c1,0.5,2,0.9,3,1.2c0.1,0,0.2,0,0.2,0c0.2,0.1,0.4,0.1,0.7,0c1.3-0.6,2.4-1.7,3.6-2.5
		c0.1-0.1,0.3-0.2,0.4-0.3c1,0.5,1.5,2.7,2.8,2.9c0.3,0,0.6-0.1,0.7-0.4c0.6-1.9,2.2,0.6,3.3,0.9c1.4,0.4,2.2-1.9,3.7,0
		c0.4,0.5,0.9,0.5,1.4,0.2c0.4-0.3,0.7-0.8,0.9-1.1c1.1-1.4,1-1.2,2.4-0.3c0.3,0.2,0.7,0,0.8-0.3c0.1-0.3,0.6-3.6,1.9-1.7
		c0.4,0.5,0.7,0.9,1.2,1.2c0.9,0.6,1.8,0.2,2.5-0.4c1.1-0.9,1.1-2.1,3-2.3c0.9-0.1,1.8,0.4,2.6,0.4c0.6,0,0.9-0.2,1.3-0.6
		c0.8-0.6,1.3-1.2,2.4-1.5c0.3-0.1,0.4-0.3,0.5-0.6c0.1-1.2,1-0.9,1.5-1.5c0.5-0.6,0.5-0.6,0.8-1.3c0,0,0.1-0.4,0.1-0.7
		c0.1-0.1,0.2-0.1,0.3-0.2c0.4,0.5,0,1.4,0.2,2.3C269.9,77.7,273.3,78.7,271.2,79.7z"/>
	<path class="st4" d="M268,73.9c0,1-0.4,1.9-1.4,2.2c-0.2,0.1-0.5,0.2-0.7,0.4c-0.2,0.2-0.3,0.4-0.3,0.6c-0.3,0.9,0.1,0.2-0.9,0.6
		c-0.9,0.3-1.7,2-2.5,1.9c-1.2-0.1-2.3-0.3-3.4,0.1c-0.8,0.3-1.4,0.9-1.9,1.5c-1.5,2-2.7-0.1-4-0.9c-1.3-0.8-1.9,0.6-2.3,1.8
		c-0.3-0.2-0.5-0.3-0.8-0.5c-0.5-0.4-0.8-0.8-1.2-1.3c-0.7-0.9-1.5-1.7-2.5-2.2c0,0-0.1,0,0,0.1c0.8,1,1.4,2.1,2.2,3
		c0.2,0.3,0.4,0.5,0.7,0.8c-0.6,0.1-1.1,0.7-2.1,2c-0.2,0.3-1.5-0.8-2-1c-0.9-0.3-2.8,1.2-3.4,0.5c-0.9-1.2-2.6-2.1-3.6-0.4
		c0,0-0.8-1.3-1.8-1.9c0.8-0.5,1.7-1,2.5-1.4c2.7-1.5,5.1-3.5,7.9-4.8c0.1,0,0.1-0.1,0.1-0.2c3.2-0.1,6.4-0.4,9.6-0.9
		c3.3-0.4,6.8-1.2,9.6-3c0,0,0,0,0.1,0.1c0.8,0.5,1.1,1.1,1,2.1c-0.2,1.1-1.5,1.1-2.3,1.3c-0.7,0.2-1.2,0.6-1.6,1.3
		c-0.2,0.3-0.3,0.7-0.4,1c-0.5,1-1.8-0.1-2.4-0.2c-1-0.3-1.6-0.1-2.4,0.5c-0.1,0.1,0,0.1,0.1,0.1c1-0.2,1.9,0.1,2.7,0.6
		c0.4,0.2,1.1,0.5,1.6,0.4c1.7-0.6,1.5-2.7,3.4-3c2.3-0.4,3-3.3,1-4.5c0.1-0.1,0.2-0.1,0.3-0.2c0.5-0.4,1-0.9,1.5-1.4
		c0.2,0.8,0.4,1.7,0.5,2.5c0.1,0.5,0.1,1,0,1.5c-0.1,0-0.1,0-0.2,0c0,0-0.1,0-0.1,0c0,0-0.1,0-0.1,0C267.8,73.1,267.8,73.6,268,73.9
		z"/>
	<path class="st4" d="M219,81.1c-0.3,0.4-0.7,0.7-1,1.1c-0.3,0.5-0.7,0.8-1.1,1.2c-0.1,0.1-0.1,0.2-0.1,0.3
		c-0.6,0.6-1.1,1.3-1.3-0.1c-0.1-0.5-0.7-0.5-1-0.3c-1.8,1.5-1.2,0.1-2.7,0.1c0,0-0.1,0-0.1,0c0.2-0.2,0.3-0.5,0.4-0.6
		c0.6-0.8,1.2-1.6,1.7-2.4c0.1-0.1-0.1-0.3-0.2-0.2c-0.8,0.5-1.4,1.2-2.1,1.9c-0.3,0.4-0.6,0.8-0.9,1.2c-0.2,0.2-0.4,0.5-0.4,0.8
		c-0.3,0.2-0.6,0.4-0.9,0.5c0.2-1.7,0.8-3-1.3-3.4c0.1-1.1,0.2-3-1.3-2.6c-1.2,0.4-1.9,0.7-3.3,0.7c-0.1,0-0.1,0-0.2,0
		c1.6-1.3,3.9-1.9,5.6-2.6c0.1,0,0.1-0.1,0-0.1c1.3,0.1,2.6,0.1,4,0.2c1,0,2.1,0.1,3.3,0.1c-0.1,0.2,0,0.5,0.3,0.6
		c3.7,1,6.6,3.5,9.9,5.4c-0.1,0.2-0.3,0.5-0.3,0.8c-0.4,1.4-1.6,1-2.7,1.2c-0.9,0.2-1.8,0.5-2.7,0.8c-0.6-0.8-0.3-2.8-1.7-2.8
		c-0.1,0-0.2,0-0.3,0c0.3-0.5,0.4-1.1,0.7-1.6C219.2,81.1,219.1,81,219,81.1z"/>
	<path class="st2" d="M201.6,79.9c0,0.1-0.1,0.1-0.1,0.2c-0.1,0.3-0.3,0.7-0.4,1.1c-0.2-0.3-0.6-0.6-0.7-0.9c-0.2-0.5-1-0.9-1.5-0.8
		c-2.3,0.4-4-0.1-5.9-1.6c-1.2-1-3.5-4.7-1.6-6.3c0,0,0.1-0.1,0.1-0.1c0.5,0,1.1,0,1.6,0.1c-0.3,0.4-0.6,0.9-0.7,1.3
		c-0.4,1.3,1.1,2,2.1,2.3c0.2,0.1,0.5,0,0.7,0c0.6-0.1,0.3,0.6,0.2,0.8c-0.2,0.5,0,0.9,0.4,1.3c0.4,0.3,0.8,0.3,1.3,0.2
		c0.3-0.1,0.6-0.2,0.9-0.3c0.4-0.1,0.7,0,1.1-0.1c0.1,0,0.2-0.2,0.2-0.3c0-0.1,0-0.1,0-0.2c0-0.1-0.1-0.2-0.3-0.3
		c-0.7-0.2-1.4,0.1-2,0.3c-1,0.3-0.2-0.8-0.1-1c0.1-0.5,0-0.7-0.2-1.1c-0.5-0.8-1.3-0.2-2-0.4c-0.6-0.2-1.2-0.5-1-1.2
		c0.2-0.8,0.7-0.9,1.2-1.3c0.9,0,1.7,0,2.5,0c1,0.9,2.1,1.7,3.1,2.4c2.3,1.6,4.9,2.2,7.5,2.4c-1,0.1-1.9,0.5-2.8,0.9
		c-1.2,0.5-2.5,1.1-3.4,2.1C201.5,79.5,201.5,79.7,201.6,79.9z"/>
	<path class="st2" d="M207.6,72.2c-0.4-0.2-0.9-0.4-1.4-0.6c0.6,0.1,1.1,0.1,1.3,0.1c0.2,0,0.3-0.3,0.1-0.4
		c-0.7-0.3-1.4-0.5-2.1-0.6c0.1,0,0.2,0,0.3,0c0.1,0,0.2-0.2,0.1-0.3c-0.3-0.3-0.7-0.4-1-0.6c0.2,0,0.4,0.1,0.6,0.1
		c4.1,1,8.3,1.6,12.5,2c-3.6,0.7-7.3,1-10.9,0.6c0.1,0,0.3,0,0.4-0.1C207.7,72.3,207.7,72.2,207.6,72.2z"/>
	<path class="st2" d="M219.3,73c0.1,0.1,0.2,0.2,0.3,0.2c-0.3,0.1-0.5,0.3-0.8,0.4c0,0,0,0.1,0,0.1c0.8,0,1.7,0,2.7-0.2
		c-0.7,0.2-1.4,0.4-2.1,0.6c-0.2,0.1-0.2,0.4,0.1,0.4c1.2,0,2.5-0.2,3.8-0.4c-0.4,0.1-0.9,0.3-1.3,0.5c0,0,0,0.1,0,0.1
		c1.7,0,3.7-0.2,5.5-0.7c-0.7,0.3-1.5,0.5-2.2,0.7c-3.4,0.9-7,0.8-10.4,0.7c-3.6,0-7.6,0.1-11-1.1c0.6,0.1,1.2,0.2,1.6,0.4
		c0.2,0.1,0.3-0.2,0.2-0.3c-0.7-0.4-1.2-0.9-1.9-1.4C208.6,74.6,214.2,74.3,219.3,73z"/>
	<path class="st2" d="M259.6,66.4c0.6-0.1,1.2,0,1.8-0.1c0.2,0,0.3-0.1,0.5-0.1c0,0,0,0,0,0c-1.3,0.4-2.8,0.5-4.1,0.9
		c-0.1,0-0.1,0.1,0,0.2c1.9,0.8,4.6,0,6.7-0.9c-0.9,0.7-2.2,1.1-3.2,1.3c-1.5,0.3-2.9,0.7-4.3,1.1c-0.1,0,0,0.1,0,0.1
		c1.1-0.1,2.5-0.1,3.9-0.3c-1.4,0.4-2.9,0.6-4.3,0.8c-4.9,0.7-9.7,0.6-14.6,0.5c6.3-1.4,12.5-3.3,18.8-4.1c-0.3,0.2-0.7,0.4-1,0.5
		C259.5,66.3,259.5,66.4,259.6,66.4z"/>
	<path class="st2" d="M263.7,69.3c0.9-0.2,1.8-0.4,2.6-0.8c-0.6,0.4-1.3,0.8-2,1c-1,0.4-2.1,0.9-3.2,1.2c-0.1,0-0.1,0.2,0.1,0.2
		c1-0.2,1.8-0.2,2.7-0.3c-0.3,0.1-0.6,0.3-0.8,0.4c-2.8,1-5.8,1.5-8.7,1.8c-2.4,0.3-4.8,0.5-7.3,0.6c0.7-0.1,1.3-0.2,1.9-0.3
		c0.3-0.1,0.3-0.5,0-0.5c-1.5-0.3-3-0.4-4.5-0.5c0.2-0.1,0.4-0.2,0.6-0.4c0.1-0.1,0.1-0.3-0.1-0.3c-0.8,0-1.7-0.1-2.5-0.3
		c5.3,0.6,10.6,0.4,15.8-0.6c1.4-0.3,3.9-0.8,6-1.8c-0.3,0.2-0.5,0.3-0.8,0.5C263.5,69.2,263.6,69.3,263.7,69.3z"/>
	<g>
		<g>
			<path class="st0" d="M205.6,100.1c-0.8,0-1.6-0.1-2.4-0.1c-6.3-0.2-13.6-0.7-19.7,0.9c-0.5,0.1-0.5,0.9,0,1
				c5.7,1,12.1,0.5,17.9,0.5c4.3,0.1,8.6,0.3,13,0.6C211.3,102.3,208.4,101.4,205.6,100.1z"/>
			<path class="st0" d="M271.5,101.9c-6.6-0.5-13.2,0-19.7,0.1c-2.1,0-4.2,0-6.3-0.1c-2.1,0.8-4.3,1.4-6.8,1.5c-0.7,0-1.3,0-2,0.1
				c11.6,1.1,23.5,0.3,34.9-1.2C271.8,102.2,271.7,101.9,271.5,101.9z"/>
			<path class="st0" d="M284,94.1c-5.8-0.4-11.6-0.1-17.4,0.1c-0.8,0.8-1.8,1.5-3,2c0,0,0,0,0,0c6.9-0.2,13.8-0.8,20.5-1.7
				C284.3,94.4,284.2,94.1,284,94.1z"/>
			<path class="st0" d="M279.4,87.7c-3-0.2-6-0.2-9-0.2c0,0.5-0.1,0.9-0.4,1.4c0,0.1-0.1,0.2-0.1,0.2c3.2-0.3,6.4-0.7,9.5-1.1
				C279.7,88,279.6,87.7,279.4,87.7z"/>
		</g>
		<g>
			<path class="st0" d="M198.7,96.1c-6.4,0-13,0-19.3,0.9c-0.4,0.1-0.4,0.7,0,0.8c7.1,1.1,14.6,0.3,21.8,0
				C200.3,97.2,199.5,96.7,198.7,96.1z"/>
			<path class="st0" d="M283.9,99c-3.1-1.3-6.8-1.1-10.1-1.3c-4-0.2-8-0.5-12-0.7c-0.7,0.3-1.4,0.6-2.1,0.9
				c-0.8,0.3-1.6,0.5-2.5,0.7c8.9,0.5,17.7,1,26.6,0.9C284.1,99.5,284.1,99.1,283.9,99z"/>
		</g>
		<g>
			<path class="st0" d="M286.3,90.8c-5.5-0.4-11.1-0.7-16.7-0.9c-0.4,0.8-0.9,1.5-1.5,2.3c6.1-0.1,12.2-0.3,18.3-0.8
				C286.7,91.4,286.7,90.9,286.3,90.8z"/>
			<path class="st0" d="M193.5,91.1c-6.4-0.4-13-0.9-18.9,0.9c-0.8,0.2-0.6,1.4,0.2,1.4c7,0.4,14.1,0.5,21.2,0.4
				C195.1,93,194.3,92,193.5,91.1z"/>
		</g>
		<g>
			<path class="st0" d="M190.9,86.9c-4.3,0.2-8.6,0.4-12.9,0.6c-0.7,0-0.7,1.1,0,1.1c4.7,0.4,9.4,0.5,14.1,0.4
				C191.6,88.3,191.2,87.6,190.9,86.9z"/>
			<path class="st0" d="M281.3,85.5c-3.4-0.4-6.8-0.4-10.3-0.4c-0.1,0.5-0.1,1.1-0.3,1.6c3.5-0.1,7.1-0.2,10.5-0.5
				C281.7,86.1,281.7,85.5,281.3,85.5z"/>
		</g>
		<g>
			<path class="st0" d="M280,65.6c-1.2-3.2-5.4-5.1-8-5.9c0.6-1.9,0.7-4,0.5-6.1c-0.7-4.9-3.9-10.2-8.3-13.6
				c-1.7-1.3-10.7-6.4-20.7-8.2c-2.9-0.5-5.8-1-8.8-1.1c-2.2-0.2-4.6-0.3-7-0.3c-3,0-6.2,0.2-9.4,0.5h0c0,0-0.1,0-0.1,0l-0.1,0h-0.1
				c-0.2,0-0.4,0-0.5,0.1c-0.8,0.1-1.5,0.2-2.3,0.3c-5.3,0.7-9.8,2.2-14.7,4.8c-4.1,2.2-9.9,5.7-12.7,11.7c-1.9,4-3.9,11.9,0.6,16.2
				c0.2,0.2,0.5,0.4,0.7,0.6c-0.5,0.5-1.1,1-1.7,1.4c-0.2,0.1-0.4,0.3-0.6,0.4c-1,0.7-2.2,1.5-2.9,2.7c-0.3,0.5-0.3,1.2,0,1.7
				c-0.3,0.4-0.6,0.7-0.8,1c-0.7,1.2-0.6,2-0.3,2.6c0.2,0.4,0.5,0.7,0.9,0.9c-0.2,0.3-0.3,0.7-0.4,1.2c0,0.3,0,0.6,0.1,0.8
				c-0.5,0.2-1,0.4-1.4,0.8c-1.1,1.1-1.2,2.8-0.1,3.8c0.6,0.6,1.5,0.6,2.4,0.6c0.2,0,0.4,0,0.6,0c0.1,0.6,0.3,1.6,1,2.3
				c0.5,0.5,1.1,0.7,1.8,0.7c0,0,0.1,0,0.1,0c-0.1,0.8-0.1,1.5,0,2.2c-0.1,0.3-0.1,0.6-0.1,0.9c0.1,0.4,0.2,0.8,0.4,1.2
				c0.4,1.3,1.1,2.9,2.5,3.6c6,5.5,13.7,9.2,22.4,10.8c4.4,0.8,9.2,1.2,14.4,1.2c4.2,0,8.5-0.3,13-0.8c2.9-0.3,5.7-1.1,8.3-1.9
				c1.4-0.4,2.9-0.8,4.4-1.2c4.2-1,7.8-2.5,11.2-3.9c2.6-1.1,5.7-2.7,6.8-5.6c0.8-2.2,1.2-4.8,1-7.2c0.3-0.1,0.5-0.2,0.7-0.3
				c0.5-0.4,1.2-1.2,1.3-2.1c0.1-0.6,0-1.1-0.4-1.7c0,0,0.1-0.1,0.1-0.1c0.3-0.3,0.7-0.8,0.8-1.5c0.2-0.9,0-2.2-2-3.2
				c-0.2-0.1-0.3-0.2-0.3-0.2c0-0.1,0-0.3,0-0.5c0.1-0.5,0.1-1.2-0.2-1.9c-0.2-0.4-0.5-0.7-0.8-1c0-0.2,0-0.4,0-0.7
				c-0.1-0.9-0.3-1.8-0.7-2.8l0,0c0.1,0,0.2-0.1,0.2-0.1c0.4-0.1,0.9-0.2,1.4-0.2l0.2,0c0.6,0,1.2,0,1.8,0c1.6,0,3.2,0,4.8-0.6
				C279.8,67.5,280.3,66.5,280,65.6z M271.2,79.7c-0.9,0.5-0.5,1.3-0.1,1.9c0.7,0.9-0.1,0.8-1,0.6c-0.2-0.2-0.4-0.3-0.7-0.2
				c-0.3-0.1-0.5-0.2-0.5-0.2c-0.6-0.2-1.1-0.4-1.8-0.3c-0.3,0-0.6,0.2-0.6,0.6c0.2,2-1.4,1.2-2.7,1.2c-0.3,0-0.6,0.3-0.5,0.7
				c0.2,0.5,0.4,1.1,0.5,1.7c-0.5,0-1,0-1.6,0.1c-0.5,0.1-0.6,0.7-0.3,1c-0.7,0.5-1.2,0.6-1.6,0.2c0.1-0.2,0.2-0.3,0.3-0.4
				c0.3-0.4-0.4-0.9-0.7-0.5c-0.1,0.1-0.1,0.1-0.2,0.2c-0.3-0.2-0.7,0.1-0.5,0.5c0,0,0,0,0,0c-1.8,1.5-2.5-1.6-4.3-1.6
				c-1.1,0-1.8,1.1-1.9,2c-0.4,2.6-3.4-0.3-4.5-0.2c-1.3,0.1-2.5,4-3.7,3.3c-1.2-0.7-2.4-1.5-3.9-1.1c-0.1,0-0.3,0.1-0.4,0.2
				c-0.3-0.3-0.7-0.5-0.9-0.7c-0.8-0.6-1.5-1.1-2.2-1.7c-0.8-0.7-1.5-1.5-2.3-2.1c-0.2-0.1-0.4,0.1-0.3,0.3c0.9,1.3,2,2.7,3.3,3.7
				c0.6,0.4,1.2,0.9,1.8,1.4c0,0.1,0,0.2,0,0.3c0.2,0.9,1,1.6,1.7,2.2c-0.5,0.8-1.1,1-1.8,0.7c-0.8-0.2-1-0.5-1.2-1
				c0.1-0.1,0.1-0.3,0.1-0.4c-0.3-2.3-3.4-3.6-4.9-5.1c0,0-0.1,0-0.1,0.1c1,1.3,2.6,2.5,3.5,3.9c0,0,0,0.1,0,0.1
				c-0.8,0.2-1.2,0.7-1.3,1.7c-0.2,1.5-1.6,0.7-2.3,0.3c-0.4-0.2-1.2-0.1-1.5,0.1c-0.6,0.4-0.9,0.8-1.3,1.4c-1.1,1.7-2.1-0.6-3-0.8
				c-0.7-0.1-3.6,0.3-3.4-0.9c0.1-0.9,0.3-1.5,0.1-2.3c0-0.2-0.1-0.3-0.3-0.3c0.2-0.2,0.3-0.4,0.5-0.5c1.2-1.1,2.3-2.5,3.7-3.4
				c0.1-0.1,0-0.3-0.1-0.2c-1.4,0.6-2.5,1.3-3.6,2.3c-0.9,0.8-2,1.5-2.8,2.4c-0.8,0.4-1.4,1-1.8,1.9c-0.4,0.9-0.5,2.5-1.8,1.5
				c-0.7-0.5-1.1-0.9-2-0.8c-1.6,0.1-1.6-2.2-3.5-1.5c-0.3,0.1-1.7,0.7-2.3,0.4c0-0.1,0-0.3-0.1-0.4c-0.3-0.3-0.2-0.8,0.1-1.2
				c0,0,0.1-0.1,0.1-0.1c1.1-1.4,4.2-2.9,4.9-3.4c0.2-0.1,0.1-0.4-0.1-0.3c-1.1,0.3-3.6,1.3-5.1,2.7c-0.2-0.1-0.4-0.1-0.6,0
				c0,0,0-0.1-0.1-0.1c-0.1-0.2-0.3-0.5-0.5-0.6c-0.7-0.3-1.2-0.6-2-0.6c-1.1-0.1-3,1-3.3-0.7c-0.1-0.5-0.9-1.1-1.4-1.1
				c-1.3,0.1-1.8,0.5-1.6-1.1c0.1-0.7-0.3-1.3-0.7-1.8c-0.8-1-2.4,0.3-3.5,1c0,0,0-0.1,0-0.1c-0.1-0.4-0.5-0.6-0.8-0.5
				c-1.2,0.3-2.9,1.2-3.7-0.4c-0.2-0.5-0.8-1.1-1.4-1.1c-0.7,0-1.3,0.2-1.9,0.6c-1.5,0.8-1.3-1.6-1.8-2.1c-0.3-0.3-0.9-0.7-1.4-0.6
				c-0.4,0-0.7,0.1-1,0.1c-1.6,0.2-0.3-0.5,0.2-0.7c1.1-0.3,2.7-0.8,2.7-2.2c0-0.2-0.1-0.4-0.3-0.5c-0.3-0.2-2-0.1-0.9-1
				c0.6-0.4,0.9-0.8,1.1-1.4c0.2-0.4-0.3-0.8-0.7-0.7c-3.1,0.6-1-2.5,0.7-2.5c0,0,0.1,0,0.1,0c1,0.2,2.1,0.3,3.2,0.3
				c-1.1,1.4-0.5,4.1,0.1,5.4c1.5,3,5.2,4.7,8.3,3.9c0.8-0.2,1.8,3.7,3.4,1.7c0.4-0.5,0.5-0.6,0.6-1.2c0.4-1.2,1.1-0.7,2.1-0.7
				c0.3,0,0.6-0.2,0.8-0.4c1.5-1.2,0.9,0.4,0.9,1.2c0,0.3,0.3,0.5,0.6,0.6c1.8,0.2,0.6,2,0.6,3.1c0,0.3,0.3,0.6,0.6,0.6
				c1.4,0,2.5-1.3,3.7-0.6c0.7,0.4,1.6,0,2.3-0.6c0.4,0.9,1.1,1.4,2.2,0.4c0.3-0.3,2-2.2,2.3-0.3c0,0.4,0.1,0.8,0.2,1.1
				c0.3,0.8,0.9,1,1.7,1.1c0.4,0,0.5-0.2,0.6-0.5c0.2-0.1,0.4-0.2,0.6-0.3c1-0.6,2.1-0.3,3.1-0.5c0.6-0.1,1.1-0.6,1.3-1.2
				c0.2-0.5,0.3-0.9,0.5-1.3c1,0.5,2,0.9,3,1.2c0.1,0,0.2,0,0.2,0c0.2,0.1,0.4,0.1,0.7,0c1.3-0.6,2.4-1.7,3.6-2.5
				c0.1-0.1,0.3-0.2,0.4-0.3c1,0.5,1.5,2.7,2.8,2.9c0.3,0,0.6-0.1,0.7-0.4c0.6-1.9,2.2,0.6,3.3,0.9c1.4,0.4,2.2-1.9,3.7,0
				c0.4,0.5,0.9,0.5,1.4,0.2c0.4-0.3,0.7-0.8,0.9-1.1c1.1-1.4,1-1.2,2.4-0.3c0.3,0.2,0.7,0,0.8-0.3c0.1-0.3,0.6-3.6,1.9-1.7
				c0.4,0.5,0.7,0.9,1.2,1.2c0.9,0.6,1.8,0.2,2.5-0.4c1.1-0.9,1.1-2.1,3-2.3c0.9-0.1,1.8,0.4,2.6,0.4c0.6,0,0.9-0.2,1.3-0.6
				c0.8-0.6,1.3-1.2,2.4-1.5c0.3-0.1,0.4-0.3,0.5-0.6c0.1-1.2,1-0.9,1.5-1.5c0.5-0.6,0.5-0.6,0.8-1.3c0,0,0.1-0.4,0.1-0.7
				c0.1-0.1,0.2-0.1,0.3-0.2c0.4,0.5,0,1.4,0.2,2.3C269.9,77.7,273.3,78.7,271.2,79.7z M261.3,91.4c1.2,0.1,2.4,0.1,3.6-0.1
				c-1.6,0.6-3.3,1.2-4.9,1.9c-0.1,0,0,0.2,0,0.2c2.5-0.2,5.2-0.6,7.6-1.5c0,0,0,0,0,0.1c-2.2,1.1-4.4,2-6.8,2.7
				c-2.1,0.6-4.5,0.7-6.4,1.6c0,0,0,0.1,0,0.1c2.1,0.4,4.6-0.4,6.6-0.9c1.4-0.3,2.8-0.7,4.1-1.2c-1.8,1.1-4.1,1.8-5.9,2.6
				c-3.5,1.5-7,2.2-10.6,3.4c-4.1,1.3-8,2.1-12.3,2.4c-7.9,0.5-16.2,0.6-23.9-0.8c-4-0.7-7.8-2-11.4-3.8c-1.7-0.9-3.4-1.9-5-3
				c1.2,0.6,2.4,1.2,3.6,1.8c1.7,0.9,3.6,2,5.5,1.9c0.1,0,0.2-0.1,0.1-0.2c-1.2-1-2.8-1.5-4.1-2.2c-1.5-0.8-2.9-1.9-4.4-2.8
				c-2.2-1.4-4-2.5-5.8-4.2c1.5,1.1,3.2,2,4.8,2.9c1.8,1.1,3.5,2.5,5.7,2.3c0.1,0,0.2-0.2,0.1-0.2c-2.4-1.1-4.5-2.8-6.6-4.4
				c1.2,0.4,2.5,0.7,3.7,0.9c0.2,0,0.4-0.2,0.2-0.4c-2.1-1.2-4.5-2.2-6.5-3.6c1.5,0.8,3.3,1.2,4.7,1.2c0.2,0,0.3-0.3,0.2-0.4
				c-0.9-0.7-2-1.1-3-1.7c-0.1,0-0.1-0.1-0.2-0.1c0.5-0.1,0.9-0.4,1.4-0.6c0,0.1,0,0.1,0,0.2c0.1,0.4,0.5,0.5,0.8,0.5
				c0.8-0.1,1.4-0.4,2-0.9c1.5-1.1,1.1,0.7,1.1,1.8c-0.1,2.2,3,0.6,3.2,1.7c0.6,2.2,3.1,1.1,4.5,1.1c1.1,0,1.3,0.8,1.8,1.2
				c0.1,1,0,2.3,1,2.5c0.9,0.2,1.8,0.2,2.7-0.1c1.8-0.6,1.2,1.2,2.5,1.5c1.1,0.3,1.6-0.2,2.6,0.5c0.7,0.5,1.3,0.8,2.1,0.7
				c0.4-0.1,0.7-0.6,0.8-0.9c0.6-1.8,1.2-3.2,3-3.7c0,1.8-0.9,3,1.4,3.8c1.3,0.5,2.5-0.3,3.8,0.8c0.6,0.6,1.5,0.4,2.2,0.2
				c0.6-0.2,1-1,1.3-1.5c0.8-1.3,2,0.6,2.9,0.6c2.2-0.1,1.4-2.6,2.5-3.1c0.3,1,0.6,2,1.8,2.6c1,0.5,2.9,0.4,3.5-0.7
				c0.7-1.1,0-1.9-0.7-2.7c-0.2-0.2-0.3-0.3-0.4-0.4c0-0.1,0-0.1-0.1-0.2c0-0.5,2.1,0.4,2.7,0.8c0.5,0.3,1.3,0.8,1.9,0.6
				c0.5-0.2,1.2-0.4,1.4-0.9c0.3-0.7,0.7-3.1,1.9-2.4c1.7,1.1,2.8,1.5,4.4,0.1c0.4-0.3,0.4-1,0.4-1.4c0.1-2.2,2.7,0.5,3.3,0.8
				c0.9,0.6,1.7,0.1,2.4-0.5c0.9,1.1,2.3,2.4,3.5,1.6c1-0.6,0.8-1.5,0.3-2.3c0.2,0,0.5,0,0.7,0c0.2,0,0.3,0,0.5-0.1
				c0.9,0.3,1.8,0.2,2.7,0c0.5-0.1,1.2-0.3,1.7-0.5c0,0.1,0,0.1,0,0.2c-0.5,0.1-0.9,0.3-1.4,0.5c-1,0.3-2.1,0.5-3.1,0.9
				c-0.2,0.1-0.2,0.4,0,0.5c1.1,0.3,2,0.1,3.1-0.2c0.3-0.1,0.6-0.1,0.9-0.2c-0.9,0.4-1.8,0.6-2.7,0.7c-1.1,0.2-2.3,0.3-3.2,0.9
				c-0.1,0.1-0.1,0.2,0.1,0.2c1.1,0.1,2.2-0.2,3.3-0.3c0.9-0.1,1.8-0.3,2.7-0.7c0,0.1,0,0.2-0.1,0.2c-2.5,0.9-5,1.9-7.7,2.2
				C261.2,91.2,261.2,91.4,261.3,91.4z M269.1,84c-1,0.5-2.1,0.7-3.1,1.2c-0.2,0.1-0.2,0.4,0.1,0.4c1.1,0,2.2-0.3,3.2-0.7
				c0,0,0,0.1,0,0.1c-0.6,0.2-1.1,0.5-1.7,0.7c-0.8,0.3-1.7,0.5-2.5,0.7c-0.1-0.7-0.2-1.3-0.5-1.9c0.9,0.1,2,0.5,2.6,0c0,0,0,0,0,0
				c0.1,0,0.1,0.1,0.2,0C268.1,84.3,268.6,84.1,269.1,84z M268,83.1c0.1-0.3,0.3-0.3,0.5-0.3c0,0-0.1,0-0.1,0.1
				C268.2,83,268.1,83,268,83.1z M200.5,39.2c4.4-2.6,8.7-4.2,13.8-5c4.8-0.8,9.6-0.9,14.4-1c3,0,6,0.3,9.1,0.6
				c9.3,1.1,26.2,6.8,30.6,16.1c1,2.2,1.6,4.7,1.4,7.1c-0.2,3.1-2.2,4.5-4.3,6.4c-1.3,0.5-2.7,0.7-4.1,0.8c-3.4,0.3-6.7,1.1-10.1,2
				c-4.5,1.2-8.9,2.3-13.4,3.1c-0.5-0.3-0.9-0.1-1.1,0.2c-2.6,0.5-5.2,0.8-7.8,1.1c-9.9,0.9-20.2-0.8-29.5-4c-2.8-0.9-5.4-2.3-8-3.7
				c-4.2-2.1-3-6.9-2.2-10.5C190.6,46.1,195.2,42.3,200.5,39.2z M268,73.9c0,1-0.4,1.9-1.4,2.2c-0.2,0.1-0.5,0.2-0.7,0.4
				c-0.2,0.2-0.3,0.4-0.3,0.6c-0.3,0.9,0.1,0.2-0.9,0.6c-0.9,0.3-1.7,2-2.5,1.9c-1.2-0.1-2.3-0.3-3.4,0.1c-0.8,0.3-1.4,0.9-1.9,1.5
				c-1.5,2-2.7-0.1-4-0.9c-1.3-0.8-1.9,0.6-2.3,1.8c-0.3-0.2-0.5-0.3-0.8-0.5c-0.5-0.4-0.8-0.8-1.2-1.3c-0.7-0.9-1.5-1.7-2.5-2.2
				c0,0-0.1,0,0,0.1c0.8,1,1.4,2.1,2.2,3c0.2,0.3,0.4,0.5,0.7,0.8c-0.6,0.1-1.1,0.7-2.1,2c-0.2,0.3-1.5-0.8-2-1
				c-0.9-0.3-2.8,1.2-3.4,0.5c-0.9-1.2-2.6-2.1-3.6-0.4c0,0-0.8-1.3-1.8-1.9c0.8-0.5,1.7-1,2.5-1.4c2.7-1.5,5.1-3.5,7.9-4.8
				c0.1,0,0.1-0.1,0.1-0.2c3.2-0.1,6.4-0.4,9.6-0.9c3.3-0.4,6.8-1.2,9.6-3c0,0,0,0,0.1,0.1c0.8,0.5,1.1,1.1,1,2.1
				c-0.2,1.1-1.5,1.1-2.3,1.3c-0.7,0.2-1.2,0.6-1.6,1.3c-0.2,0.3-0.3,0.7-0.4,1c-0.5,1-1.8-0.1-2.4-0.2c-1-0.3-1.6-0.1-2.4,0.5
				c-0.1,0.1,0,0.1,0.1,0.1c1-0.2,1.9,0.1,2.7,0.6c0.4,0.2,1.1,0.5,1.6,0.4c1.7-0.6,1.5-2.7,3.4-3c2.3-0.4,3-3.3,1-4.5
				c0.1-0.1,0.2-0.1,0.3-0.2c0.5-0.4,1-0.9,1.5-1.4c0.2,0.8,0.4,1.7,0.5,2.5c0.1,0.5,0.1,1,0,1.5c-0.1,0-0.1,0-0.2,0
				c0,0-0.1,0-0.1,0c0,0-0.1,0-0.1,0C267.8,73.1,267.8,73.6,268,73.9z M219,81.1c-0.3,0.4-0.7,0.7-1,1.1c-0.3,0.5-0.7,0.8-1.1,1.2
				c-0.1,0.1-0.1,0.2-0.1,0.3c-0.6,0.6-1.1,1.3-1.3-0.1c-0.1-0.5-0.7-0.5-1-0.3c-1.8,1.5-1.2,0.1-2.7,0.1c0,0-0.1,0-0.1,0
				c0.2-0.2,0.3-0.5,0.4-0.6c0.6-0.8,1.2-1.6,1.7-2.4c0.1-0.1-0.1-0.3-0.2-0.2c-0.8,0.5-1.4,1.2-2.1,1.9c-0.3,0.4-0.6,0.8-0.9,1.2
				c-0.2,0.2-0.4,0.5-0.4,0.8c-0.3,0.2-0.6,0.4-0.9,0.5c0.2-1.7,0.8-3-1.3-3.4c0.1-1.1,0.2-3-1.3-2.6c-1.2,0.4-1.9,0.7-3.3,0.7
				c-0.1,0-0.1,0-0.2,0c1.6-1.3,3.9-1.9,5.6-2.6c0.1,0,0.1-0.1,0-0.1c1.3,0.1,2.6,0.1,4,0.2c1,0,2.1,0.1,3.3,0.1
				c-0.1,0.2,0,0.5,0.3,0.6c3.7,1,6.6,3.5,9.9,5.4c-0.1,0.2-0.3,0.5-0.3,0.8c-0.4,1.4-1.6,1-2.7,1.2c-0.9,0.2-1.8,0.5-2.7,0.8
				c-0.6-0.8-0.3-2.8-1.7-2.8c-0.1,0-0.2,0-0.3,0c0.3-0.5,0.4-1.1,0.7-1.6C219.2,81.1,219.1,81,219,81.1z M201.6,79.9
				c0,0.1-0.1,0.1-0.1,0.2c-0.1,0.3-0.3,0.7-0.4,1.1c-0.2-0.3-0.6-0.6-0.7-0.9c-0.2-0.5-1-0.9-1.5-0.8c-2.3,0.4-4-0.1-5.9-1.6
				c-1.2-1-3.5-4.7-1.6-6.3c0,0,0.1-0.1,0.1-0.1c0.5,0,1.1,0,1.6,0.1c-0.3,0.4-0.6,0.9-0.7,1.3c-0.4,1.3,1.1,2,2.1,2.3
				c0.2,0.1,0.5,0,0.7,0c0.6-0.1,0.3,0.6,0.2,0.8c-0.2,0.5,0,0.9,0.4,1.3c0.4,0.3,0.8,0.3,1.3,0.2c0.3-0.1,0.6-0.2,0.9-0.3
				c0.4-0.1,0.7,0,1.1-0.1c0.1,0,0.2-0.2,0.2-0.3c0-0.1,0-0.1,0-0.2c0-0.1-0.1-0.2-0.3-0.3c-0.7-0.2-1.4,0.1-2,0.3
				c-1,0.3-0.2-0.8-0.1-1c0.1-0.5,0-0.7-0.2-1.1c-0.5-0.8-1.3-0.2-2-0.4c-0.6-0.2-1.2-0.5-1-1.2c0.2-0.8,0.7-0.9,1.2-1.3
				c0.9,0,1.7,0,2.5,0c1,0.9,2.1,1.7,3.1,2.4c2.3,1.6,4.9,2.2,7.5,2.4c-1,0.1-1.9,0.5-2.8,0.9c-1.2,0.5-2.5,1.1-3.4,2.1
				C201.5,79.5,201.5,79.7,201.6,79.9z M197.8,67.6c0.5,0.3,1,0.5,1.6,0.8c-0.5-0.2-0.9-0.4-1.3-0.6
				C197.9,67.7,197.9,67.7,197.8,67.6z M207.6,72.2c-0.4-0.2-0.9-0.4-1.4-0.6c0.6,0.1,1.1,0.1,1.3,0.1c0.2,0,0.3-0.3,0.1-0.4
				c-0.7-0.3-1.4-0.5-2.1-0.6c0.1,0,0.2,0,0.3,0c0.1,0,0.2-0.2,0.1-0.3c-0.3-0.3-0.7-0.4-1-0.6c0.2,0,0.4,0.1,0.6,0.1
				c4.1,1,8.3,1.6,12.5,2c-3.6,0.7-7.3,1-10.9,0.6c0.1,0,0.3,0,0.4-0.1C207.7,72.3,207.7,72.2,207.6,72.2z M219.3,73
				c0.1,0.1,0.2,0.2,0.3,0.2c-0.3,0.1-0.5,0.3-0.8,0.4c0,0,0,0.1,0,0.1c0.8,0,1.7,0,2.7-0.2c-0.7,0.2-1.4,0.4-2.1,0.6
				c-0.2,0.1-0.2,0.4,0.1,0.4c1.2,0,2.5-0.2,3.8-0.4c-0.4,0.1-0.9,0.3-1.3,0.5c0,0,0,0.1,0,0.1c1.7,0,3.7-0.2,5.5-0.7
				c-0.7,0.3-1.5,0.5-2.2,0.7c-3.4,0.9-7,0.8-10.4,0.7c-3.6,0-7.6,0.1-11-1.1c0.6,0.1,1.2,0.2,1.6,0.4c0.2,0.1,0.3-0.2,0.2-0.3
				c-0.7-0.4-1.2-0.9-1.9-1.4C208.6,74.6,214.2,74.3,219.3,73z M220,73.1c0.5-0.3,1-0.4,1.5-0.5C220.9,72.7,220.5,72.9,220,73.1z
				 M222.3,72.3c0.1,0,0.1-0.1,0.2-0.1c0,0,0.1,0,0.1,0C222.5,72.2,222.4,72.2,222.3,72.3z M227.2,73.1c0.8-0.3,1.5-0.7,2.1-1.1
				c0.1,0,0.1-0.1,0.1-0.2c0.1,0,0.2,0,0.3,0C229,72.4,228.1,72.8,227.2,73.1z M218.3,76.8c5.6,0,11.8-0.8,14.7-5.4
				c0.1,0,0.3,0,0.4-0.1c1.6,2.3,5.4,2.9,7.9,3.2c0.9,0.1,1.8,0.2,2.7,0.2c-2,0.8-3.7,2.2-5.5,3.2c-2.8,1.5-5.6,2.9-7.9,5.1
				c0,0,0,0-0.1,0C226.2,81.8,222.8,78,218.3,76.8z M231,71.9c0-0.1,0-0.1,0-0.2c0.1,0,0.1,0,0.2,0C231.1,71.7,231,71.8,231,71.9z
				 M234.5,71.2c0.1,0,0.1,0,0.2,0c0.1,0.1,0.2,0.3,0.3,0.4c1,0.6,2.1,1,3.3,1.3C236.8,72.6,235.4,72.1,234.5,71.2z M259.6,66.4
				c0.6-0.1,1.2,0,1.8-0.1c0.2,0,0.3-0.1,0.5-0.1c0,0,0,0,0,0c-1.3,0.4-2.8,0.5-4.1,0.9c-0.1,0-0.1,0.1,0,0.2c1.9,0.8,4.6,0,6.7-0.9
				c-0.9,0.7-2.2,1.1-3.2,1.3c-1.5,0.3-2.9,0.7-4.3,1.1c-0.1,0,0,0.1,0,0.1c1.1-0.1,2.5-0.1,3.9-0.3c-1.4,0.4-2.9,0.6-4.3,0.8
				c-4.9,0.7-9.7,0.6-14.6,0.5c6.3-1.4,12.5-3.3,18.8-4.1c-0.3,0.2-0.7,0.4-1,0.5C259.5,66.3,259.5,66.4,259.6,66.4z M263.7,69.3
				c0.9-0.2,1.8-0.4,2.6-0.8c-0.6,0.4-1.3,0.8-2,1c-1,0.4-2.1,0.9-3.2,1.2c-0.1,0-0.1,0.2,0.1,0.2c1-0.2,1.8-0.2,2.7-0.3
				c-0.3,0.1-0.6,0.3-0.8,0.4c-2.8,1-5.8,1.5-8.7,1.8c-2.4,0.3-4.8,0.5-7.3,0.6c0.7-0.1,1.3-0.2,1.9-0.3c0.3-0.1,0.3-0.5,0-0.5
				c-1.5-0.3-3-0.4-4.5-0.5c0.2-0.1,0.4-0.2,0.6-0.4c0.1-0.1,0.1-0.3-0.1-0.3c-0.8,0-1.7-0.1-2.5-0.3c5.3,0.6,10.6,0.4,15.8-0.6
				c1.4-0.3,3.9-0.8,6-1.8c-0.3,0.2-0.5,0.3-0.8,0.5C263.5,69.2,263.6,69.3,263.7,69.3z M266.3,64.6c0,0,0.1,0,0.1-0.1
				C266.5,64.6,266.4,64.7,266.3,64.6C266.4,64.7,266.4,64.7,266.3,64.6z M267.9,63.8C268,63.8,268,63.8,267.9,63.8c0,0,0,0.1,0,0.2
				l0,0C268,64,267.9,63.9,267.9,63.8z M189.1,67.8c0.9-0.9,1.9-1.7,2.5-2.8c0.9,0.5,1.9,0.8,2.8,1.2l0,0c0,0.1,0,0.1,0,0.2
				c-0.4,1.2,0.4,2.5,1.3,3.5c0.1,0.2,0.2,0.3,0.3,0.5c-3-0.2-6.2-0.7-9.2-0.4C187.7,69.2,188.4,68.4,189.1,67.8z M269.7,66.3
				c0.4-1.2,0.5-2.6-0.2-3.8c0.4-0.4,0.7-0.8,1-1.2c2.1,1.4,5.4,2.2,6.8,4.4C274.9,66.2,271.9,65.4,269.7,66.3z"/>
			<path class="st0" d="M225.2,36.5c1.6,1,3.5-0.9,3.5-2.5c0-0.2-0.1-0.4-0.3-0.5c-1-0.3-2.5-0.3-3,0.8
				C224.6,34.9,224.2,35.8,225.2,36.5z M225.5,35.1c0.1,0,0.3,0,0.4-0.1c0.3-0.3,0.5-0.5,0.9-0.7c0.3-0.1,0.6-0.1,1,0
				c0,0.8-1.1,1.7-1.9,1.7C225.4,36,225.3,35.5,225.5,35.1z"/>
			<path class="st0" d="M219.6,37.9c0.5,0.3,1.2,0.4,1.7,0.4c0.4,0,0.8-0.2,1-0.6c0.3-0.7-0.6-1.4-1.2-1.6c-0.5-0.1-0.9,0-1.3,0.2
				c0,0,0,0,0,0c-0.2,0.1-0.5,0.2-0.6,0.4C218.9,37.2,219.2,37.6,219.6,37.9z M221.5,37.4L221.5,37.4L221.5,37.4L221.5,37.4
				L221.5,37.4L221.5,37.4L221.5,37.4L221.5,37.4L221.5,37.4z M220.3,37c0.4-0.1,0.7,0,1,0.2l0,0c0,0,0.1,0.1,0.1,0.1
				c0,0,0,0.1,0,0.1c0,0,0,0,0,0l0,0l0,0l0,0l0,0c-0.1,0.1-0.4,0.1-0.6,0.1c-0.3,0-0.7,0-1-0.2c-0.1,0-0.1-0.1-0.1-0.2
				C220,37.1,220.1,37,220.3,37z"/>
			<path class="st0" d="M233.4,38.6c0.4,0,0.8-0.2,1-0.5c0.2-0.4,0-0.7-0.3-1c-0.3-0.3-0.7-0.5-1-0.6l0,0c0,0-0.1-0.1-0.1-0.1
				c-0.5-0.1-0.9-0.2-1.3,0.1c-0.3,0.2-0.5,0.6-0.4,1C231.3,38.5,232.6,38.7,233.4,38.6z M232.1,37.1
				C232.1,37.1,232.1,37.1,232.1,37.1c0.2,0,0.4,0,0.6,0c0.3,0.1,0.5,0.1,0.7,0.3c0.1,0,0.1,0.1,0.2,0.2l0,0l0,0c0,0-0.1,0-0.2,0
				c-0.4,0.1-1.3,0.2-1.5-0.3C231.9,37.3,231.9,37.2,232.1,37.1z"/>
			<path class="st0" d="M228.6,41.6c-0.5-0.1-1.1,0.2-1.3,0.6c-0.5,1,0.8,1.5,1.6,1.5c0.9,0,1.7-0.6,1.8-1.4c0-0.4-0.2-0.8-0.6-1
				c-0.4-0.1-1-0.2-1.3,0.1C228.7,41.5,228.7,41.6,228.6,41.6z M229.2,42.1c0.1,0,0.2,0,0.3,0.1l0,0c0,0,0,0.1,0.1,0.1l0,0l0,0v0
				c0,0,0,0,0,0.1c0-0.1,0,0,0,0.1c0,0,0,0.1,0,0.1l0,0c0,0,0,0,0,0.1c-0.1,0.1-0.3,0.2-0.5,0.2c-0.3,0-0.6,0-0.8-0.1
				c-0.1,0-0.1-0.1-0.1-0.1c0.2-0.4,0.7-0.3,1.1-0.3C229.2,42.3,229.2,42.2,229.2,42.1z"/>
			<path class="st0" d="M224.1,40.1c0.3,0,0.5,0,0.7,0c0.9,0.3,2.1,0,2.6-0.9c0.1-0.2,0.1-0.4-0.1-0.5c-1.2-1.2-3.7-1-3.8,1
				C223.6,39.9,223.9,40.1,224.1,40.1z M226.4,39c-0.3,0.2-0.7,0.4-1.1,0.5c0,0,0,0,0-0.1c-0.2-0.2-0.4-0.3-0.7-0.3
				C225,38.7,225.9,38.7,226.4,39z"/>
			<path class="st0" d="M212,40.7c1.3,0.4,3.3,0.7,3.6-1.1c0.1-0.4-0.1-0.6-0.5-0.7c-0.1,0-0.2,0-0.3-0.1c0-0.1-0.1-0.1-0.2-0.2
				c-1.2-0.5-2.8,0.2-2.9,1.7C211.7,40.5,211.9,40.7,212,40.7z M213.6,39.2c0,0.2,0.1,0.3,0.4,0.3c0.2,0,0.4,0.1,0.6,0.2
				c-0.3,0.6-1.2,0.4-1.9,0.2C212.8,39.6,213.1,39.4,213.6,39.2z"/>
			<path class="st0" d="M207.9,39.9c0.4,0.1,0.8,0.1,1.2-0.1c0.6-0.3,1.2-1,1.2-1.7c0-0.8-0.8-0.9-1.4-0.7c-0.9-0.1-2.3,0.3-2,1.4
				C206.9,39.4,207.4,39.7,207.9,39.9z M208.2,38c0,0.2,0.1,0.4,0.4,0.4c0.2,0,0.5-0.1,0.7-0.1c0,0,0,0,0,0c0,0.1,0,0.1-0.1,0.2
				c-0.1,0.2-0.2,0.3-0.4,0.4c-0.2,0.1-0.3,0.2-0.5,0.2c-0.2,0-0.5-0.1-0.7-0.3C207.3,38.5,207.7,38.2,208.2,38z"/>
			<path class="st0" d="M238,40.4c-0.1,0.2,0,0.5,0.2,0.6c1.1,0.7,2.9,0.8,3.6-0.5c0.3-0.5,0.2-1.1-0.2-1.4
				c-0.4-0.3-0.9-0.3-1.3-0.2c-0.3-0.1-0.6-0.1-1,0C238.6,39.1,238.3,39.7,238,40.4z M240.8,39.7c0.1,0,0.1,0,0.2-0.1c0,0,0,0,0,0
				c0,0,0,0.1,0,0.1c0,0.1,0,0.2-0.1,0.3c-0.4,0.6-1.1,0.5-1.7,0.2C239.6,39.8,240.2,39.7,240.8,39.7z"/>
			<path class="st0" d="M236.8,37.4c0.9,0.1,1.9-0.1,1.9-1.1c0.1-0.8-0.7-1.6-1.5-1.7c-0.5-0.1-0.9,0.6-0.5,0.9
				c-0.3,0.1-0.5,0.3-0.7,0.5C235.6,36.6,236,37.3,236.8,37.4z M236.7,36.3c0.2-0.2,0.4-0.3,0.7-0.4c0.1,0.1,0.2,0.2,0.2,0.3
				c0,0.1,0,0.1,0,0.2c-0.1,0.1-0.4,0.2-0.6,0.2C236.6,36.6,236.5,36.5,236.7,36.3z"/>
			<path class="st0" d="M251.9,41.8c0.2,0,0.3-0.1,0.4-0.3c0.2-0.6,0.2-1.3-0.3-1.8c-0.3-0.3-1-0.8-1.5-0.6c0,0-0.1,0.1-0.1,0.1
				c0,0-0.1,0-0.1,0.1c-0.4,0.2-0.6,0.6-0.6,1C249.6,41.5,250.9,41.9,251.9,41.8z M250.8,40c0.1-0.1,0.1-0.1,0.2-0.1
				c0,0,0.2,0,0.2,0c0,0,0.1,0,0.1,0s0,0,0,0l0,0c0,0.1,0.1,0.1,0.1,0.2c0.2,0.3,0.2,0.6,0.1,0.9c-0.5,0-1-0.1-1-0.6
				C250.6,40.3,250.7,40.1,250.8,40z"/>
			<path class="st0" d="M248.3,44.5c0.6-0.4,0.8-1.3,0.4-1.9c-0.2-0.3-0.5-0.5-0.8-0.6c-0.4-0.1-0.9,0-1.2,0.3
				c-0.1,0.2-0.1,0.4,0,0.5c-0.3-0.1-0.6,0.2-0.8,0.4c-0.2,0.3-0.2,0.7,0.1,1C246.3,44.9,247.6,45,248.3,44.5z M246.7,43
				C246.7,43,246.7,43,246.7,43c0.1-0.1,0.1-0.1,0.1-0.1c0.2,0,0.4-0.1,0.7-0.1c0.1,0,0.2,0.1,0.3,0.1c0.1,0.2,0.1,0.5,0,0.7
				c-0.3,0.4-0.9,0.4-1.3,0.2C246,43.6,246.6,43.3,246.7,43z"/>
			<path class="st0" d="M241.5,44.8c-0.1,0.2-0.2,0.4-0.3,0.6c-0.1,0.2,0.1,0.4,0.3,0.4c0.5,0,1,0,1.5,0.1c0.2,0,0.3,0,0.5-0.2
				c0.4-0.5,0.4-1.3-0.2-1.7c-0.5-0.4-1.3-0.2-1.8,0.1C241.1,44.2,241.2,44.6,241.5,44.8z M242.4,44.6c0.1,0,0.2,0,0.3,0
				c0.1,0.1,0.1,0.2,0.1,0.4c-0.3,0-0.6,0-0.8,0C242.1,44.9,242.2,44.7,242.4,44.6z"/>
			<path class="st0" d="M236.2,44.3c0.5,0.4,1.2,0.7,1.9,0.6c-0.1,0,0.1,0,0.2,0c0.1,0,0.1,0,0.2-0.1c0.2-0.1,0.4-0.2,0.5-0.3
				c0.3-0.4,0.4-0.9,0.5-1.4c0-0.2-0.1-0.4-0.3-0.5c-0.5-0.3-0.9-0.5-1.5-0.5c-0.1,0-0.3,0-0.5,0c-0.6-0.2-1.5,0.1-1.7,0.6
				C235.3,43.4,235.8,44,236.2,44.3z M236.5,43.1c0.1,0.1,0.2,0.2,0.3,0.2c0.3,0,0.5-0.1,0.7-0.1c0.2,0,0.4,0.1,0.6,0.2
				c0,0.1-0.1,0.2-0.1,0.3c-0.1,0.1-0.1,0.2-0.2,0.2c0,0-0.2,0-0.2,0c0,0-0.1,0-0.3-0.1c-0.2,0-0.4-0.2-0.5-0.3
				c-0.1-0.1-0.3-0.3-0.3-0.3C236.5,43.2,236.5,43.1,236.5,43.1C236.4,43.1,236.5,43.1,236.5,43.1z M236.4,43.1L236.4,43.1
				L236.4,43.1L236.4,43.1z"/>
			<path class="st0" d="M219.4,44c-0.1,0.1-0.1,0.3-0.1,0.4c0,0,0,0,0,0.1c-0.3,0.4,0,0.9,0.2,1.2c0.3,0.4,0.9,0.6,1.3,0.7
				c0.5,0.1,0.9,0,1.3-0.3c0.6-0.5,0.4-1.5-0.1-2C221.3,43.5,220,43.3,219.4,44z M221.2,45.2L221.2,45.2c0,0-0.1,0-0.1,0.1
				c-0.3,0.1-0.5,0.1-0.8,0c-0.1,0-0.2-0.1-0.3-0.2c0,0-0.1-0.1-0.1-0.1l0-0.1c0,0,0,0,0,0c0,0,0,0,0-0.1c0.1,0,0.2,0,0.3-0.1
				c0,0,0.1,0,0.1,0l0,0c0.1,0,0.1,0,0.2,0c0,0,0,0,0.1,0l0,0c0.1,0,0.1,0,0.2,0h0c0,0,0,0,0,0c0,0,0.1,0,0.1,0.1
				c0,0,0.1,0.1,0.1,0.1c0,0,0,0,0,0C221.2,45.1,221.2,45.1,221.2,45.2C221.2,45.1,221.2,45.2,221.2,45.2L221.2,45.2L221.2,45.2z"/>
			<path class="st0" d="M209,46.7c0.3-0.4,0.4-1,0.1-1.5c-0.4-0.5-1.3-0.5-1.8-0.3c-0.6-0.1-1.3,0.2-1.7,0.8c-0.2,0.2-0.2,0.5,0,0.7
				C206.5,47.4,208.1,47.9,209,46.7z M206.7,46.1c0.3-0.2,0.6-0.3,1-0.1c0.2,0.1,0.3,0,0.5-0.1c0,0,0.1,0,0.1,0c0,0,0,0,0,0
				c0,0.1-0.1,0.1-0.1,0.2c-0.2,0.2-0.4,0.3-0.7,0.3C207.2,46.4,206.9,46.3,206.7,46.1z"/>
			<path class="st0" d="M204.4,43.3c0.4,0,0.7-0.2,0.9-0.4c0.3-0.3,0.7-0.6,0.8-1c0-0.2,0-0.4-0.2-0.6c-0.3-0.2-0.8-0.3-1.2-0.3
				c-0.1,0-0.2,0-0.3,0.1c0,0,0,0,0,0c-0.1-0.1-0.2-0.1-0.4-0.1c-0.2,0-0.4,0-0.6,0.2c-0.3,0.3-0.3,0.9-0.1,1.3
				C203.4,42.9,203.8,43.3,204.4,43.3z M204,41.4C204,41.4,204,41.4,204,41.4L204,41.4z M203.8,41.7L203.8,41.7L203.8,41.7
				c0-0.1,0-0.1,0-0.1c0,0,0,0,0,0c0,0,0,0,0,0c0,0,0-0.1,0-0.1l0,0l0,0c0,0,0,0,0.1-0.1c0.1,0,0.1,0,0.2,0
				c-0.1,0.3,0.1,0.7,0.5,0.7c0.1,0,0.1,0,0.2,0c-0.1,0.1-0.2,0.1-0.2,0.2c0,0-0.1,0.1-0.1,0.1c0,0-0.1,0.1-0.1,0.1l0,0c0,0,0,0,0,0
				c0,0-0.1,0-0.1,0c0,0-0.1,0-0.1,0l0,0c0,0,0,0,0,0h0l0,0c0,0,0,0-0.1,0c0,0-0.1-0.1-0.1-0.1c0-0.1-0.1-0.1-0.1-0.2
				c0,0,0-0.1,0-0.1c0,0,0-0.1,0-0.1c0,0,0-0.1,0-0.1c0,0.1,0,0,0,0C203.8,41.8,203.8,41.8,203.8,41.7z"/>
			<path class="st0" d="M259.1,45.3c0.8-0.2,1.4-0.9,1.5-1.7c0.1-0.9-0.8-1.4-1.6-1.3c-0.2,0-0.3,0.1-0.3,0.3c0,0.1,0,0.2,0,0.3
				c0.1,0.1,0.2,0.2,0.3,0.2c0.3,0,0.9,0,0.8,0.5c-0.1,0.4-0.4,0.7-0.7,0.9c-0.4,0.2-1,0.2-1.4-0.1c-0.1-0.1-0.3-0.3-0.2-0.5
				c0.1-0.2,0.5-0.2,0.7-0.3c0.2,0,0.2-0.4,0-0.4c-0.7-0.1-1.6,0.4-1.3,1.2C257.4,45.1,258.3,45.4,259.1,45.3z"/>
			<path class="st0" d="M243.1,48.3c-0.7,0-1.4,0.5-1.5,1.3c-0.1,1,0.8,1.5,1.7,1.4c0.8-0.1,1.8-0.5,2.1-1.3c0.5-1.2-0.7-1.9-1.7-2
				C243.3,47.8,243.1,48,243.1,48.3z M243.9,49.6c-0.2,0.2-0.4,0.2-0.6,0.3c-0.2,0.1-0.4,0.1-0.5,0.1c0,0-0.1,0-0.1,0l0,0
				c0,0-0.1-0.1-0.1-0.2c-0.1-0.4,0.4-0.6,0.9-0.7l0,0c0.2,0.1,0.7,0.2,0.7,0.3C244.1,49.4,244,49.5,243.9,49.6z"/>
			<path class="st0" d="M218.5,52c0.5,0,0.9-0.2,1.2-0.5c0.4-0.4,0.5-0.9,0.4-1.4c-0.1-0.8-1.5-1.8-2.2-1.1c0,0-0.1,0.1-0.1,0.1
				c-0.1,0-0.1,0-0.2,0c-0.5,0.1-0.7,0.6-0.7,1.1C217,51.2,217.7,52,218.5,52z M218.1,50C218.1,50,218.2,50,218.1,50
				c0.2,0,0.4,0.1,0.5,0.1c0.1,0.1,0.2,0.2,0.3,0.3c0.1,0.1,0.1,0.1,0,0.2c-0.1,0.2-0.2,0.3-0.3,0.3c-0.2,0-0.3-0.1-0.4-0.3
				C218,50.4,218,50.2,218.1,50z"/>
			<path class="st0" d="M230.3,52.4c0.9-0.1,1.6-1,1.6-1.9c0-1-1.2-1.6-2.1-1.1c-0.1,0-0.1,0.1-0.1,0.1c-0.8-0.2-1.6,0.5-1.7,1.3
				C227.8,52,229.3,52.5,230.3,52.4z M229.5,51.1c-0.1,0-0.2-0.1-0.3-0.1c0,0-0.1-0.1-0.1-0.1c0-0.1,0-0.2,0.1-0.2
				c0.1-0.1,0.4-0.2,0.6-0.2c0.3,0,0.5-0.2,0.4-0.5c0.1,0,0.1,0,0.2,0.1c0,0,0.1,0.2,0.1,0.2c0,0.3-0.2,0.6-0.5,0.7
				C229.9,51.2,229.7,51.2,229.5,51.1z"/>
			<path class="st0" d="M236.5,51.6c0.9,0.1,1.6-0.6,1.7-1.5c0.1-1-1.1-1.5-1.9-1.2c-0.1,0-0.2,0.1-0.2,0.2c-0.6,0.2-1.2,0.7-1,1.5
				C235.2,51.2,235.9,51.5,236.5,51.6z M236.1,50.1c0.1-0.1,0.3-0.2,0.4-0.2c0.1,0,0.1-0.1,0.1-0.1c0.1,0,0.2,0.1,0.3,0.1
				c0,0,0.1,0.1,0.1,0.1c0,0,0,0.1,0,0c0,0,0,0.1,0,0.1c0,0.1-0.1,0.2-0.1,0.2c0,0-0.2,0.2-0.1,0.1c0,0-0.1,0-0.1,0.1c0.1,0,0,0,0,0
				l-0.1,0c-0.1,0-0.1,0-0.2,0c0.1,0-0.1,0-0.1,0l0,0c0,0-0.1,0-0.1-0.1c0,0,0,0,0,0c0,0-0.1-0.1-0.1-0.1l0,0c0,0,0,0,0-0.1l0,0
				L236.1,50.1C235.9,50.2,236.1,50.1,236.1,50.1z M235.9,50.2L235.9,50.2L235.9,50.2L235.9,50.2z M235.9,50.2L235.9,50.2
				L235.9,50.2L235.9,50.2z"/>
			<path class="st0" d="M198.9,50.6c0.3-0.1,0.6-0.3,0.7-0.6c0.1-0.4,0-0.8-0.2-1.1c-0.2-0.4-0.5-0.6-0.9-0.7c0-0.1-0.1-0.1-0.1-0.2
				c-0.4-0.2-0.7-0.3-1.2-0.2c-0.1,0-0.3,0.1-0.4,0.2c0,0-0.2,0.1-0.1,0.1c0,0-0.1,0.1-0.1,0.1c-0.1,0.1-0.1,0.1-0.2,0.2
				c-0.3,0.6-0.2,1.4,0.3,2C197.3,51,198.2,51,198.9,50.6z M197.2,48.9L197.2,48.9L197.2,48.9c0-0.1,0-0.1,0-0.2l0,0l0,0
				c0,0,0.1-0.1,0.1-0.1l0,0l0,0c0,0,0,0,0,0l0,0l0,0c0.1-0.1,0.1,0,0.2-0.1c-0.2,0.3,0,0.7,0.3,0.8c0,0,0.1,0,0.1,0
				c0,0,0.1,0,0.1,0c0,0,0,0,0,0c0.1,0,0.1,0,0.1,0.1c0,0,0.1,0.1,0.1,0.1c0,0,0,0.1,0,0.1c-0.1,0.1-0.2,0.1-0.2,0.1
				c0,0-0.1,0-0.1,0c0,0,0,0-0.1,0c0,0,0,0,0,0c0,0-0.1,0-0.1,0l-0.1,0c0,0,0,0-0.1,0c0,0-0.1,0-0.1-0.1c0,0,0,0,0,0l0,0
				c0,0-0.1-0.1-0.1-0.1c0,0,0,0,0,0l0,0c0,0-0.1-0.1-0.1-0.1c-0.1-0.1,0,0-0.1-0.2C197.2,49.1,197.2,49.1,197.2,48.9z"/>
			<ellipse transform="matrix(0.6887 -0.725 0.725 0.6887 26.2161 158.1865)" class="st0" cx="197.3" cy="48.6" rx="0" ry="0"/>
			<path class="st0" d="M197.3,48.6C197.3,48.6,197.3,48.6,197.3,48.6C197.3,48.6,197.4,48.5,197.3,48.6z"/>
			<path class="st0" d="M209.1,54.1C209.1,54.1,209.1,54.1,209.1,54.1c-0.2-0.1-0.3-0.1-0.6,0c-0.6,0.4-0.8,1.1-0.3,1.7
				c0.5,0.5,1.3,0.7,1.9,0.6c0.8-0.2,1.4-1.1,0.9-1.8C210.8,54.1,209.5,53.3,209.1,54.1z M208.9,55L208.9,55L208.9,55L208.9,55z
				 M210,55.4c-0.3,0.1-0.7-0.1-0.9-0.2c-0.1-0.1-0.1-0.1-0.1-0.2l0,0c0,0,0,0,0,0c0-0.1,0.1-0.1,0.1-0.1c0.2-0.1,0.2-0.3,0.2-0.4
				c0.1,0.1,0.3,0.1,0.4,0.2c0.2,0,0.3,0.1,0.5,0.3C210.3,55.2,210.3,55.4,210,55.4z"/>
			<path class="st0" d="M245.5,55c-0.4-0.3-1.1-0.5-1.5-0.1c-0.1,0.1-0.1,0.2-0.1,0.3c0,0-0.1,0-0.1,0c-0.4,0.2-0.7,0.4-0.8,0.8
				c-0.4,1,0.2,1.8,1.2,1.9c1.1,0.1,2-0.7,2-1.7C246.1,55.7,245.9,55.3,245.5,55z M244.2,56.9c-0.4,0-0.4-0.3-0.2-0.5
				c0.2-0.3,0.8-0.3,0.9-0.6c0.1,0.1,0.2,0.3,0.2,0.5C245.1,56.6,244.6,56.9,244.2,56.9z"/>
			<path class="st0" d="M252.5,51.4c-0.5,0.2-0.9,0.7-0.9,1.3c0.1,1.2,1.9,1.5,2.8,1c0.8-0.5,1-1.5,0.7-2.3c-0.2-0.4-0.6-0.7-1-0.8
				c-0.5-0.1-1.3,0-1.6,0.4C252.4,51.1,252.4,51.3,252.5,51.4z M252.8,52.3c0.2-0.2,0.6-0.2,0.9-0.3c0.1,0,0.2-0.1,0.3-0.2
				c0,0.1,0.1,0.2,0.1,0.4l0,0l0,0c0,0.1,0,0.1,0,0.2l0,0c0,0,0,0,0,0c0,0-0.1,0.1-0.1,0.1c-0.1,0.1-0.2,0.2-0.4,0.2
				c-0.3,0-0.7,0-0.9-0.2C252.6,52.6,252.6,52.5,252.8,52.3z"/>
			<path class="st0" d="M225.7,100.6c-5-0.7-10.2-0.4-15.2-0.9c0,0,0,0.1,0,0.1c2,0.6,3.8,0.9,5.9,1.1c3.1,0.2,6,0.9,9.1,0.6
				C226,101.4,226.2,100.7,225.7,100.6z"/>
			<path class="st0" d="M229.3,100.8c-0.7,0-1.3,0.2-2,0.5c-0.2,0.1-0.1,0.3,0.1,0.3c0.6,0,1.2,0,1.9,0c0.5,0,1.1,0.1,1.5-0.3
				c0,0,0-0.1,0-0.2C230.4,100.6,229.8,100.8,229.3,100.8z"/>
			<path class="st0" d="M249.6,64c3.2-0.4,6.4-0.6,9.6-1c2.1-0.3,4.9-0.6,6.6-2.1c2.3-2.1,3.9-6.8,1.5-9.4c-0.2-0.2-0.6-0.1-0.6,0.2
				c0,0.7,0.1,1.4,0.2,2c0,0.9-0.1,1.8-0.7,2.7c-0.8,1.3-2.3,2.1-3.6,2.8c-2.8,1.4-6,1.9-9,2.5c-0.1,0-0.1,0.1,0,0.1
				c3.7,0.4,7.9-0.4,11.1-2.2c0.3-0.2,0.6-0.4,0.9-0.6c-0.7,0.9-1.7,1.6-2.9,2c-4.2,1.5-8.8,1.8-13.1,2.6
				C249.3,63.7,249.4,64,249.6,64z"/>
			<path class="st0" d="M244.2,65.6c-2.3-0.3-5,0.3-7.3,0.7c-3.1,0.5-6.1,1.1-9.2,1.3c-3.2,0.1-6.4,0.2-9.5-0.5
				c-2-0.4-3.8-1.3-5.8-0.8c-0.1,0-0.1,0.2,0,0.3c2.3,0.6,4.6,1.4,7,1.8c2.7,0.5,5.5,0.4,8.2,0.3c2.6-0.1,5.1-0.5,7.7-1
				c2.9-0.6,6-0.6,8.9-1.5C244.6,66.1,244.5,65.7,244.2,65.6z"/>
			<path class="st0" d="M209.6,66.4c-0.4-0.1-0.9-0.1-1.3-0.2c-0.5-0.1-0.8-0.3-1.3-0.2c0,0-0.1,0.1,0,0.1c0.4,0.4,0.8,0.6,1.3,0.8
				c0.4,0.3,0.9,0.4,1.5,0.3C210,67,210,66.5,209.6,66.4z"/>
			<path class="st0" d="M195.6,63.6c0.4,0.1,0.7-0.3,0.5-0.6c-1.3-2-3.8-2.7-5.1-4.9c-1.9-3.2,0.5-8.3,1.9-11.2
				c0-0.1-0.1-0.2-0.1-0.1c-2.4,2.3-3.9,6.6-3.4,10C189.8,59.8,192.8,62.5,195.6,63.6z"/>
			<path class="st0" d="M191.4,54.7c0.1,2,0.9,3.6,2.2,5.1c0.8,1,3.2,3.6,4.7,3.1c0.2-0.1,0.3-0.3,0.2-0.4c-0.2-0.5-0.6-0.6-1.1-0.9
				c-0.9-0.5-1.7-1.2-2.4-1.9c-1.4-1.4-2.7-3.2-3.4-5.1C191.6,54.6,191.4,54.6,191.4,54.7z"/>
			<path class="st0" d="M255.7,77.1c-0.5-0.2-1.1-0.1-1.5,0.2c-0.2,0.2-0.4,0.4-0.7,0.5c-0.5,0-1-0.3-1.5-0.4
				c-1.4-0.5-2.2,0.4-2.3,1.7c0,0.2,0.3,0.3,0.4,0.1c0.2-1.1,0.7-1.5,1.6-0.9c0.4,0.3,1.1,0.5,1.6,0.6c0.4,0.1,0.9,0,1.2-0.3
				c0.4-0.4,0.8-0.7,1.2-1C255.9,77.3,255.9,77.1,255.7,77.1z"/>
		</g>
	</g>
</g>
</svg>
