<?xml version="1.0" encoding="utf-8"?>
<!-- Generator: Adobe Illustrator 21.0.0, SVG Export Plug-In . SVG Version: 6.00 Build 0)  -->
<svg version="1.1" id="Layer_1" xmlns="http://www.w3.org/2000/svg" xmlns:xlink="http://www.w3.org/1999/xlink" x="0px" y="0px"
	 viewBox="0 0 453.7 230.9" style="enable-background:new 0 0 453.7 230.9;" xml:space="preserve">
<style type="text/css">
	.st0{fill:none;}
	.st1{fill:url(#SVGID_1_);}
	.st2{fill:url(#SVGID_2_);}
	.st3{fill:url(#SVGID_3_);}
	.st4{fill:url(#SVGID_4_);}
	.st5{fill:url(#SVGID_5_);}
	.st6{fill:url(#SVGID_6_);}
	.st7{fill:url(#SVGID_7_);}
	.st8{fill:url(#SVGID_8_);}
	.st9{fill:url(#SVGID_9_);}
	.st10{fill:url(#SVGID_10_);}
	.st11{fill:url(#SVGID_11_);}
	.st12{fill:url(#SVGID_12_);}
</style>
<g>
	<polygon class="st0" points="220.1,101.9 186.4,101.9 202.9,150.5 	"/>
	<polygon class="st0" points="32.5,98.8 46.5,98 35.4,65.7 	"/>
	<polygon class="st0" points="86.6,101.9 66,101.9 76.3,140.3 	"/>
	<polygon class="st0" points="105.2,94.3 119.1,93.5 112,60.5 	"/>
	<linearGradient id="SVGID_1_" gradientUnits="userSpaceOnUse" x1="7.2844" y1="97.8391" x2="58.8043" y2="46.3192">
		<stop  offset="0" style="stop-color:#F7931E"/>
		<stop  offset="1" style="stop-color:#C1272D"/>
	</linearGradient>
	<path class="st1" d="M45,35.6c-2.8-7.9-8.2-12.1-15.5-11.6C21.2,24.5,15.9,30,15,40.3l-5.3,60l22.8-1.4l2.9-33.1l11,32.3l19.1-1.2
		L45,35.6z"/>
	<linearGradient id="SVGID_2_" gradientUnits="userSpaceOnUse" x1="-10.2299" y1="164.6583" x2="42.6959" y2="111.7325">
		<stop  offset="0" style="stop-color:#F7931E"/>
		<stop  offset="1" style="stop-color:#C1272D"/>
	</linearGradient>
	<path class="st2" d="M0.2,166.6C0,167.2,0,168.1,0,169.2c0,7.2,4.4,12.1,11,12.1c6.1,0,10.6-4.3,11.6-11.5l10.3-67.9H10L0.2,166.6z
		"/>
	<linearGradient id="SVGID_3_" gradientUnits="userSpaceOnUse" x1="115.2431" y1="159.3723" x2="157.6084" y2="117.007">
		<stop  offset="0" style="stop-color:#F7931E"/>
		<stop  offset="1" style="stop-color:#C1272D"/>
	</linearGradient>
	<path class="st3" d="M130,169.8c1.1,6.9,5.7,11.5,11.8,11.5c6.1,0,10.8-4.6,10.8-11.7c0-1.3,0-2.4-0.2-3l-9.9-64.6h-22.9L130,169.8
		z"/>
	<linearGradient id="SVGID_4_" gradientUnits="userSpaceOnUse" x1="48.3326" y1="157.049" x2="104.5801" y2="100.8015">
		<stop  offset="0" style="stop-color:#F7931E"/>
		<stop  offset="1" style="stop-color:#C1272D"/>
	</linearGradient>
	<path class="st4" d="M76.3,140.3L66,101.9H46.9L65.5,170c1.9,7.6,5.7,11.3,11.2,11.3c5.9,0,8.9-4.1,10.8-11.3l18.2-68.1H86.6
		L76.3,140.3z"/>
	<linearGradient id="SVGID_5_" gradientUnits="userSpaceOnUse" x1="85.4703" y1="94.801" x2="140.8926" y2="39.3787">
		<stop  offset="0" style="stop-color:#F7931E"/>
		<stop  offset="1" style="stop-color:#C1272D"/>
	</linearGradient>
	<path class="st5" d="M113.2,18.8c-7.6,0.5-12.4,5.3-14.2,13.5L86.2,95.5l19-1.2l6.8-33.8l7.1,32.9l22.8-1.4l-12.8-58.9
		C127,23.1,121.4,18.2,113.2,18.8z"/>
	<linearGradient id="SVGID_6_" gradientUnits="userSpaceOnUse" x1="147.058" y1="196.1858" x2="242.6019" y2="100.642">
		<stop  offset="0" style="stop-color:#F7931E"/>
		<stop  offset="1" style="stop-color:#C1272D"/>
	</linearGradient>
	<path class="st6" d="M202.9,150.5l-16.6-48.6h-23.2l27.5,70.3c0.6,1.1,0.8,1.9,0.8,3c0,1.1-0.2,2.2-0.8,3.3l-13.7,35.3
		c-0.8,2.2-1.3,4.1-1.3,6.1c0,6.3,4.4,11.1,10.4,11.1c4.9,0,8.7-3,11-8.2l46.8-120.8h-23.8L202.9,150.5z"/>
	<linearGradient id="SVGID_7_" gradientUnits="userSpaceOnUse" x1="160.8604" y1="89.0361" x2="179.5511" y2="70.3454">
		<stop  offset="0" style="stop-color:#F7931E"/>
		<stop  offset="1" style="stop-color:#C1272D"/>
	</linearGradient>
	<path class="st7" d="M178.1,70.7c-2.3-5.7-6.7-8.7-12-8.4c-6.1,0.4-10.3,5.4-9.8,12.1c0.1,2.2,0.7,4.5,1.9,6.8l4.4,9.4l23.1-1.4
		L178.1,70.7z"/>
	<linearGradient id="SVGID_8_" gradientUnits="userSpaceOnUse" x1="220.7147" y1="88.5486" x2="245.8769" y2="63.3864">
		<stop  offset="0" style="stop-color:#F7931E"/>
		<stop  offset="1" style="stop-color:#C1272D"/>
	</linearGradient>
	<path class="st8" d="M247,69.3c-0.4-6.9-5.4-11.6-11.5-11.2c-5.3,0.3-9.1,3.8-10.6,9.8l-5.5,19.4l23.7-1.5l2.7-8.6
		C246.7,74.7,247.2,72.1,247,69.3z"/>
	<linearGradient id="SVGID_9_" gradientUnits="userSpaceOnUse" x1="259.5004" y1="76.2938" x2="336.8683" y2="-1.0741">
		<stop  offset="0" style="stop-color:#F7931E"/>
		<stop  offset="1" style="stop-color:#C1272D"/>
	</linearGradient>
	<path class="st9" d="M346.8,22.1c1.3-2.3,2-4.7,1.9-7.3c-0.4-6.1-5.1-10.5-11.6-10.1c-4.4,0.3-7,2.8-10.3,8.5l-36.6,62l-3.4-54.3
		c-0.5-8-5-12.5-12.4-12c-7.4,0.5-11.3,5.5-10.8,13.5l3.8,62l44-2.7c0.1-0.5,0.2-1.2,0.4-1.9L346.8,22.1z"/>
	<linearGradient id="SVGID_10_" gradientUnits="userSpaceOnUse" x1="271.8298" y1="178.451" x2="330.3522" y2="119.9287">
		<stop  offset="0" style="stop-color:#F7931E"/>
		<stop  offset="1" style="stop-color:#C1272D"/>
	</linearGradient>
	<path class="st10" d="M268.3,168.5c0,8,4.2,12.8,11.6,12.8s11.6-4.8,11.6-12.8v-56.8l39.3,59c4.9,7.2,8,10.2,13.7,10.2
		c6.6,0,11-4.6,11-10.4c0-2.6-0.8-5.2-2.5-7.8l-40.2-58.1c-0.4-0.6-0.6-1.3-0.6-2c0-0.2,0.1-0.5,0.1-0.7h-44.1V168.5z"/>
	<linearGradient id="SVGID_11_" gradientUnits="userSpaceOnUse" x1="377.6531" y1="174.9678" x2="448.3675" y2="104.2535">
		<stop  offset="0" style="stop-color:#F7931E"/>
		<stop  offset="1" style="stop-color:#C1272D"/>
	</linearGradient>
	<path class="st11" d="M441.4,157.9h-36.6c-3.8,0-5.7-1.5-5.7-4.8v-35.8c0-3.3,1.9-4.8,5.7-4.8h30.7c6.6,0,10.6-4.1,10.6-10.4
		c0-0.1,0-0.2,0-0.3h-70.2v64.4c0,8.7,4.4,13.7,12.7,13.7h52.8c7.6,0,12.3-4.1,12.3-11.1S449,157.9,441.4,157.9z"/>
	<linearGradient id="SVGID_12_" gradientUnits="userSpaceOnUse" x1="373.4459" y1="76.1813" x2="446.0785" y2="3.5487">
		<stop  offset="0" style="stop-color:#F7931E"/>
		<stop  offset="1" style="stop-color:#C1272D"/>
	</linearGradient>
	<path class="st12" d="M433.7,64.2l-30.6,1.9c-3.6,0.2-5.8-1.6-6-4.4l-2-32.4c-0.2-3,1.6-4.7,5.4-4.9l36.5-2.3
		c7.6-0.5,12-4.9,11.6-11.8S443.3-0.4,435.7,0l-52.7,3.3c-8.2,0.5-12.4,5.8-11.8,14.4l3.7,59.9l70-4.3
		C444.4,67.1,440.2,63.8,433.7,64.2z"/>
</g>
</svg>
